<mxfile>
    <diagram id="4SkkU5MauZjbIeqbXFZH" name="Page-1">
        <mxGraphModel dx="827" dy="665" grid="1" gridSize="10" guides="1" tooltips="1" connect="1" arrows="1" fold="1" page="1" pageScale="1" pageWidth="827" pageHeight="1169" math="0" shadow="0">
            <root>
                <mxCell id="0"/>
                <mxCell id="1" parent="0"/>
                <mxCell id="KlYnetJEtSsTYRGKjeyn-28" value="" style="rounded=0;whiteSpace=wrap;html=1;fillColor=#FEFEFE;" parent="1" vertex="1">
                    <mxGeometry x="199.61" y="54.83" width="184.39" height="321.17" as="geometry"/>
                </mxCell>
                <mxCell id="KlYnetJEtSsTYRGKjeyn-29" value="" style="rounded=0;whiteSpace=wrap;html=1;strokeColor=#82b366;fillColor=#EDEDED;gradientDirection=south;gradientColor=#CCFFE6;" parent="1" vertex="1">
                    <mxGeometry x="497.81" y="54.42" width="184.39" height="321.17" as="geometry"/>
                </mxCell>
                <mxCell id="KlYnetJEtSsTYRGKjeyn-30" value="" style="strokeWidth=1;html=1;shadow=0;dashed=0;shape=mxgraph.android.statusBar;align=center;fillColor=#000000;strokeColor=#ffffff;fontColor=#ffffff;fontSize=10;" parent="1" vertex="1">
                    <mxGeometry x="198.22" y="55" width="186.78" height="15.83" as="geometry"/>
                </mxCell>
                <mxCell id="KlYnetJEtSsTYRGKjeyn-31" value="" style="shape=image;verticalLabelPosition=bottom;labelBackgroundColor=#ffffff;verticalAlign=top;aspect=fixed;imageAspect=0;image=https://i.pinimg.com/originals/18/35/84/183584d344ca412259b882b29382f696.png;" parent="1" vertex="1">
                    <mxGeometry x="-100" y="10" width="222.92" height="420" as="geometry"/>
                </mxCell>
                <mxCell id="KlYnetJEtSsTYRGKjeyn-32" value="" style="shape=image;html=1;verticalLabelPosition=bottom;verticalAlign=top;imageAspect=0;image=https://i2.wp.com/appsnipp.com/wp-content/uploads/2019/06/modern_login_mockup.png?fit=1592%2C1245&amp;ssl=1;" parent="1" vertex="1">
                    <mxGeometry x="743" y="460" width="480" height="390" as="geometry"/>
                </mxCell>
                <mxCell id="KlYnetJEtSsTYRGKjeyn-34" value="" style="strokeWidth=1;html=1;shadow=0;dashed=0;shape=mxgraph.android.statusBar;align=center;fillColor=#000000;strokeColor=#ffffff;fontColor=#ffffff;fontSize=10;" parent="1" vertex="1">
                    <mxGeometry x="497.81" y="55" width="184.19" height="15.83" as="geometry"/>
                </mxCell>
                <mxCell id="KlYnetJEtSsTYRGKjeyn-53" value="" style="shape=image;html=1;verticalLabelPosition=bottom;verticalAlign=top;imageAspect=0;image=https://media.geeksforgeeks.org/wp-content/uploads/20201029125034/HowtoAddaFloatingActionButtontoBottomNavigationBarinAndroid.png;rounded=1;shadow=0;glass=1;labelBackgroundColor=none;sketch=0;fontSize=9;fontColor=#00ADC0;strokeColor=#00ADC0;strokeWidth=1;fillColor=#D5E8D4;gradientColor=#E6E6E6;opacity=90;" parent="1" vertex="1">
                    <mxGeometry x="743" y="870" width="350" height="181.41" as="geometry"/>
                </mxCell>
                <mxCell id="KlYnetJEtSsTYRGKjeyn-54" value="" style="group" parent="1" connectable="0" vertex="1">
                    <mxGeometry x="-610" y="77.69" width="200" height="390" as="geometry"/>
                </mxCell>
                <mxCell id="KlYnetJEtSsTYRGKjeyn-55" value="" style="rounded=0;whiteSpace=wrap;html=1;fillColor=#FEFEFE;" parent="KlYnetJEtSsTYRGKjeyn-54" vertex="1">
                    <mxGeometry x="8" y="34.83000000000001" width="184.39" height="321.17" as="geometry"/>
                </mxCell>
                <mxCell id="KlYnetJEtSsTYRGKjeyn-56" value="" style="strokeWidth=1;html=1;shadow=0;dashed=0;shape=mxgraph.android.statusBar;align=center;fillColor=#000000;strokeColor=#ffffff;fontColor=#ffffff;fontSize=10;" parent="KlYnetJEtSsTYRGKjeyn-54" vertex="1">
                    <mxGeometry x="6.610000000000014" y="35" width="186.78" height="15.83" as="geometry"/>
                </mxCell>
                <mxCell id="KlYnetJEtSsTYRGKjeyn-57" value="" style="verticalLabelPosition=bottom;verticalAlign=top;html=1;shadow=0;dashed=0;strokeWidth=1;shape=mxgraph.android.phone2;strokeColor=#314354;fillColor=#647687;fontColor=#ffffff;" parent="KlYnetJEtSsTYRGKjeyn-54" vertex="1">
                    <mxGeometry width="200" height="390" as="geometry"/>
                </mxCell>
                <mxCell id="KlYnetJEtSsTYRGKjeyn-58" value="" style="group;" parent="1" connectable="0" vertex="1">
                    <mxGeometry x="194" y="470" width="230.39" height="390" as="geometry"/>
                </mxCell>
                <mxCell id="KlYnetJEtSsTYRGKjeyn-59" value="" style="rounded=0;whiteSpace=wrap;html=1;fillColor=#FEFEFE;" parent="KlYnetJEtSsTYRGKjeyn-58" vertex="1">
                    <mxGeometry x="8" y="34.83000000000001" width="184.39" height="321.17" as="geometry"/>
                </mxCell>
                <mxCell id="KlYnetJEtSsTYRGKjeyn-60" value="" style="strokeWidth=1;html=1;shadow=0;dashed=0;shape=mxgraph.android.statusBar;align=center;fillColor=#000000;strokeColor=#ffffff;fontColor=#ffffff;fontSize=10;" parent="KlYnetJEtSsTYRGKjeyn-58" vertex="1">
                    <mxGeometry x="6.610000000000014" y="35" width="186.78" height="15.83" as="geometry"/>
                </mxCell>
                <mxCell id="KlYnetJEtSsTYRGKjeyn-61" value="" style="verticalLabelPosition=bottom;verticalAlign=top;html=1;shadow=0;dashed=0;strokeWidth=1;shape=mxgraph.android.phone2;strokeColor=#314354;fillColor=#647687;fontColor=#ffffff;" parent="KlYnetJEtSsTYRGKjeyn-58" vertex="1">
                    <mxGeometry width="200" height="390" as="geometry"/>
                </mxCell>
                <mxCell id="KlYnetJEtSsTYRGKjeyn-62" value="" style="shape=image;html=1;verticalLabelPosition=bottom;verticalAlign=top;imageAspect=0;image=data:image/png,iVBORw0KGgoAAAANSUhEUgAAA2EAAAC8CAIAAAB+JjEEAAAgAElEQVR4Ae2dCXxU1fXHI4J7tS61ImiCqWu1CO7rNC51qbWuY9S2Wtz+E9u6VK2duC/ViVDXZrppCBNAQZgIIuioAYGHCsoooDIGcZIJCYEXyDYhy8z9fyY/OLnc9+bNy0KTCSeffOh9d+67977vm8qPc+45J0PwDxNgAkyACTABJsAEmAAT2J5AxvaXfMUEmAATYAJMgAkwASbABARrRP4SMAEmwASYABNgAkyACagEWCOqRPiaCTABJsAEmAATYAJMgDUifweYABNgAkyACTABJsAEVAKsEVUifM0EmAATYAJMgAkwASbAGpG/A0yACTABJsAEmAATYAIqAdaIKhG+ZgJMgAkwASbABJgAE2CNyN8BJsAEmAATYAJMgAkwAZUAa0SVCF8zASbABJgAE2ACTIAJsEbk7wATYAJMgAkwASbABJiASoA1okqEr5kAE2ACTIAJMAEmwARYI/J3gAkwASbABJgAE2ACTEAlwBpRJcLXTIAJMAEmwASYABNgAqwR+TvABJgAE2ACTIAJMAEmoBJgjagS4WsmwASYABNgAkyACTAB1oj8HWACTIAJMAEmwASYABNQCbBGVInwNRNgAkyACTABJsAEmABrRP4OMAEmwASYABNgAkyACagEWCOqRPiaCTABJsAEmAATYAJMgDUifweYABNgAkyACTABJsAEVAKsEVUifM0EmAATYAJMgAkwASbAGpG/A0yACTABJsAEmAATYAIqAdaIKhG+ZgJMgAkwASbABJgAE2CNyN8BJsAEmAATYAJMgAkwAZUAa0SVCF8zASbABJgAE2ACTIAJsEbk7wATYAJMgAkwASbABJiASoA1okqEr5kAE2ACTIAJMAEmwARYI/J3gAkwASbABJgAE2ACTEAlwBpRJcLXTIAJMAEmwASYABNgAqwR+TvABJgAE2ACTIAJMAEmoBJgjagS4WsmwASYABNgAkyACTAB1oj8HWACTIAJMAEmwASYABNQCbBGVInwNRNgAkyACTABJsAEmABrRP4OMAEmwASYABNgAkyACagEWCOqRPiaCTABJsAEmAATYAJMgDUifweYABNgAkyACTABJsAEVAKsEVUifM0EmAATYAJMgAkwASbAGpG/A0yACTABJsAEmAATYAIqAdaIKhG+ZgJMgAkwASbABJgAE2CN2O3vQDQaDYVCgUCg1O/Pd7vz3e48lys7M8v4i08LPJ5Sv1/TtFAo1O3F+AYmwASYABNgAkyACfQHAdaItqhHIpFAIFDg8eQ6nblOpyz7IpGIPIWu66FtP5FIBM1AIFDi8+W73TkOR57L5S30apqm67p8I7eZABNgAkyACQwmAk3t8c/11te/a37l64Znv6x/6PPNjy7fPH5l/b9WN75VEV1d394Wiw+m5x18z8Ia0eqdBoNBb6E31+nMc7lKfL5gMBiNRumGSCSS43BkZ2bhT2+hNxqNBgIBGBRznc7szKxAIEDj0dB1XdM0mrbU71dUpjKeL5kAE2ACTIAJpAuB9S0dvvKmWxbpo6ZXZRSFrX+HFodPmlV9/9JNcyMtLR2sFwfcS2aNaPJKdF0v8flyHI58tzsQCOi6Ho1GTc1+EIJwOkMRhkIhaEQhRCgU0jRNXqDU78/OzCrweILBoBAiEomU+HzQoIFAQBag8l3cZgJMgAkwASYwkAm0dMTfWNt8aaB214lduvCQ1yOOuTW3L9YfXb55wsqGf61uhEEx/7NNNy7YOHZW9T4lFSQid59U4ZhbM31t80B+zJ1tb6wRt3vjwWAw3+3OdTpL/X5d13EJS2GOw0EGP6hGIYS30JudmVXq95P4I42Y73aX+HxCiGg0ChOjEALDcFeu0wndGen88RZ6cxwOb6HXVIxut0u+YAJMgAkwASYwMAg0tcefX9VwyOsRqL0flFRev2BD0bdN3ze2m24w2hH/rrG9qrlDCBGLiwU1W46csZ3FcZ+Sioc+38xeaFN6/+NO1ohbgWualut05rvdsuWvxOeDQIxEIrAO6p0/OFZImg/HE7Mzs/LdbtKIcE/TmFK/XwiB6JZgMIjZQqFQNBrNzszKc7kikUg0Gi31+3OdTlaK/+P/G/ByTIAJMAEm0F0CcSH+G2o8aGol1OE579RMXtPU3J7UZVwd7fjdRxt3K95qOzxsWiT/s02XvV9LpkS5sZev4tVQY3e3xOP7lgBrxIRHOM/lgrzTNK3A45EPEeKsYTAYLPB46Hxhic8HKYnTh/luNxkUdV0nXzMsiPApw6CIj/BnnssVjUY1TSO9qGlaic+HA4tsU+zbLzrPxgSYABNgAn1I4Iu6tjPn1EDVXfTe+iW1W6wnr452ZHWeUDxwSuWlgdrT3q6WFWGy9rEz11U0JSyO/NMvBHZqjajrOkKVcToQJj0yHOJ9QPyV+HxwE8McSK8KVsMchwMHExHUDM1X6vdDXyJLTqnfj6ny3W5MBZWZ73bjhCI817lOJzzasCnmOBzKirQ0N5gAE2ACTIAJ9AuB/6xu3GNSwhyY/WbVvEiLnT38ftHGjKLwrYv1lo54eyxxhz8cHTIxfMCUyle+biirbvn36kZT4TisuMJX3mRnCR7T5wR2Xo0YCASMCgyKTZaJsPPhhCKOHsrvAJ/CDAmhqWka0iLCg1zq94dCIcg+KEjk0MFUZHRExDTND/NkgcdTVVUFFcu5FWXs3GYCTIAJMIF+IbClI/6bjxJqL6Mo/MDSTfaDkQ+cUnnUjKqOuHhw2aahxWHH3JpoR/wOTZ9TGW1uj78aaiwub2qLxa9fsMHUpnjjgo398rw7+aI7o0bUdR0yzhgdUuLzFXg8sP/BFywbF3McDuMtxi8QXMyk6nDoUB6GWOkSnw/HE3OdThxbzHE4ENoMqZrjcOQ4HIFAIBgM5jgciICR5+E2E2ACTIAJMIH/GYHNrbGzOv3L+0+unFXRlQnOzgYyisJ3LqnTt8RIAs6LtKxpSJxeHLdIR2fBivqq5o5dOgXoECk+Gp+eOaeGA1nsoO7DMTudRoTeQtiy0WpY6vfDKCgfGYRZEScF7aBHxuwSnw/qMBqNFng8FBON44nyccZcpzMUCsFUKYSAERF6FIcgo50/BR5PnstlR6Ta2SSPYQJMgAkwASZgn8Dm1thJsxKHCI94s+rbevOYZYvZfjS18pqyDdGOOGJWDp4aaWzbGt1y2LStMdG3Lk6UlvjtRxuDemtciKrmjl8GtotoOc6/jmWiBeQ+/2jn0og4IxiJRCiyuNTvhw6DDQ/6rMTnI6EWDAZleWfnBQQCAbJBIkI5EonkOp1KxDSmJZ2KW3RdhxUTUdLBYBABNIiSnvP22zkOB5zadnbCY5gAE2ACTIAJ9J5Ac3v81NkJgXhC6bp10Z4EkTjLNgwtDpc3tN++OGE1vEHyHSP3zamzq2tbEgcV22Pio5ot//ymcU1De1N7fOQ2BUnWxN4/Ds9gk8DOohHh/81zuaqqqsgsR+cOqSYKYlAg5pSqKjaBwmvsLfRiPBkRo9EoZUwMBoMIphZCIGKa/NGQjBCU5HqmzDs42pjjcMhy0/7GeCQTYAJMgAkwge4SiAvx6w8S9rwjZ1RBxtmZYUNL7F+rGy97vzZzetXBUyMj3kgYC0+dXb2pNfZ4cPPl79dSlpxXvm7IKAqv2tSGaRfUbIGj+cApla2x+P1LN5F7Go3ffMRnE+28gT4Ys1NoxGg0iirJoVAIJ/xADoIMORGR1waGxl4qsFK/Xzb1RSKRaW+8gRVhtoxEIohEgeMY0S0o7gIfN26HoTEajULCZmdmhUKhUr9/5cqVeJw+eP88BRNgAkwgDQnoW2Izvm9+bkX9Xz/bdNcndU8ENy/d0Ko8x+bW2KbO382tnWG0ysc78rI9JrD0ptYYKaEdueCOnfuZL+szisLDX498lyQttrL8qk1tNy/cuHtn4HNGUfjgqZEz59QcPXMdFN6579QYheYba5vXbpv82rKtYSu7Tgy3dMSf/iKxuvLLkc4K8x10Ofg1IglEcuNSxZRoNArHLsQijIi9L4hX6ve/9uqrBR4PpkIWG5oW6Q8R0RwMBnVdRwJtvGCIVJyJzHO5hBCo+4LoFmjcHIejvLy8b2ViJBJBHI/xz2652imsW5nHNODGYlHldtNLJCSi2KDe/D8EVl7TVQo8nt7MzPcyASbQtwQa2mJ3aPqwbXmYSTo8unyzstB+k7fmdt5vcqXy0Y6+LKtuoY3dtDC9jV5a7ZZdJ4Z3nRhevD5FBkQhxLKNrbA4ZhSFz32n5t+rG1FPBcDv22YR/PHrkdPerh79VuL3zDk1NyzY+MKqBnJhIyzm6JnrpqxJ1OW74N31BJMaw4orIp2VWnb0q9zJ5x/kGpEEIl4zLsnFDFcvTHe9tB3KX6MCjwdyM8/lgoKBGCLJqGkaRAnqNSNdNolIuMWzM7M0TUNKRUS0wNyY43BgTuXR5A30oI0NA4XyZ7dEGFI/KjPgbKVxVxaLGmew6Ol9vnHKZG66SrcIGB+Te5gAE+grAls64qe/vTVvM8kFNFgj9hVkeZ6WjvgRbyYK5T3zZb3cr7RjcTGnMnphp5j7QUnlHZq+om6r41geGdRblbcmX+4xqeKx5ZtbY/GCFfVnzalp6wxOeX9dl9qWB2cUhY+euU6enNs7gsBg1oikoiKRCJVOMcpEhBX3FdxIJILDiIqwgH9ZLgONYVCBOQ6H0V6FSoCwwEG7kAU0GAyW+v1VVVV9ZU20kGvKg1iD6heNSMKux/nGYaaleZQGnS61fnb+lAkwgR1NwLNiO7fjsOKKk2dX/+r9Wsfcmpe+alBWZzuiAqQHl48t35xRFD5rTo1pfb01De0zvm/+08d1h02L7FKUSHlYXN7UtK0W39rG9me+rD9v3vrsN6vOfadm2trmpRusNCIk4NhZ1eUN7WXVibzc39a3Hzx1a8izIhBxycX6evBOu3XLoNWIJBCRK1sOK5ZlonxwsFvgkg0OBoMwSZomqUHmnTyXK9fpLPB4ELZMZQCVOaPRaInPhzrOUC2hUAi+aVzmOp1lZWVUGFq5vVuXg0MjZmdmmTq1rVFQJnNFGtIlBQ9Zz8OfMgEmsKMJHOffeqYNwoW8k6brskY0xWK/c01D++6TKnadGDY1Cn62sfWkWdUnz66+ccHG/4Yaa7YFO29oiRV+3Qh/sSLskuXHVoaNeGPrwccbF2xN1q0MoMu9fRWcCsf+C+3ByEGrEb2FXph/sjOz9M4f5D4kAQfXbbcO29nhC7eyaTJFmBIR0Yz0h6jCgtOQFuIGAg47R/wKjjCW+v25TieCWnrpKx80GhGRPXbeFI2BvZYUoWmjl3hpLW4wASbQYwK1LV3pl4cWhytTlfFljdhj1LjxDi2RpOZPH9fZmaepPT5lTfOlgdqhxYn4kh9OrrzovfW/er9WyVxD8s66cezMdS0d8bmRpI5muv3BZZvsbI/H9IzA4NSIkIM44ZfjcECE0d/98EjCPtczatZ3lfr9+W63UX2SZTESicA0FQqFkHA73+0u8HiSCREUhhFCUOm/aDSKhDio0YIJjSta71P+dDBpxHy3W360lG1KSEnfEGOju3OmXJQHMAEm0F0CS2q3kDI4552alLezRkyJyGJAVXPHsOKKPSZVWBtr22LxdyLRGxZs3NuXKN9Mv3cu2aos22LxKzrz5tBHNhsPf54IQjrnHfPjpzTJPiUVFk/BH/WSwCDUiAj+hSCT41U1TdN1ncqZ9BJcstsRcZLShe0t9CKiBQm9Q6EQkiYmmxb9+W43Um1DFMo2M3ixKfDFeh7jpwNNIyKy2zTQ2I6ks8+BsqkbdaHSQxLfSI97mAAT+B8QeLsySsrgts6CHNaLPvNl/aPLNz+6fLN1vIX1JD37dBDENf9lWSIroWtJovBJsp8NLbETSru8//R2MorCcjT3x7WpjyHK96K9b0llQ1tsVkXXSzeOQc+LhqOoyTbM/d0lMNg0ItLZINe0IhSQgJDCPrpLKuX4QCCQ73Z7C70FHg+FyCS7CwlxsjOzKF12nsuFOs50C85NogQfDJOapuW5XJCD2ZlZCHPxFnphgCzx+Xps7hpoGtE6UEbXdcT6KDKOLq1vJ8JCCFTZoRstGj0OiJGX4zYTYAI9JuAPd8mFuz6x5QDt8Vq9vDHdNWIsLg7tTHm9OlXNvY1bYjeYnRo8cEpl3ba0lN/Wt2cUJbLnXFO24cApWxMSJRN8cn/Rt00dcfGjqSluOWpGVS/fF9+ejMBg04gFHk+Jz0epTCjagCRFSgtfMlIW/cFgMM/lkj3FmqYhXXap369IVXmeaDSKhII4HIkagDQgEAhQsLOmaXgWisDF+UXUDITWjEQiEJo0g/1GemlEPFeyGGqkQ7fz7CmjVWTJCLe+nWl5DBNgAjuCAGvEHUHVdM73qhIHAU97u9r0U2OnPxz98etqAPLPSte9sbZ5ud5a+HVjRlG48OtGIcTXm9sot7YsB03b1y/YIIS4eWGKyJVdisL6lv91mnQjhEHZM6g0IrQaDuqhDWNbqd8/Z86ct956a0cIRATHKEIQtfVwxBDeYetvj67rqPKMYGcMLvH5ZHsYjIh1dXWhUKiuri47MysSiUAneQu9yJ4DH3QPvKLpqBGj0ais4eS2TZsfKWz5XqTPVHpwuSO+P9ZfDP6UCTABIsAakVDs6Mb/dUar/KNT1VmsdeeSupy56+dXJ3JrJzMokvijc402o5szisLH+RMZECExaR7TRv5nHLli8aJ6/tHg0YjkZYalLc/lkt2ISLPcc05J7tQ6f+jDaDQaCAQ0TQsGg95CLzScnHaHRiZr6LpOATfeQq+sEVEJmvzL2ZlZ0WgUx+lync4Sny/H4cCYHnic01EjogiNqZiTbbrJUAshqMihMkkyCyUnSrSAyR8xgR1NYDBpxI1bYmsb26uaO9r7yP7V2BZf29i+trGdPLy9eR0/mZHIm03F8ZJNRSVV/vBx3ZaORApFo0Hx2JnrfOVNb37f3LotS82TwUTORTu/e05KxKMsWt8Vq5TsrhPfsmvyTPYs3G9KYPBoxBKfD+5XTdPkv/t3nO2H0mUT2Wg0Gtr2g+OJpX6/t9Br06xF8yAyGplxqBMNb6E3EAjAdY7lUMUEtVswJtfp7O5Tp6lGJM+7IvIUba0wxGWyR0YRRWVCulQMxqYzcycTsCbQ0NBYb/jZsiV1oTNM29TUZLi73vjN7OjoMA6z7mloSHgD++Snvb3ddK22NpPyGxYrTl7TVPTt1t8/flxHEuHCd9dTPxrLdbVeM907eU1TsiWqox00z8IaW6/Azi3JziMuWr/l+gUb5AN2w4orTn+7ZvzK+h4UlW7piBeXN/36g1rFzztkYsICd9cndV+YFTtJhoL6K5s6MorCmdNTH/JbWJN4nD066zKfMrs63NQOg6JsKfywMxs2TS6EuGVRIqXOD7dVSqR3amygiGJ5Q+I4o/Uv1KS8Crf7hMAg0YioxSz/V5JMQX1bRoWgI35ZXhG1TzRNg0rECcI8lwsZs+lGmw2UaTaKSwSylJeX5zgcpX4/HlMJkUHtPpsLYVgywSSHTtuZkLCTqELD1LTZy0WT+ZphT025WzqiqmwVNkjZCC0PsGmhTLk6D9iZCZxy2unDR4xUfsdPmGCTyVVXX6PcO3zEyLvuvke5feXKlcZhdnrGnnzKtdfl/v35F77+5htlTvuX3n/+y3Sthx951P4kQgjKX2MtETKKwj2rxZdMzFls0s4txjGtsfi4Tm2U7EF+NLWyNBy1WFf5aHZF9LBp6hFA4+Q3LdxIhU+UGZJdvvl9sxKYnGwk+je3xl4NNV7+fu3h06oWbavpPG1t80GdsSbjFumdFsatc8yLtOxWXPHcikRlv79+lgidtvg9eGpECLG2MbVGzCgKb2jpI5Os9dPuZJ8OEo2Y73aX+v0wsNFpPMRwZGdm7QgXYYHHQwsJIaLRKMWXCCECgQC0KcoA2slro3zx4Do3lVZ4rrKyMpJfVVVVFN2MeQBEmdPispdyjWb+X2rEZCLPKKxpe9QAXln8oU1BThT2pIzJc7loEm4wgZ4RGOAaUdZ2111//Zo1a3rwmD/POU+eh9o/PeFnbe0Ja5PNn8GhEeNCXPnBBgsxRB/9a7UtU66dI3o05+lv10RlmZYK/VNfJAoejl9pVaAZc5w0q/rEt6pDnbHPaxvbyxvav2vserm1LbGrP0w89VEzqu5busn92abz5q3PKAr/oKQS29nSEd/f0pr487nrhRB2KvhlFIVf/6451ZPx590mMBg0Isxm+Fs/GAxSKmld12F1k6193SZkdgNK5MmflPr9ZGEyjWKRB9ts46yh6eY1TSvx+ZBJWwiBvI+ySEWSSNN7TVdPL42IijWKesOlnQghykZunIH+OZHMSImyPaYMuZMJ2CSQRhpx+IiRRx1zzGeff27z0TAs+MUXJAqNjXnz3rU/2wml6zKnV+FXdtH+oKSS+tF4flVP6jUbDX4p92bnFmXMv1cnAnszisIHTKl86PPNH9VsCdW3f7O57cPqlns+rZOzTw+ZGDY6Z5UtBapahkzsMr/t7au4+5O6uZGWrza3rW1s12q3/H1lw9Ezt0tbeM+n3UgV9LuPEnHEb1WkMGpGO+K7dm7jz58m4kVW17efPLt6l6LwqOlV4xbpX2/eeqhgUnnTnp3O6IyicM7c9S+sapAra/98bkI1Jvt1d0aiTFmTsGum/L17YKdDUl5iulwOBo2Y73Zrmoas1JQ0G3WNu3ssz85rQ5FleSSUKHpwXlD+tDdtC3Nggccjn7qLRqO6rqNwC84j2knTSHsbaBrRIoe2UdhRT67TSf9CoEczbSQ7yCh/YZLZKS2qJpquxZ1MQCGQXhpx+IiRPzvxxE2buhE36s7PN0pD6hl3y60KEJuX3Y1ZIRskjrWZrqKIOdMxSqedW+Qxv/1o4+HTEiEgp86upqLG8pzlDe3ZbyYG4HfU9CoK75CHod0RFwgoweBTZ1dXNXcYh7XG4nLKmGHFFetbTIYZbxRCQLeRyDMdI4T4dMPWzNinzK5eUrtFVrpK3px3OzPp/HBypfG5kqXgxtOt2pQQmnlLEucXU/5eGqhNtlXu7zGBtNeIdBIRQiHH4chxOPC3eL7bbfNomn18yN6sjCcjouLwVYb14NKiegoK9CHRDz07VR2EgrSf0m+gaUSSffYbiDWxAzlZWkTl25KsBIsyzM6KPIYJyATSTiMOHzHyWY9HfgSLdmtr6zHH/ZQUobFxeGZWXV03zFq0VppqROi/g6dGLFRaqL5d1lj//Capx/ktqe7IAVMqLebsiItjJWvif0NJ5yTCaJz4VnVGUdhUesoj//nNVuOoqXrby1fR3J6IdMbPJe/V7lIU1mq3iwqyLsfsmJsot9geE8MNmRdNV7RTnnHbdvh/7RJIe42IqGFE+JLhB/EcuU6nEsxhl0rycaZCBKcG+1wgYhcWT4EjmCU+H0ybyO+D9H6kkskDnvyZEp+ku0bEPwzkE6IWz1vi85lKT6OBMFndP9ncaLEQf8QETAn0r0a8/Iorbx43Tvm94cbfXHTJJZmjjjBKOvScdsYZps9i7Hxr1qxkk1D/a68VGW9M2ZOmGhGCJuVBw8eWd2WEOb40kRfQ9OcmKaH0375IcWTQK8m4WxZZVdWT14Kdsr4tRQiIdQhORlH4oc6Cy5j58c58N7sVV+Qt0aevbX5jbfO4RfrQ4vAl79V+Udd21yddEevAtevE8GcbE4Hq09bacjRnFIU5/Y38Evuqnd4aEWcQYVEDEblKm30rmk2awWDQKLlQUqX3ApEOFyqbsa6wR8fvyDYmFxtEERdlQtPLdNeIZEm1E7CSTPkZ/dT0rw5FU8pHP015cicTsCDQvxpxsaYl21s0Gv3HPwoPz8wiMSc3bBr/bvzNb+W7TNsXX3Jpsj1Y9KevRtx/cmVLqqiR2pbY0OIujyrcrEYasqM5Zf7CVZvayOR23rxE/Iedn8zpCcd3lw0wyT3H+bc78kgLyQ3XEh1aM9LcIZsD9/ZV7FtSuZevYlNnvb6Gtu2ePaMo7OkMfG6NxY/qzNQoz5msfezMpMI6yRNwd2oC6a0RNU1DLRMEL1OIBiI25ON6qUnYGEEBDTSWoo+N8oLG2G/ku930CEKISCRS4vPluVwWk0OhIs8OVeSTV8xxOOxY1waHRoSSM74mGUgyD7LpvyiSDUYCc3labjMB+wQGrEbEI/zjH4Wmwm7VqlUpn7GmpmbEYYeb3q50rl4dSjmbMiB9NeJNCzcqz2J6+Yt3uwI4kB3GOGyXbSfzDppaafxU6dnQEiNFNcZ2lmnEu0C9KRPSZXU0kUPRzu8JpeuQfGdLRxxxzWfNqWlqj3fEhZzSUlaQdy7ZehThoc+7bKsp17L/gPQU3EhJIL01IgQiapPkOByynJLFVkoKdgageooystTvT+Z2jEQi3d0Dpd1GDm2yTSIeRVkag3HmElKGbIrwHee5XCj3YsfhPpg0YnZmloU1MVniw2SUkhkdk41XXhNfMgEjgQGuEXVdV/QcLleuXGl8FqXn5VdeMd572eW/NnY++dRTyr0pL9NXIxZ9mzSJt/zUz36ZSDqD3ys/SJQqVn42tXZpvpNmpa4som/pGj/atkY8aVbiPGJFk1WMy8Rvm2irKRsTVm4NOT95dmLma8rUR9vUutWOOGRimBzob6xtlsO3U66C84sKMb7sJYE01oiw4SHzCzIU5rlcOQ7HDvrL25iqEHY+ixdgbdAy3oj4aNn8qes6/MVGUyJCuXEkEfZUSEmkZoRFLd/tDoVCdlL6DTSNKEMwBRUMBilAR3EE49LUekoeeeMtpuOFEMkOL9qhatw59zABIcQA14hCCNODievWpfblnX2uQ5GDmaOOWLt27WEG//WJY8Z2dFipEONXJX014srO+FzjEyk9H6xrISU0yqzMSXW0wzG3Br932Uj1Imeftq8Rz+/MYvilZZyXcUQAACAASURBVI2WGxck8uPY/L15mxl1xBuJpN+7FIVfC20nmv+yLJFM+4TSdQhq6YiLBzt7bM6PYb/+gOOalS9UH1ymsUaEMAoEAtmZWUiVIic06QM20hSmcjAQCFhYCnEy0lrrSCtsbXoLvSU+Hwqo4E/YKXVdV2QiJHKJz4eFcCiTpA/iV3B60o67Ob00InFLdl4wOzPLGICC3OaESG4g4fm2Morb/S++YPJgaitvhHbFDSZgTWCAa8T6hgZF5yH9jfVDCSGWffaZ8cZbb7tdCHH9DTcaP/qwrCzlnPKANNWIu04Mt20rVSw/jrFd1dzlwN2lKJzyCKNxBqVnsVTp2L5GvHVxItfMm99bpaR+8/tmZ9mGi9/rco5b6LnHg5uxMcpGlFEUPvedmr99Uf+3L+rhYb/n0zpAao3FL3+/1mK2ZB89uKwb6ZkUUHyZjEAaa0S4Yk2NSX0eUhAKhewLAtRxxunAlBoRtfvo9SC/I4K1S/1+BKzkOp15LheOHtLIQCAQCoWinT/eQm9dXR0imr2FXtn9jZOaxlAbmgeNNNWIQgi5NjepN8BXntFisHyj/XZ37cTG/XDPzklggGvEoonFRj33+BNPpHxZ993/gPHGOe+8I4SYMmWq8aP/y8tLOac8IE014qFvJArK2fzZrbiCNBDql9i80XTY/Uu7it3Z14jjVyZc3k9uE3amM6MzLsRevq4N087lxu6TKii2JlnxQHmMHLgtz5Oy/XZliqTfFg/CHyUjkMYaEeYxo4vQ9PResue32W9xvk2eAX5h2PB0XQ8EAimVZYnPBx1Jwg4Sk2xZeEDU+otEIlB7Suk/BFzLdk0kA8LZOxhc5X0a232lEU0le3ZmltFT31cJd5JV/8vOzFIe0+IZ7etCeSQnSlQI86VNAgNZI74XCIzK/omi504YfeLGjSmiLlpaWo465hjlxqOOOaa1NZHBpL6h4fCsUcqnWUdk1zeoxVEsGKapRhxr4+AgPbWsoj6q2S6bII2x02huj49fWS+f57OvEd+ujGYUha+br54aNF3X1On8U/86pA0fNb1qjiTdcNKR1N7pb9dsbo1VNXfMr976pJtbY/KeaaSdRmNbylBs0yfgTisC6aoRI5EIimogfaBRKVo9dPc/oyzZpreiKDNZ+8gBbWFnojGYEOZDmtxUUcGtDBNpKBSCpgwGg5jKW+iNRCIwPco+d9SOS6lmLPRTShskbVsI8b/XiBY7V4y4Fo5pWfl1q90tODIobu/MBPpXI9519z3jJ0xQfp951nP/A38574ILFRmHWnyffvppyvc10+833nv3vffSjb+76WbjAF9JCQ1I2UhTjditWAo5ocw7kW4bxqqaO14NNV794QY5IzcEln2NqG+J7VIUPmhqpR3NFYuLrM5cObKMO78zz45RtMmlXzKKwoe8HmnfPgnjJ9tqt8iz2WnvW5I6yjvlF4wHGAmkq0akiA36Gz3X6YSLtvd/bSOsON/tzne7UXyZVFe+203nBb2F3gKPp8DjwcgCj4fOEQaDwVAoZKERccARwzRNQ/U8ej1a5w9doqHreonPB6UYCoWwSaxOpkeikZ2ZRaVWUM86pYyW75Xbpgf7lL3RZbIoYFMU9uUdzW9s2JwExzfl5+qTdp+fajA+IPcMPgL9qxGNQs2i58KLLv5m9Wo7r8CZe71xno8++ojunTFzpnHA5VdcSQNSNtJUI178nt3EhEII1DiBKvKHbWnEtlh8fvWWB5dtGt1ZH0VWVMh0iB77GpG2scIybIXe13XzN8iLIirlcz1hP1Z+fOVqNDRFMWPkHZqtsnvKchlF4bPmJIqy8E+fE0hXjVji8wUCgWAwWOr3F3g8sjQxlSN9Ds7OhNbWR4RQQFYqFq9EhUqXS7E1CiEKPB7YLNEu8HjyXC78Wer3w7YKIDiQV+Lz5TgcwWCwwOMhX3aynXfrYJ/pJBZyzdRZbzHeCMR0RYswlOzMLHkSTdP6RBQaJ0kpvpPtnPt3WgLpohEPzxo14e/P19am9jlGIpFDRx6mSEAlcrmpqSnriGxlzPARI7/77jub34Q01Yjdird1zK0hATTRMmNOe0yUhqPXlm34QUkl3UKNXYrCV3xQ+2VdVw7tbmlEHGR8KlUdF7y42zpjXGhpNIa/Hnk11Lh4/ZYngpvHvFWNDOINbbF9StTzi7cu1md83/zfUOOFUnpIZbaUl3/fll7H5neJh9kkkK4aEVld5L+edV0PBoN5LtcOyn1jE6gyDJY/HC7UNC3l8US63fQQoexuxsgSnw9+anpwuYIzHQSEEqXJTRsWrlibSJM5mrMzs0wfvE80YjJpq5xHJEuwUeT1sscmHFPm3LlzEkgXjQg9d+TRx6Qsnff8Cy8axd8jjz6mvN9bbr3NOMxTUKAMS3aZphrxNx+lOMopP6+sES2yKr5X1XKMVIuZJNQekyrOn7f+uRX1axrahRByPsVuacRlG1szisJHzaiS95asXbJGtQ7SftD41ftdWWlsJrUxFb7KtHQ5ZGK41V7keLJH4P5kBNJVI+Y4HFVVVajLDI9tsifs936k+O6BdTPX6VTMb6FQCE52eihMCyMZaknnOBywHUYiETKkhUKhlF5Ra0tbSg++hcQ0LWHS+5iVaDRqc1GLtIgpzauEOlny7WRPRzdygwkoBNJLI0LVPfHkk8pT0GU8Hj/jrLON4m95MEhj0Jg1e7Zx2CmnnR6LbX8qTblt22WaasQe2xGTacS/r2xQAjuOmlH1wNJNH1a3KOlyeqwRhRDHdmrQJbWp42biQsimxAOmVJ7+do2c5kYOkW5sixvPL5Lao8Z/Vje+9FUDXVo3TpmdOp34ti8R/2/3CKSrRoQnMdfplG1XOQ5Htw7PdQ9V70b3YGPIzKeIM5y5JAMqRCROHOa5XMiSKDupo9Eo7JemcTDKM8kue6N1Ld/tphAZuhFZvi2MeRZVTyzsiMjsQ8HdSiMYDMKNbtwk9cjyOlke7G7JOwsNTVqcsHCDCVgQ6F+NeOtttz/8yKPGX3d+/i233jb6xDFGGYcev7/U9KGWfPyx8ZYzzz7HOLilpSX7yKOMgxctXmwcbOxJU414yXtdVjTjQyk9YztrnEASzQybZCh8/btmWTAdPXPdO5FosuCS3mjE51YkMuAYa6IoG6bL2pbYt/XtDW1b5T4ScWOrSsbsz/VWY0iN/FCnzK5GLIv7s67cPfIApW3z4CZtlRv2CaSlRgyFQlA80Wi01O8nZVPq98vyyD6F/8FIuIm7tVA0GlUO1QkhvIVeCCZMVer3650/iJtBpRa0Zd0mhFB8r6Y7scgjQ9oLjXy3W55f+VS+zHE4kr0UC40oz9CDtpI2nL4hylTdEu54HcoMuOyBkdiUP3fuJAT6VyMu1jQLzh0dHVOnvm5MfzN8xMgTx57U1p7wYCo/d997r1H2jZ8wQRmGyztcLuPgu+6+x3Sw0pmmGrFbcc3Hl64jAWRM+LepNXbglK7Th5e9XxvFQT+F1LbL3mjEza2x/SZX7lIUXmWvSMy2Nbf+709mVNGDvBpqVD5dvH7LAdKD0MiMznjqb+u3fs3aY8IYiCMPzigK//j1bqSfVLbBlykJpLFGhPGM/pIm01rKZ+6XAYFAINkOg50/CL9Q9oaay3In5bhBJ/nZ893uUr9/5cqVsoghO6tNjYhYGXmG3rctjuvtOI0oL4pi1qYPYnpKUqattJO5my10sDIDXzKBZLX4nhs/3iacy6+40o7MWrlypXHY8BEjrTUi9mAagzx8xMh3331P2WRzc/NPjjrauFAya+W11+UaB2cfeVRT03bF2ZRVcJmmGvHk7nhC5UhkyhpINOSCzpnTq4zJZWgkGr3RiEKIhz7f3C1TIq0e7YjvOrGrUp8SvIxh3ze258xVy7SMml6lBFNPX7ud3VQRiBlF4f+sVgUobYMbvSeQrhoRNevwF3+Ow0F5Z7plGeoZPm+hF4IsEAhQVLJ1IRYcScRysg+UNgDLqPEjeJZpmBAC8cs0kmyK2BJUF+qvIBkQqUPTQGl5ZrQjkUgyq5upzLLutDaw7SCNqCyaTNh1y9EMOBbuZuVIgBEs9zABIuDIyTHqpIcfeZQGWDfOv/AXxtvzH3pYuas3GjEej5saOx997HFllWnTpxs304OeadOnKzMbL9NUIx4+zVbkB553j0ldYb9fb25TIMg5qF/5OnX68V5qRH3LVrPle1Utyk6sLxfWbJHFXG7ydNyzK6I3Lth48uzqX7y7fsLKhqZ21W3eGovvKTGRp80oCh88lY2I1q+it5+mpUYkcQYLHGUlzHO5FH3QWzyG+5G8WrEbQaihVh5tRlariD7GZMmsiST75DWN8chYiwJQKJk21CRUF1LkoIILrGjIbm3z2FxfycSU72JHaEQFo0W0imxrlJlbtC3czXaOe1rMzB/tVAQuufSXRhX1p7vutgnhpFNONd7+5NNPK7f3RiMKIW6/4/+Mq1x/w43KKlddfY1xWA96rrnWqcxsvBwgGvHdqhZSKjctNI9ZLqvuGjOsuMLSIdz1oBtaYjRzRlFYEUxbtjfOUYG7rvsNrYhUALpbcc00079XNyLA2dqpTePReLjTAEnPcuCUSiVXtjLe+nKMIe8jzbygF6VorBflT0EgLTWiUTnR60ymwGhALxuQoYFAIM/lsp4Klk4hhGxEtLhF1pQ0zJiIWwltpsnz3e5A5w+CeMisRSIS2YJoZusGYl+sbYQWn+Y4HHYUWN9qRNMHRNyP6VZ79lVJZpVEPRtrqvwpEwCBcbfcalRRF11yiR0+TU1NxkyEw0eMfK1oonJ7LzXiXXffY9zkLy/7lbxKOFxhHNOznkNHHpby7McA0YhT1nR5P+1oxIyisM3Kywsk89vIaaqFLFTfTtpo90kV8otI1l6uJ1LY4LdnGjEuxJlzEikbb1+sJ1vF2P9Tf9epSqw+ba1J/I3xRtOei99TXdKY87zOai6mt3BnXxFIY41IuaORqhoO1r7iYpxH0zQUYvYWelEHBSYrxXxY6vdTTC4Cjb2F3mRBG7QKYk3okhoUnSP3KBIZ24BCQpsc36jvjP/ymkoomta0EQwG5bBxU6WldFKtatMJlc4+0Yh5LleJz5fsb5dkgTUpJb6yVbq0cDcrJky6hRs7IYFNmzatWrVqwwbz7NPPPOsxCqlDRx5WXZ06hcfcufOM95qeMuylRrz6mmuNC1151dXy2xw/YYJxTI97nn/hRXlyY3tHa8Rry8zfl7ITT2fAL2SKTY049TtbCulFKduLsTqLLPj2m2yr9FzRt12ZC3umEYUQ5Q3t+3am6bb5FB/XdglTUMooCp+4LY22AtPOJUQqTYXGviWVSqIfO1PxmO4SSGONiPTU5NtFTK4d81V3GcEWmO92o+QdqcACj+eTTz4pnjhRloDwBYdCoUAgUOLzIf43pcnKtPieEMKoHVGFT5YjpBHhgs93u3McjlAoRG5WeMZ7oBEBStf1QCBQ4PEk01vZmVkwr9rPNYiZo9Eo4epZI+WrTDZtyjdiMXOyOZPpVIup+KPBR6CysvI3v/0dmfquvubab7/9VnnMDz780FRI3f/AX5SRymU8HjeVbodnjTLGfPRGI0YikcMys4ybzLvzD7SlWCxmembReJfNnjPOOpsmN23sCI24aH3XybkL3rVVNO+XgVrSKzY1omuJLSPcFR90zWyscbJCKpqyW7EtO+LvF22krfZYIwohEDiy56SKxetTp0uU+dDqGUXh51elOEDZ0hEf/Vb1rQaD5Y9fj8jzoNbfpxtMav2Zfm24szcE0lgjGh8bhemM/b3sQSETUhVw78J4uXDhQuTfsTAWYjydDtQ0jaayszElZ42iEcnXnOdyQS5TURPkl4azFfZIm+cRrXel67oskqwH86dMYKcisL629sSxJymS6Ohjj1PKzbW0tJjGAg8fMfI///1vMmKxWOzxJ55QJsfljb/5rfGuHmvE6urqiy65xHQheXsLFy0yjjksM6uurs64GaVn2WefGe8dPmLk0qVLlZHy5Y7QiF9t7qpWd5jBvSuvjnZtS2x3KYTCpkYc/nok5ZHExrb4Xr6ugBWjBqps6pClEiWIMW4SPfXbF77rjUYUQqA63/6TK61T4bwTicqblNu7FVdolhm571u6NRviso1d+m/Vpq4XRLM9+2V9sqfm/r4lkJYakWJW8lwu5ALEnwhw7ltAFEqMaclWBHFGlrNIJGIdtQChibrJZAG1IxYVr6isEUOhEOpWl/r9MFiigLUQglyiCLPA+cI+0Yh9jpcnZAKDhsC9991nKn1uHjdOeca/ut2mI4ePGHnFVVdNf/PN7777rrk54aBsbGz8+ptvJhZP+nnOeclueS8QUOYXQiTTiM+/8OLcufOMv3Peeee114r+8Mc/mSZHHD5i5MjDM2Vv+B//dJdxP7/57e+MOzH2xONx08ib++5/wDiYenaERty4ZbswkZQHB/O3z+psUyNmFIXf/D6Fu/llydGcOb1Kje8VIhYXcrHjlHHNTwYTmWvot5caMS7EDQsSVsmDplZ+Jmk4ejtCiC/q2uT0jbQ0NQ6cUrk0if1vxvfNVDzm5a+6LI4PbBOONMkdmi2jrLwxbveYQFpqRFSWM034TLEaPSZivDHX6cxxOH5+7rn5bre30IvUMKiPLPt8UfzDeLvc4y30BgKBqqoq+IK9hV5voRdKEaXzZLc1boSPmyZBzAqsmMrquU4nfNxUoS4QCGDDSHxonJym5QYTYAK9J3DsT483yqbhI0YelpnV2tplGhFCrFu3LpkUM53BovOyX10ejxsVRVKNaDGV9UeygGtsbDziJ0cax8+YOdMmxscef9x4+9HHHLtlS1Jv5o7QiEKIUdO7sj3f86mVEXTx+i27FSdMfUOLt2ovOxrxgncTIRdHzqhS4pRlUBtaYj+a2pUc2zShoBBCTih45IyqLcmNk1ptYqu7FIWposmIN9QgGHkDdtrtMXFt2YaMovC+JZXvr1Oz4bwTieLYIok508Yekype/qpBDnOOxcULqxqGdYLFLWRuXN/SocxpkUbHziPwmO4SSFeNmO92a5pW4vNRwEokEtkRGgihKrAXlvr9eS6XpmnRzh+cOJRPQJb4fGRZNH0TOF+Y63S+9dZbUHi6ruPYYjAYxHlHxW2Nwio0G/y8BR6PooYDgQA0IkyGuU4nBpDtUPFZ04TcYAJMoK8IGEUP9dTWqvEQr71WRJ/2uJF95FGhkHreEY+TzI7Ys7XOPPuc+vouB9/kKVOM84zK/onxWGQytsnczaWlbyW7ZQdpxLs/qSM1M7Q4bMxcjf18WN2y/+SEjLtu/gbKdG1HI04qb4IA+tX7taaqrr4t5pibiB3G70FTK6minYLiX52ZaGjkbYt1k38cCDEv0oJyyVd8UHvEm1sV8JCJ4armDmXC7l52xMUti/SMovCuE8PPfFmP1etaY3lLEp32fw+fVvXHj+sKVtTfv3QTCkPTveMWbTUTNmyPJaMo/MePrRR8d5+Fx9shkJYaMRKJKB5YO4/agzHIFAj/Mmx+RhmqhJsgNEQ+sae0V6xYce3V1+Q6neXl5ZTvJhqNFng8SCiIs4O0kKIRS/1+kn30RLquz5kzR8naSJ8i5oY1ogyE20xgRxA4+dTTjMpp+IiRRx59TLtZFTsLj7PpPErn4ZlZ772nFj6h5+pDjXjm2ed8Hw7TzEII01ovd6TKCCbPIIQ4/YwzlScaPmKk6dlK3LiDNOKahnZYByFTdp9U8edPNy3XW2Gkq2+LzY20XDd/wy6dGmj465GaaEe3NGJZdQs5TH/qXzd5TVNty9aixlXNHf9Z3UizYQOT1yQtOdPYFpfNjRlF4fPmrX9/XUtrLKHWNrTEZnzfTIEvQ4vDQb31lNnVJL9OnV3tK296t5sJsZW3JoQYv7IeltQz59TcvliHHqVVetlwLdGfX9Xwl2WbDn2jK1RlyMRwSt+6cZ/c03sCaakRUTvEfnVmnOHrAaxcp5MsiKYZoWFQlGViJBKRQ62VNkrnRSKR7MysQCCAwbQxyFAU5SMhqMQjk47EXbBlZmdmlfh8OQ4HTUUNhNSgKB91coMJMIEdQcBTUGAUPcNHjHzgLw+aLhePx19+5ZWRh2ea3mXdeeKYsR9//InptOjsE4146MjD7vnzn+sbus6HCSG+++47070ZK/VZbE8I8dTTfzPOM+Kww2vWm8cX7yCNKISYsLLBVNnIVU8yisL7T65EKAmpOjt2xLLqhIY7qzPLIK0yrLhCrlZH/fct3WQNbWa4Kzsj3ZVRFJZlLvonrEy8tdsXqxa+zOndqPuSbDPT1jbL3mF5J33ePnBKikCZZJvk/t4TSFeNiEJzOQ4H3LvJgj/gjy7x+fJcLlJdNqlpmkbWSou6bXANyzLRzvzQdsaR3kIvVCnZERWNiAor+PPZZ55F3hkUU6GgGV3XEbyCPDjeQm+Bx0OlWYyLyj2RSISsm0KIYDBY4PHgICbF68AwiZqEcPrLMyBiRnGF0wBjcA965MlpMDVMV6FPe9Mo8flMt4pvjv2Zk81jfwYeOQgItLS0XHb5rxXd8/Oc82QvrfExV61adf0NNyp3WVwe8ZMjH3n0MUW3GaftpUY8+dTTnnr6b+Xl5caZTfM7HnPcT5Uzl8YblZ4vvvjS9DH/8Y9CZSQud5xGFEI8/UU9xUyYqpyfla6j4njd1YhCiOb2+JUfJA7zJfsdVlxhM1y36NsmObbaOOFuxRWUaOabzW3Kkb4+0YiJfyo0th9nyJVt3Exvenbp9OzLhxdNvxjcueMIpKtGhHLSdd1b6M11OpG6D7VGoK40Tbvj9tsffughJJ1BXutucSzweHDW0Chr5HkQsByNRrsrE0nSKbMpejQ7M0tWt7gLEvn63Nz//PvfOJQJuQxdm52ZleNw5DgcGIY013KAi7yi3IbLmzYG6Ykqf0imDSWn63qOw4FsOyU+H6yYNI+u67lOZ7LlkDebBgsh0CM/o/wp2tmZWckmNA7uVg/qXBtvQai4sT9ZT7J5ko3n/sFKoKWlZfyEv59x5lmHZ4065bTTn3z66YaGRjsPW15ePn7ChMuvuDL7yKNMldPoE8eMu+XWksmTU6pDLLe+tnb8hAnd+i30/rNk8uR3331Pjl82bn6Sz2ec1u8vNY5M2fPSyy8bp0pWu/nLura7PqnD78xwijBhIcSDyzZh8IPLUhjnsM/leuv1Czb8sPPQoaxsTp5d/Z/VjbJSeTy4GTMn8wt/W99OW5WT1MyqiDrm1ihidP/Jlbcs0kmApoSW+M9mffu4RSZO3gOnVN66WP9m+0LP32xuu2WRfnzpuh+/Hjl8WpXNZI12tiGEeDXUKEdby9x62T5yRtWKOrVitc1d8bC+IpCuGhE+XJQhRjWRYDCoaRr0Yr7bPWvWrFynM8/leunFlz755JOlS5daqxAjUDLgIQrEOAA9SASd73ZDJmJjZGOj1DzkdKYa0yTFlJllmxm80rRzOM3RiRXx1AheRsC1pmn5bjeMf8FgMNfpRPk462AaPCNmoI0htRBtL9fphIkRy5GlEwHm0WhUrsuSTNL1TCMiDJx20oeNSCRiaoRmjdiHkHmqbhGIxWLr1q377PPPF2safr/66is7SQe7tQoPTkYgFhffbG6bX73lrYrowpot+patZweTje9B/+bWmFa7ZVZF9IN1LaH69uTRySnm7ujc6sKaLf5wdH71ljUN7Z3nElPctSM+/vvKBqO27rFGPM6/zhg3vSO2zXOmJJCuGhE+UGhEGLqQmxoGRSR/yXO5VqxYMXPmTBSII6WVEgoGyMEiim2PZoAXGyPzXC6STTSguw3KiY0bYaWjnaPoXKTzBwNK/X5d1/NcruzMLG+ht7y8HLXpkE4cWRJBw1QJ0fawLoQRaUTFege9S8zpXjIEUu7GHtsRoY8hcAs8HnJAox8aVF6Xtko7l6PC891u8pULISKRCGZGP+aRfcSYH451BJtjDPXLNyJxJphg9WSymDbMDSbABJjAICYwpzJ6xts1pucs7ejFvX0V183fkDJF5SAGOAAfLV01ItydoVAIAjEYDOY4HAgByXe7oZkQIAwrl7fQS4LD5muA5Q/SCjWajTfCUAd9FggE6PyicaTNngKPh8QcnLZXXH45NKKxLp8QosDjiUaj8PwKIWC/hOEwFApBKea5XKbhLKZbku1nUFQYhlUggzRNI9mKM4tU3AWDLRyv1nZEcosHg8E8l4ukOdSqYlUt8fkwIBAI5Dgcmqbha0DCET73Ao8H4U1IsY7vTHZmFjjTVlG6sMDjQfbN7MwszIMNI5wcYOkwA3aFrSp62pQtdzIBJsAEBj2BWFz4w9GrPtxw6BuRlHEte06qOGpG1f9p+hfsVh6Q34x01YhCCKQAxKlBZJZGGuonHn8Coq3U7y8rK0MG7EAgYO1sNb4diAmYJyORCOSIHLYc6PyBqMpxOGBSynO5SOQZ57TuQYZtjEF+H2+h9/LLLkOPqU6FCTM7M2vmzJkoqVJWVobNQNzAlGgzYIVsY7QH6CokhkyWWwclXuRHI+Eld6KdUiOSNQ6nIXEXKTDZQgmDH74Jyl14BdmZWfTgWJcMvXTKk7ZKihMrgiGAkPQHYehjsqpSaiHag/GpuYcJMAEmsHMSaGyLz6mM/uPrxieCm+/5tO7BZZs8K+r/s7px8fot/eUZ3zlfRM+eOo01IhQVgnZDoRC8isgymOt0wuqGasX/+fe/c53O7toRMUM0GkW6GQph0XVd0zTj+UKIRQQaw7pJ+b1DoZD16rquU35EyNAch4NMetiDUeNGIhGUJczOzHrs0cdgN/3oo49yHA60oaIon7adrwgtCucsne+EZiKNRVPBka3sjYQXDaNGSo1IFkp5JGlEGEoxW3ZmFvKZk+ATQsgyTu7HbBTCHAqF8Cy0VRzipH2SBNR1nd4dJsEOaUu4Be+LbucGE2ACNV5guQAAIABJREFUTIAJMIF0J5DGGpGOmiHANt/thilo2htvlPh83kJvWVlZnsuFwGdFxNh8bXDRQurB82sUSfJUkJVkR4RyhZokKyPcqUhYCAscPOPoJ4mJIBKE48ChjIXksi7IsJjncpFvHTluoI1yHA4cpMtxOGhL8m5N27JGxCbxyNFoFOEvdBceFk5e6kSDhJfST1HMcr8ivKw1IsyiNA8ChgANhBF/TTKOZoMjHiOhLJWtKnuWOeCwJhIJke7MzsySv1TK7fIDcpsJMAEmwASYQDoSSGONiEzaOH2IA2cU4bFixQoImny3+6UXX+qxE5BqJaMRCATId5nsZeMUoLWUpHvhHEdCQeUWJDiEvtQ0DUZTY85tmM0CgcCct98u8flmzpwJ6xoMmYhEJlcprWvRIG0kSzeMx8lOtEkgko1NntNCMGFaebC8ECkwUoEYSUY7MhPC/U3DkNuIStoApjwb5qHDiKSbaavUwEjiQLknFZulMrlyu/yA3GYCTIAJMAEmkI4E0lsjegu9sB1SEZQ8lwuVi7Mzs1568cVpb7xBH/Xg9RR4PLAVwaqXzOerzIxIEaUz2SX0K/zXNAaeYhyChH2UYiZoTDQaRUwuPMuwIELQIIqiwOOBGVU2PdLtyRqkjSDdZAlIBwQhEC3iuC0EE6aVBXG3NKIQAoHbwEJnAWV7IWK98U8I6td1ndoQuyBPW6XTjSBD8TqKD5qkIclWjJcPSiZjy/1MgAkwASbABNKIQHprRKiWEp+PvLGIsUCYLf313+P3ATMehEh5eXm+2w2xaO26hcySHZEWGyAJSw1K0ULZCnFaUamVomkaIqmhdbAo+VuRrBHuUevdKnsjjYg4XzrAB18tnO845WkxrQV5xCbLcOA+Nlr+oB2xPVmQUQANTZLjcJAOxlcCeyM9h9ATuWI1zicgjw8A4kwC0aDqhfJBQ0wOrQn9jfGwbmIemoEbTIAJMAEmwATSmkB6a0TEtCLzC/4uR2WRXKczEAhQUEuP3xBpRIgMlFT55JNPSM+Zzlzq9yuZ/EyHoZOEBTWgEeGGhhxBXEiJz0dKCPeGQiHEGoMAjmAuXbpUzueX0jmu7I00IvQTjJQoIU1CDUqUHLtoyKZBC42IV4ZC2Ei7TRHEiuUvmUaEypQFH3J6I8+2nPdb1oi4CwAxM+QvbRWdGAARjNw3BR5PrtOpd/7g3CcSicMYidgXvCB6gwpSvmQCTIAJMAEmkI4E0l4jlvr9SIBHVrfszCzku4H7L9fpJCdjd98QHQeERoTjtdTv/9tTT8+bNy/ZbKj+B2GRbAz1k7CQxRwSOCMNIQ5cQpbJOgxbwu0wxYEAHh8CKM/lImMbrWjdkDUiSvMhmAa1/nAvhdfIDRkyCS/TtVDbkO5FwRiameZJphGFELKsRCwzQlUQkkL+cVkjCiFwXBXrUk1qeas0gA6zIribwKI4OIyp+AcDZqNDsabPy51MgAkwASbQewLPv/DiET85srHRVnHL3i/HMwgh0l4jwiUa7fxRUtJAPcybN4+SKnf3lUMjoigfNAFmQJ1ouRALNkD5YsrLy7MzsxSzn+nqsliRB+i6TkoRgdWyiIT7GykbUZcZBZqDwSACa3B+kXJQyzNzmwkwASbABJhAehFobGw8+JBDFy1anF7bTvfdpr1GxDk5hCnA8IaUgUikR1lR7Mg147vEVAiGRfQxmf0gQCn6GEGvmqblOBxIvgPRJp/nM84Pfy76LYQsUieSgY3Gw0YIExpMWbIolOs+my7NnUyACTABJsAE0oLAnHfeef6FF9Niq4Npk4NBI6IuHxL4wfeHgANqz5s3z6bnV3m1KECsKLmFCxcawzWi0SjKrsybNy/P5frXv/4Fv2Sey2UtE0t8PsyWTCPCOKrkr6EsPLBfotoe+ViREUbWi8pz8SUTYAJMIL0ILFy4yJFznvI7Vzrz89jjTzhyzqutrTU+16zZs8846+wDDjp4VPZP7rr7nvr6eoyZO2/edbk3KON/ednlCxcuEkIsXx505Jwnf9rY2KhsgC6rq6sxsmTyZEfOeUuWfCzfKG/+yquuue/+Bz7/fLk8QGk/86wHM59/wS+uy73BU/Cc8ly0LjXyH3pYmQSXjpzzli8PCiGweVfenfIw4zOWzZ//85zzDzr4kJGHZ9162+0bNmyg8bfcehsth8YvL7scn16Xe8Ovr7gqFovR4OrqakfOecDy7bfljpzz4CPGiso80998Uwgxd9486j//gl/c+JvfvTljBk1o+rKefOppWoVGcqMPCQwGjQhTIsRWKBRC7huEHVCaQE3TkokwC5qkEcnPC4/zSy++5C30GpUipkLuG4rkoNLApgshUNpie8jJIgtN5MShw4L5bjcCnOVkNL03IlJuSNNtGzvxCBRYjcLHxmEDoQdOfOX1IZHQQNge74EJMAEjAX9p6Z57/6BoYrH8++235RgZi8V+PHxE5qjs4kmTlHtnzJy52x57PTd+wldffT3v3XePO/6Es891QM0UTSzOHJWtjN9v/wP9paVCiLL58zOGDJU/bW1tpdXPOufcMSedTJd0SO78C36ROSr73j/fJ98ob977z39d68zdddjuFlaxm24ed9Y552LygufGjz35lAMOOliWlRlDhv7lwb/S6kUTiz/48EN5RWpnDBlaNn++EGLTpk0ZQ4ZmDBm6cuUq+lR5xvnzF+y2x14PP/LoqlVfvf/BB2eefc7xPxvd2tqK8aPHjP31FVfJi06eMgUfZY7KzhgytPStt2jmtWu/zxgydO3a76G2M4YM3bRpE1GVJymaWLxq1VdCiKKJxQf+6Mf46L+vvnbrbbcPGbrbE08+hTmNLysejx868vDDs4549bUiWpcbfUtgkGhEmBLxt340GkWQASKdcVyPdGS38JFGLPX7yUoXiUS8hd5gMJjrdCIdI32EOJJZs2ZFOn9QRRpBx0q4ibINTdNMzX6U4IbGIzchNrZixQpN0+QyLdCy2Bvd0rOGEvCRchKkpIEyhma1FscpJ9xBA5CnxnhaVA5e2UFL87RMgAn0mIC/tHS//Q9Mdvunny495NCRBc+Nd153vTymo6PjsMxRTz39N+oMh8NDd9vjnblzIUq6pRFpEiHETTeP+/UVV8k9QoiGhobd9thrks939LHHyR8ZN//KPwqH7b5nOByWh1H7ppvH3XTzOLrs6Oi46OJLTzvjTOoh5Uc9yRo0EhrxxLEn3Xb7HTRY0YhjTz7lj3+6iz7dvHnz/gf+6PU33kDP6DFjH33scfpUbmSOyj7qmGN/nnM+dVprRBomN4wqsOC58Xvtsy9EqvHTzz9fftDBh4yf8Pcrr7pGnofbfUhgkGhEiDNYChHkixwocDfDCAd1JRvkUnIkjRgMBuXjgJqmIdZE07QCjwerIOWePGxNeTlqJcO06S30apqmmK9oD/ApK1ISScLlPVPZaAThegu90WhU13XIMsQI9yaUm/bTA40oW2qh1OXjmzRz/zYop6a8WwQbJXs1/bthXp0JMAEhhFFmyVgefezx3/7u5mDwi/32P7C9vZ0+0rQlu+w6THaYCiHGnHTyI48+tiM04oyZM3924phoNLr7nnuXl6+hbRg3H4vFRhyW+dz4CTRGbigaUQjx6adLM4YMJbspKT/5LtM2jYRGnFhcvMde+2zcuBGDZY24Zs13GUOGfvPNanmey37167w7/4Aea404fsLf99hrn2DwCwzuE434xRdfkjHSqBGfePKp62/4zcqVq/bZ94dk7JQ3z+3eExg8GhGJ9xBEAgsWwlbw17+30Fvg8ZSXl+c4HLLZLyVBKAmYx+TBclAzlpDVISJavIWFciZFXddRYzrZBhDLXOLzQSkajYjeQi/WLfX7A4FAWVkZrKTyhEgGJG/VZhtVZOAslpNF4+lQdwQh3qYTyklzMEC2zMmea+S+oUkom2OBx0MPAhWOOeV5toH1Yp+yeqbc4/lut0XGH3wT8ICyIpd9zXhMKrWC851YUd4k/csE5wHk2ejpuMEEmECfEDDKLHnak045dZLPF4/HDz7kULhW8elLL79y7E+Pl0cKIb744kuILaPsEEJY+JrleUztiL8fd8t99z8ghLjgwotefOllGm+6+Rtu/G3u9TfSGLlh1IixWOwH++1PJj1SfvJdpm0aCY24fHnw5znn/+2ZZzFY1ojTpk8/4KCDlUk2dP6g01ojFk0svu32O34/7hYM7hON+OWXKzKGDK2rqzMV9KedceZrRROFEIeOPDzw/vvKzvmyTwgMKo2InNJ1dXWaplHOZMQaU9JEHOYjLZIS4tVXXoUDf8pIKCqlky51Xc9zuRYuXGhqSKOqMDRebsB9jIOPsiYLBAI4ZYhg7ezMrByHY+nSpfA1Q4xGIhGqRCzPaaeNTNRa5w+c9VC98ONDmxZ4PMnmVzQiFZLG0rJVUk58iDayjue5XORwR4Zq5HdEm+QghtE/BtAPsyUOQSKjdTKjIBVlQWFrIiMrUbClHnyXaJPIW4684jkOh6ZpwWAQBX5oNm4wASbQtwRMZRaWqK6u3mXXYQiP+M1vb4JKw0f3/vm+Sy69LNlO+lYjxuPxHw8f8V4gIIQoeG78Ly66hNY13bw7/6FzHD+nMXLDqBGFEMcdfwLZHUn5yXeZtmkkaUR/aemIwzLb2trodCBu9BQ8N+akk00nQWdKjbhixco99tpn/fr1Qog+0Yh5d/7hpFNOxerKy9qwYcMuuw7DX+U3/37c3ffca7Fz/qjHBAaVRkSeZJzJQ3kMSi6taRqKrZX6/cuWLct1Ou3LRExrVHuysQrCjl4D+ZRJ9NBHMD5Zr474D1gNcSPmr6qqgos5EAhAhkLoQJ/1wJlOu1IkHSJ+oBFLfD6KqlaG0e14qDyXCwbXUr8fhzXJtJZMIyKtD+aBFMOi0IV0O5XOg6Ykky0V0EM/jZeXkzeJJSAf5aXlonwo90JRSjjJSo5pEIAwlUs8l/r9yK0tL8dtJsAE+oqAv7R0yNDdRo8ZK/82NDQIIV59reiE0SdioeJJk2TD4e13/N/V1ziT7UGRHRjWYzvismWf7b7n3vivUDD4xW577NXU1IQ5TTWip+C50WPGmu7NVCOeefY5dBwwY8jQ7COPklF8WFZmOpVRI8ZisVHZP5n6+uuKRnz0sccpjnvDhg1r136PXwrZHj1m7I+Hj5AXLXhuPBbNHJVdNLEYBtTHn3gypUaUJxk9ZizeY9HE4v0P/NHzL7z4/AsvPvLoYznnXXDUMcdShI3ysuQXPXnKlCOPPsb08bmzlwQGm0aETgoEAsHOHyQphCDDuT2UYIFMJKmREiKSZiMeFol1EDFNhVjyXK48l8uo/HAeUZlfdkArH9ElPJtQM3Caw1EeCAQgE+GSRtYb3AUvKs3QrYaiveTLfLebEn1DS8mXtApEErYNMyTOSmKALNowOfrJqkfDoMUVqySZ9KAdaVH8GwC+YNkuiBJ5NIwaJT4fqfZAICCrOloCGlH+BwApVMxDl/h3CP5K0HXd/teJ9sMNJsAEbBLwl5bu/YP9yubPl39x9PDKq66hOOJ169ZlDBn63XdrMe1tt99xrTM32RKK7MCwHmvExx5/4oILL8Ik8HojPjrZYcqC58Z3SyOefa5D1ojPv/CijEI5c0mPbNSIQojnX3gRETCyr1nWiK68O/fb/8D99j9wj732IeE4eszYm24eJy9K5yNJI749Z84hh45sbW21tiPKk5TNn4/3WDSxeO8f7Ad9fMWVV2cfedRFF19KxzqVl+W87vo/3XU3HrO2tnaXXYeFQt/SU3OjrwgMNo2Iw3N06BC6IRKJ4K98KEh4EteUl6dMXmhBGQYzpNop9fuRicbo3yzweMgIR7PJNirqVBqwcsGjDU0Jny8MWpTZBxEzyO+d63SSIU2ZLeWlrNswmFRdvtsNWUz6j4xq8rSKqoPfn9QwzUZ6jlZBdBEmp5LQymwk4JR+WcvCxYx3moxDnstFW5LNlkY7oiz4cFABO8x3uxEvT9+0HIfDW+g1/vNAhsNtJsAEeknA1BQnhGhtbd1n3x+++NLLy5cH8Zs5Kvull1/Bcvfc++dLf/mrZEsrsgPDeqwRTznt9Dv/8EfaxoW/uPjW227HnKabf+jhR84651zTvZnaEY//2WhPwXMYT8rP9Ha5k0aSr1kIUV9fv8++P1yy5GNZIz7rKSDHLs3w9N+ekTUiiVQagAZpxFgsduTRx0zy+aw1onI7LpXX0dHRceEvLr7o4kuNn7a3t++3/4ET/v480T7iJ0da5BIyXY477RAYhBoRggmHxpCqkKKbcXQPsQhrysurqqoUh6MdZKZjYN4zfgQxJ2tHqtpiHCz3UNZD2ccNsxkZF/FcECjd9Z7Laym6DR+RqoNHlTRxKBQy1UOKeoODngx1NJuyFnLQyJPj6ZTZ7GhEzAylaJoyHWUbAY3+JJsoLQE7oqIRcRyT9kkvFLnTc53O7Mwsmkphy5dMgAn0noCpzBJCvP/BB0OG7pY5Kpt+9z/wRyQsnn/hRXJD0x7c+Q/95cG/moZB9DhmpaamZpddhx2WOYq28ePhIw4deXg8Hk9mR7zp5nHJbJymGvGHBxxUMnkynoKUHz1UsgaNlDWiEOJPd919Xe4NskacMnXqQQcfosxz3/0PdEsjCiFefuUfY08+pfcaES/ohwcchC3JCrJs/nzjSz//gl8om+fL3hMYnBqRjsfV1dXBAwv/LLkjEchCbk1TN7F9uJTU2ngLdIlcCRBOauNIpQc+cYrMoE9znU7SIjjzV1VVhcgJGtODBgxyJP6wbegkWTxBf8v6idZSVB1eQXZmFgZYa0R5EkyuzEZ7UI79UXiy7OqFP1rW1pifDlmS1IOzGJ/SEkaNmOt0yrOh5CMkKcQipeRMZr+kB+QGE2ACPSOQTCPefc+9OeddIM/59pw5u++5d3NzsxBi/vwFuw7bnQqrYNipp5/xV3e+EGJiceIAnHxva2trxpChKN8i6yd5DNpKXHPRxOKDDj5ELjRSWVmZMWQoEl8bNx+Px7OOyH7mWY9xZiRflPMjIhY7Y8hQ5JoWQpDyM71d7qSRikYsL1+z2x57+UpKKE/4N9+slt30mOTiS37ZXY3Y2Ni47w8PwMzJcmjLO6S2rALR+e5772UMGdrR0aEI+vvuf0AJ93n3vfeG7b4nzjXShNzoPYFBqxHlUAMIIFkgwoxEf/EjG4us5LpFFqcSlVugWkKhEJQcfZrrdMpn3aifGtFolAqBoBYzyvohaBen6EiL9CZOhVYUQkAUUuywnPvGW+iV3eXkaZVvhyJUfNCyApM1IrQabpedv7IwTaYRsTEy45X4fDBVKucU6cigvEmj31+2y1poxAKPh44HyDErMgpsjES2vC63mQAT6D0Bo8zCnEcefcyzngJ5/ubm5t322OutWbOEEO3t7YccOlL2Qq5eHdpl12ELFnwkhFi8WFNU0ZIlH2cMGYozcN3SiFdf47zhxt/K20AkMsqEGDfvKykZMnQ3Omyn3KjYEePx+DXXXicbREn5KTcaL2mkohGFEL+6/IrTzzyLNKIQ4qcn/OzBv7ppkkgk8sMDDuquRhRC3Pvn+0465VRKbbh8eVCps0JLyA2jRsTrQIEW+dNjf3r8k089Ld/b0tKyx177zJg5U+7kdu8JDGaNCJkIVyz9dQ5ZAI2oaRoO/MEyR5VCuou1wOOBakEua/iykSolEolAoZKssU5wHQqFULsFZirUaMl1OquqquDQhLucEr7IGqu721bG57vdeS6X3vmDVWDSw/4hoCHF6FnkGYheKBRCGsjszCxSw0gNE41GcU6R7IuYECEmSL4D+ZtMI1KOG5oKQl/eJNqkd7FJaDv6V4HciUez0Ij4ztC3hXLfQATruo5vETnWZSzcZgJMoE8IGGVW538kv80YMhT1iOVVzjv/wtvv+D/0FE0s3muffYsmFtfW1i5erP30hJ9RVppYLDZ6zNhTTz9j6dJlmzZt+uijhccdfwLFnUAjKtEVFKUh2xHb2tp+sN/+E4sTgb3yzz33/hmhIRRw88GHH05/801X3p1Dd9sDebzl8dS+6eZxF118adn8+fPefbdoYvH5F/xir332RRVpjMkYMlSJWVEqRNNUFhrxgw8/RHU+GvzO3LnDdt/zpZdfqa6u/uyzz0857fQ//ukuWSMqMSsUbkLnETHV2rXfDxm6m4VGVKh+/fU3iqUQ83z11dck2Ukjfvfd2owhQ5cuXUbbRuOiiy+l7IzKR3zZYwKDXCMKIWQVhb/s6ZCinDoRCa5RPdmiFrMRdKnfjwIqWMjUkiSnOUTpFOM8uq7DXlVVVQXzITQHqSL4efFRIBCABZEiMIwTdrcHHnOoZ7jmyadMnnoLpzbUHm6HIiSBiJ3TR5iNtkeFauQjlck0IiJFIJezM7PkTJO0SdOjgRCOxreDiBnrmBWcraT903PJxKylPz0sN5gAE+gZgQ/Lys4+16HcO2369HMcP8eZP/mj//z31ct+9WvqKZpYfNQxx2YMGbrf/gfedvsdmzdvpo8ikcg111639w/2w6c33TyO/g28dOkyJUXL6DFjKdvLw488Sjn5li8Pjh4zdt26dTQtGvPnLxhz0slNTU0flpXRVGedc+7vx91infP54UcexfgTx550wYUX3f/AXyhSGzPTbNRIlgZy9JixkFMNDQ2jx4w1llFRYqtnzJx5/M9G77LrsEMOHfnKPwqXLl12y623YVHnddfTctSAe/eSSy+D4ZYIuPLuHD1mbFVVlRDim29WU4IbU6oPP/KoEOKtWbOUp2hpaTnltNPfmDZN/vTNGTPOPPsc2a2PRV8rmnjxJb+kDXCjTwgMfo1ITmeEHiP4l0QGsrSU+HwwYoFpKBRCoAb9xyIZa7hHkWFH8bTKt8il/JD7UP4UiXVIR8IVK/s3ZSMZbuxzgSjvh9tMgAkwASbABJgAE9gpNCJkYp7LVVdXhyyJSH9T6vfD+IS0MpCPcLnC1Yt0J4rXUv7SoPCdnOxa/pTalFIbZjBSk9CLUIeapiHFDIydJT5fqd9Pdi+E68KChWIqPT49SbviBhNgAkyACTABJsAEkhHYWTQigiqQNxGnx3CMLMfhQClhOCghxV568SWEsuq6XlVVhWIe3kIvORmJJmImLEQkac1Svx+uW4SA4M8Snw+mSpz/Q2AHHW6Dc5OSI6IMMcq+Wa9I2+MGE2ACTIAJMAEmwAR6RmAn0og4FScXPoFXV9M0WBOpOgiO1sFcB+0YjUaDwSDEIoIbUPsE5wKTocfpRqRgRGgwDJaIU8YBxByHI9fpnDlzJpVFlmeDZqUeZH4h4yL1c4MJMAEmwASYABNgAn1LYOfSiHD1ImYF2Y8p1TYZ7XDEEP5fREVgvKZpsAWiUDJy7KGHYjvo3cAWSFEOeS5XMBiEZFy4cCGsgORTRnERkqQwcBZ4PIgURuQK7s13uynrDa3FDSbABJgAE2ACTIAJ9DmBnU4jCiGQgFDOU0gCEScX4fNFBDFVwKO4XVTeQ4xLdmYWcmLPmzdv6dKlmBwxuYFAgEqS5LlciJIp8HjoBCRFoiBxo6ZpmBNR1TBqIo4YORGVvC19/lXgCZkAE2ACTIAJMAEmQAR2Ro2Ih0d2a6Q2DAQCOGuoGBGhHZHnD+V9S/3+FStWQAs+/thj8+bNQ+DLH//wh+tzc3Gs0JiPBg5lOI41TUOWHGhELEHuYyhRiqdGcu9eloGhl80NJsAEmAATYAJMgAnYJLDzakSy+SG9NqVuzs7MgmMX0jDH4UAEMRTeihUrsjOzIpEILhFBkp2ZhYCS7MwsyMQSny8UCiF/DQbnOBwQoJqmQW7iNGQgECDtqOs6leCDsZNWt/k6eRgTYAJMgAkwASbABPqEwE6tEUEQ6QmhFOvq6iKRCGpy5DqdSK0Mu2COw+Et9ML4B38x6rPB3YyyH3BSQzLmOByUdnHO228j2w4GUy1jCmSGsiwvLw8EAnV1dYhNgVO7T14zT8IEmAATYAJMgAkwgW4RYI24FZesFKPRqKZp8D7TGUGYFSEfIfhgesSxRU3TIB8pOBr6TzYZIpw5OzMLhkmcUKR4l1AoVFVVhWQ63Sr00q33zYOZABNgAkyACTABJmCHAGvE7SiRUqRsiBRujOQ1QgicIEScMqobQzJCI6Ky3CeffAItGAwGszOzFi5cCIkJdzOiT+CDhtDUNK3A45G93tttiy+YABNgAkyACTABJvC/JcAa0YQ37IgIRobxTx6U63SW+HxCiFynM8/lQtFnlOuF7bDA48l1Ootee41q9MH6mOdy4ZdCUpBzEdWNOS22DJnbTIAJMAEmwASYQP8SYI1oxV/X9UAgkO92Q8YhnQ3dEAwG4S/OcTiCwSBl5EboSa7Tqes6uZJxL3qQHAfJFzVN45SHhJQbTIAJMAEmwASYwAAhwBrR1otAnRXSdsiqXer3Q/khDyLCVmi6SCSCPNuBQAA3ImYZZVpIO9J4bjABJsAEmAATYAJMYOAQYI3Yk3dB5sBSv7/A48l3u5P9IsM2pCTbC3vCmu9hAkyACTABJsAE+oMAa8T+oM5rMgEmwASYABNgAkxgYBNgjTiw3w/vjgkwASbABJgAE2AC/UGANWJ/UOc1mQATYAJMgAkwASYwsAmwRhzY74d3xwSYABNgAkyACTCB/iDAGrE/qPOaTIAJMAEmwASYABMY2ARYIw7s98O7YwJMgAkwASbABJhAfxBgjdgf1HlNJsAEmAATYAJMgAkMbAKsEQf2++HdMQEmwASYABNgAkygPwiwRuwP6rwmE2ACTIAJMAEmwAQGNgHWiAP7/fDumAATYAJMgAkwASbQHwRYI/YHdV6TCTABJsAEmAATYAIDmwBrxIH9fnh3TIAJMAEmwASYABPoDwKsEfuDOq/JBJgAE2ACTIAJMIGBTYA14sB+P7w7JsAEmAATYAJMgAn0BwHWiP1BnddkAkw8fZTeAAACm0lEQVSACTABJsAEmMDAJsAacWC/H94dE2ACTIAJMAEmwAT6gwBrxP6gzmsyASbABJgAE2ACTGBgE2CNOLDfD++OCTABJsAEmAATYAL9QYA1Yn9Q5zWZABNgAkyACTABJjCwCbBGHNjvh3fHBJgAE2ACTIAJMIH+IMAasT+o85pMgAkwASbABJgAExjYBFgjDuz3w7tjAkyACTABJsAEmEB/EGCN2B/UeU0mwASYABNgAkyACQxsAqwRB/b74d0xASbABJgAE2ACTKA/CLBG7A/qvCYTYAJMgAkwASbABAY2AdaIA/v98O6YABNgAkyACTABJtAfBFgj9gd1XpMJMAEmwASYABNgAgObAGvEgf1+eHdMgAkwASbABJgAE+gPAqwR+4M6r8kEmAATYAJMgAkwgYFNgDXiwH4/vDsmwASYABNgAkyACfQHAdaI/UGd12QCTIAJMAEmwASYwMAmwBpxYL8f3h0TYAJMgAkwASbABPqDAGvE/qDOazIBJsAEmAATYAJMYGATYI04sN8P744JMAEmwASYABNgAv1BgDVif1DnNZkAE2ACTIAJMAEmMLAJsEYc2O+Hd8cEmAATYAJMgAkwgf4gwBqxP6jzmkyACTABJsAEmAATGNgEWCMO7PfDu2MCTIAJMAEmwASYQH8QYI3YH9R5TSbABJgAE2ACTIAJDGwCrBEH9vvh3TEBJsAEmAATYAJMoD8IsEbsD+q8JhNgAkyACTABJsAEBjYB1ogD+/3w7pgAE2ACTIAJMAEm0B8EWCP2B3VekwkwASbABJgAE2ACA5sAa8SB/X54d0yACTABJsAEmAAT6A8CrBH7gzqvyQSYABNgAkyACTCBgU2ANeLAfj+8OybABJgAE2ACTIAJ9AeB/wcwEb8b6/6LlwAAAABJRU5ErkJggg==;" parent="KlYnetJEtSsTYRGKjeyn-58" vertex="1">
                    <mxGeometry x="10" y="53" width="180.39" height="44" as="geometry"/>
                </mxCell>
                <mxCell id="KlYnetJEtSsTYRGKjeyn-63" value="" style="shape=image;verticalLabelPosition=bottom;labelBackgroundColor=#ffffff;verticalAlign=top;aspect=fixed;imageAspect=0;image=data:image/png,iVBORw0KGgoAAAANSUhEUgAAAwEAAAE8CAYAAACYZL1PAAAgAElEQVR4Xu2dTY9Wx5n3iwdBGCHaWGBrEAhDDyJqKRI9iydZ2WYkdizcYWWv6GzsVRTyCWJ/AuN4FW/SXjGbsYk0rIJk7KycjRslUiuWDR0E8cg2oh8sNNiW5Ud1k3a/0HffderUy/+q87sl1FFcL1f9rqvq1P9Unaod7rd/+d7xgwAEIAABCEAAAmMI7HDOMVkgPCBgm8Dvzxx28zNP/tCIHYgA2w7FeghAAAIQgAAEIAABCEwicOrgHrf40glEwCRQ/HcIQAACwybg3/v697/8IKBDgBUJHV9giU0CN8+fdMemdo+MZyXApg+xGgIQgAAEINA2AWb8bfuX1lUhsH5LECKgiguoFAIQgAAEIAABCEAAAmUJnJ/Z7xbOHGEloCz2cbWx5K7hB6yAQB4CvMzMw5VSIQABCECgO4H13wWwEtCdHzkgAAEIQAACEIAABCBgksD3v/wJKwEmPYfREICADAHe8su4AkMgAAEIQCCQwEcvnnCzT+3hw+BAXiSDAAQgAAEIQAACEICAeQLvnTvuTh/eiwgw70kaAAEIQAACEIAABCAAgUACiIBAUCSDAAQgAAEIQAACWxFgSyBxYZHA688echdmD7ASYNF52AwBCEAAAhCAAAQgAIEYAr/56dPu1Z89jQiIgUceCEAAAhBIQIDXqAkgUgQEIACBbgQQAd14kRoCEIAABCAAAQhAAALmCSACzLuQBkAAAhCAAAQgAAHDBFgNrOI8REAV7FQKAQhAAAKOBz9BAAEIQKAaAURANfRUDAEIQAACEOhC4HvnRsqJX7MEEMbNulaxYYgARa9gEwQgAAEIQAACEIAABDISQARkhEvREIAABCAAAQhAAAIQUCSACFD0CjZBAAIQgIBhAmzbMew8TIfAYAggAgbjahoKAQjoEWCyqOcTLIIABCAwDAKIgGH4mVZCAAIQgAAEIAABCEDgBwKIAIIBAhCAAAQgAAEIQAACAyOACBiYw2kuBCAAAQhAAAK5CLDFLxdZyk1PABGQniklQgACEIAABCAAAQhAQJoAIkDaPRgHAQhAAAIQgAAEIACB9AQQAemZUiIEIAABCEAAAhCAAASkCSACpN2DcRCAAAQgAAEIQAACEEhPABGQniklQgACEIAABCAAAQhAQJoAIkDaPRgHAQhYI7DDOefPB+H3OAHYEBXKBCbG58QEyq3DNgg8TmAkAn76tNvhfvsXnltECAQgAAEIQAACEIAABAZAgJWAATiZJkIAAhCAAAQgAAEIQGA9AUQA8QABCEAAAhCAAAQgoEOArVdFfIEIKIKZSiAAAQhAAAIQgAAEYgmgC2LJjc+HCEjPtPkS6YjNu5gGQgACEIAABCDQOAEbIoBZZ+NhSPMgAAEIPCLAcE8kQKAhAnRoaWfaEAG5EBKcuchSLgQgAAEIQAACEICAMIFhiwBhx2AaBCAAAQhAAAIQgAAEchFABOQiS7kQgAAEIAABCEAAAhAQJYAIEHUMZq0jwLYtwgECEIBAPwKMo/34kRsCDRJABDTo1JpN4jlTkz51QwACEIAABCBQn8D3/zzmoL4l21mACBhDh8msduBiHQQgAAEIQAACEIBAPAFEQDw7ckIAAhAYEeClAYEAAQhAAALWCHgR8JufPe12uN/+xa9d8IMABCAAAQhAoCcBhGFPgGSHAASyE2AlIDtiKoAABCAAAQhAAAIQgIAWAUSAlj+wBgIQgAAEIACBYgRsfMBZDAcVDYoAImBQ7qaxEIAABCAAAQhAAAIQcA4RQBRAAAIQgAAEIAABCEBgYAQQAQNzOM2FAAQgAAEIQAACEIAAIoAYgAAEIAABCEAAAhCAwMAIIAIG5nCaCwEIQAACEIAABCAAAUQAMQABCEAAAhCAAAQgAIGBEUAEDMzhNBcCEIAABCAAAQhAAAKIAGIAAhCAAAQgAAEIQAACAyOACBiYw2muKIEdzjl/Zw0/CEAAAhCAAAQgUIAAIqAAZKqAAAQgAAEIQAACEICAEgFEgJI3sAUCEICAAgFWphS8gA0QgMC2BPzyuR+s+MUSQATEkiMfBCAAAQhAAAIQaJjA6cN73bGp3e7Y1K4tW3nt9gO3/NW3bvn+Nw1TaLdpiIB2fUvLIAABCEAAAhCAQDABP+Gfm97n5qan3POH9wbn+3/ffOcu3/jKXf70vrt8435wPhLWJdCuCGA5u25kUTsEIAABCGxDgK0MhIcOAf/Gf37mSXd+Zn9vo7wguLh4d/Rv5evvepdHAfkItCsC8jGjZAhAAAIQgAAENhPg5Zu5mPBv/i8++6/uhemp5LYjBpIjTV4gIiA5UgqEAAQgAIE+BJhL9qFHXgiEEbgwe8C9+rOn3RO7d4ZliEz196++dXNX/u4Wv3gYWQLZchEYLwIYhXMxL1cuPizHmpogAAEIQAACBgjs/9FOt3DmcJa3/9s1/xdX77iFpXsGCA3HRFYChuNrWgoBCEAgDQFeMKThSCkQKEzAC4Br5467Uwf3FK75UXVvL624+au3q9RNpY8TQARsGRV8sEVngQAEIAABCECgHQK1BcAqSYSATkwhAnR8gSUQgAAEIBBDgJWJGGrRedrG3eZLQBUBsBp0r/35c/fqh59HxyAZ0xBABKThSCkQgAAEIAABCEBAksDCmSNJjv9M2bifX7nFnQLbAS2gthEBKSN6SGUVCM4h4aStEIAABCAAgRwE/Pn/vz9zOEfRvcr0R4jOXvqU24Z7UeyXGRHQj1+S3P6SjtNHwm/mS1JpZCELSyt02Eh2ZNMi4I/Gs/Tj4p303rI09qZvff0S/ZGRmy+TWv7qW54xCV3jtwEtz5/MfgxorMl/uHHfzV25FZs9Ml+bW75iYCACYqglzuMnI94RFn7/8c5Nd+3OAwumYiMExhKYfWqP++jFE6YIcbxeendZGnvTt16/RH++/PL9b0aGrj53rt1+4Fa++Y4z5wPdp7gNaLPpzCsCnZkhGSIgA9SuRVp6ENFZu3qX9IoELDwYN3O7/uVDN3vpE0WcZm2yNPaahRxoeMy7Wd8nvEhY/PKh8+LA/928shBYfZPJ/G3AN8+flG/b+3ceuNPv3JS3s0UDEQECXrX0IEIECAQMJvQmsPLKjOzy+HaNO/72x2yV6O39tQIsjb0Jm910UX71wAsCv3Lg/62uJDTd6DGNs/Syg7lFnQhFBNThvqFWSw8iOqpAwGBCLwKqH8mFNIpj9UIohaexNPaGt4qU6wn41QIvBvxNtf4bhCH9LL3s4O6AOpGJCKjDHREgwB0ThknA35b5/GEbH+Jv9pB/y3ls4W/DdFyGViMCMkAVLtL3n8s37g9CEMxNT7l3zx4V9sZG0/xJQft/t2TG3lYMRQQIeNLSg4iVAIGAwYRoAlb2yG7XQFt9MGand7R7O2e0NPZ2bhwZtiXgVwj8iVt+haDFn6WtQKv8uTegfCQiAsozf6xGSw8iWxMQAedighQBS31tHDiWzdOFVAvxkI7GMEvyb6C9GGjtCN7l+R+7Z/btMuVUtjuWdxcioDxzRIAAc0wYJgGLD8bNnvKTlmMLH3MKSoIQRgQkgNhIES2JAX83wL2XZ8x5hlOCyrsMEVCeOSJAgDkmNEpgm5us/cVQ75073kTDuTMgjRsRAWk4tlSKFwOvfvj5aGXA6s/qWMd3AeUjDhFQnjkiQIA5JgyPgMU9suO8xBuzNPGLCEjDscVS/EfE83+8bfJyTKsiwMfRjjf/2mI4ybYJESDgGksPIr4JEAiYsSZof4RZk5xfHl+eP2nyboBx3LgzoH9EWRp7+7eWEmIIvHH97mhlwNIlZJbjGhEQE6XxeRAB8eyS5bTUYREBydxOQQUJWL4bYBwmPqLrH0CWxt7+raWEWAL+JKH5q7fN3DNgOa4RAbFRGpcPERDHLWkuSx0WEZDU9RRWiMDiSyfcqYN7CtVWphruDOjP2dLY27+1lNCHgN+vPv/HO6N7BtR/luMaEVA2uhABZXlvWZulDosIEAgYTOhEoIW7AcY1mP7YKRQeS2xp7O3XUnKnImDho3zLK5+IgFSRGlYOIiCMU9ZUlh5ETDqyhgKFZyBw8blD7lenDmQouX6RQ7gzYJsDn3o7wNLY27uxFJCMgLoQ4MPgZK5uviBEgICLLT2IEAECAYMJnQi0cDfAuAZzZ0CnUGAloB8ucq8joCwEZp/a4z568YQ5f/lvL2YvfWLObssGIwIEvIcIEHACJjRJYG56yr179miTbVttlPJkRB38lmMvh2ypu03GPuWXYt//8icynEINGcLKZiiLUukQAaVIb1MPIkDACZjQJIHLZ4+6F6anmmzbaqO4MyDevZbG3vhWkjMXAb8SN3vpU7d8/5tcVUSXe+3ccff84b3R+Wtk/PWfPjN9SVsNZn3rRAT0JZggv6UHUc03Hzn3BidwI0WIEfB3A9x7eUbMqjzmcGdAHFdLY29cC8mVm4DqFpYLswfc688eyt38pOUzjiXFGVQYIiAIU95Elh5EWUQAs/u8ATbQ0i0+BGNdxZ0BceQsjb1xLSRXCQKK/c/aqWiqYmpc/LQybUEElBghJtRh6UGURQQI+AATChEoOHK2eDfAOC9xZ0Bc/Foae+NaSK5SBP79Pz+Ru0ws3xiY/sMZtgKVitSN9SAC6nDfUKulBxEiQCBgMGEiAaunY0xs2DYJ6Jvd6Vkae7u3jhwlCSh+m2PlvgBOOSsZqYiAerTH1GzpQcREQy58MGgLAi3fDTDO4Zys0b0rWBp7u7eOHKUJ/PzKLbkbhS0ckay4nap07NSqj5WAWuTX1WvpQYQIEAgYTJhIYOWVGffE7p0T07WUgLdp3b1paezt3jpylCaguC1P/Zhkxq3SUcpKQF3iW9Ru6UGECJALHwzaRMDKEngOx3FnQDeqlsbebi0jdS0CiqsByseFMmbVitRH9bISUJf/qHZLDyJEgEDAYMK2BIZwN8A4AIr7kpXD1dLYq8wR29YIKPZBf1zy8vxJudXRP9y47+au3CJ8KhJABFSEv1q1pQcRIkAgYDBhLAFrx+LlcCVnbYdTtTT2hreKlLUJKPbB04f3uvfOHa+N5of6/ZGgp9+56Va+/k7GpiEagggQ8LqlBxEiQCBgMGEsgSHdDTAOAh/ZhXcQS2NveKtIWZvAG9fvugsffFbbjMfqV9kq6b8D8AJg8YuHcoyGZhAiQMDjlh5EiACBgMGEsQQsnISR232KHyfmbnNs+ZbG3tg2kq88AeU+WFsIIADKx+N2NSICBPxh6UGECBAIGEzYkoDacndNN9FPw+hbGnvDWkQqFQKKl4etsqklBPwWoPmrt1kBUAlSPgzW8ISlBxGTC42YwYrHCSycOeLOz+wHjXOOOwPCwsDS2BvWIlKpEFDflucvVLx89hn3zL5dRZD5j4Dnr95p9xuAHc45f5GysR8rAQIOs/QgQgQIBAwmPEZA9fQL/0zwz4bSvw1nbxt9OJVgZmnsLcGDOtIRUDwlaHPr/Ljp+8CvTh1I1/BNJfmx6MIH/+MWlu5lq4OC4wkgAuLZJctp6UGECEjmdgpKSKDW8nbCJiQvSur8bVEhYmnsTR4gFJidwI43/5q9jhQV+FWBi88ecs8f3puiuFEZfvJ/cfHu6B8nACXDGlnQ+NdRiIBIpCmzWXoQIQJSej5TWaITrkytHRWrfBlOznZvV7aFN5G12KzWy9ib1wP+yN5j+3a50d+pXW724J7R/z51cE/eikVKt/a89L559adPu7l/2xd9p4Df9+/f+i8srTD5F4nD7cxABAg4iQeRgBMwwSwB7gYY7zrF88qVAo2xt443/DYU/yH/6SN73dz0VLF96aVbq/5dwHY8Vv3j//oxdty3A/5lw/L9b93il//rLt/4yi3f/6Y0ZurbikDgy8DEIqDWDljbMcCDyLb/sL4ugYvPHcq6p7Vu6/rVbnkS0q/lYbkZe8M45U7lt6P4LX3zM/uj30DntjGmfD7Qj6FGnpIEEouAkqa3UxcPonZ8SUvKE+BugPHMlc8rLx8pj9fI2KvghY02eDHg/VLq1JqcBNiSl5MuZacggAhIQbFnGTyIegIk+2AJ+K0E7549Otj2hzTc2r7kkDalSsPYm4pk+nL87d/eP0/s3pm+8IIlWvk4uCASqhIigAgQcAYPIgEnYEJmAnm2CnI3wGS3sSVhPCPG3snxUzOF/3bg8tmjSU+tKd2eJ99a4gPZ0tCpL5gAIiAYVb6EPIjysaXkdgn4CcK9l2fabWCilm24MyBRma0Uw9ir4clJ3zBaFvusxGnEGFZsTQARIBAZPIgEnIAJ5ghwN0C4y6TuDAg3O3tKxt7siJNVYFUIIAKShQAFZSCACMgAtWuRJh5E/9zNwYDW1bukz0Vg8aUTgzlvvC9DPlDcmqCJsfefppceeye9ne8bkzH5/dagF6anYrJWy/PrP302ujCLHwQUCSACBLzCg0jACZhgioA/UvCjF0+Ysrm2sdwZ8LgHVMbekC9mSouA2vG6Vf1+C+Dy/ElTHwtzTK9iJGHTKgFEgEAsqDyIQlDwIAqhRJrcBLgboDthJiO6IiDEm4y9jyhZ2wZoqd8prv6E9A3SxBNABMSzS5YTEZAMJQUNhMDKKzOm3gYquIU7AxABCnGYwgZLd4NYEgEpfEMZtggkFgEhi5q2AJWwFhFQgjJ1tEKAuwHiPcnb5I3sGHvjY6lmTn+HwOvPHqppQnDdiIBgVCSsQCCxCKjQggaq5EHUgBNpQjECFj8OLAZnQkXcGYAIUInFPnZYOh4YEdDH0+TNTQARkJtwQPmIgABIJIGAc+7Y1G538/xJWEQS4M4AREBk6Mhlu3buuIlLxBABcqGDQesIIAIEwgERIOAETDBBQH0bwB9u3HezT/2Le2bfLlme3Bmw5hrGXs0wDflAtZbvum56RgRoxhhWPSKACBCIhLDBrOvQk6dh7CnOw5VSwwiofxDoJ9j7f/R/pPcrc2cAIiCst2mnsvJtECJAO46Gbp0JERDyVsCyI8NEgEYL7YsADTGl4U1bVqjfDbC61cbvV1bfssSdAY9ifzhjb3vjnvp4sDq6IgJsPWeGZq0JEdC6U6o9iCKeC/ZFQOvR1G77Fs4ccedn9ss2cP1Ht+q3GTMxGZoIkO02vQz7/pc/6ZW/RGb6WgnK1BFLYBsREDFDjLVi4PmqiYAI7oiACGhkSUJA/W6An1+55S7fuD9qq/q3C9wZgAhI0ikrF2JBBPz6T5+5i4t3q5LyByocE/1OafHLh27l6++q8hly5awECHgfESDghJZMaHD/nPotoZsn1RZOMULQD2k7UEsD3Fpb1L8R8pYq9DPlOYYCnzZ7R1irEAFhnLKmUu6gmxtOh80aChQ+hoD6cYBvXL/rLnzw2Qbr1bcEcWeAMRHwXzfdtX88YIxYR0B9XEAETA5X5hSTGeVMMWgRoPLCFBGQM8Qp2zqBEm/V+25+/Pf//MQtfvFwA2r1LUHcGWBMBLxz0127gwhY38ksiIAdb/61+hAcNcfoOygGthoREAgqU7JBi4BMTDsXG9VBO9eSJsOwO2yhUTGNq5opRb1/XP/yoZu99MljvC3cajr0OwPUY2t9UA177N16OFP/Tkjl2xvlOCeuKz6qdzj3m//79OiUtB3ut3/xMxx+FQjU66DdJ7V02AoBMvAq1ff9bvfh3+WzR90L01OyHhz6nQH1xt7uIcHY+zgz9Q+D/eWBc1dudXd24hzKcU5cJ3Z2x+KqrQSobMXpyCtLcuUOurnBdNgsIUChYwicPrzXvXfuuDSf7c7cV/+g2YMd8p0BjL3SXWuiceoiQOV4UOU4Z04xMcyzJqgmArK2yljhyh30Ecq1FQM6rLHgMm6u+t0Ak970WdgSpDJRqRGq+mPvGhXG3o0RYuGyMBWfKce5CqMa449CnYgAAS8od1BWAgQCZKAmWJhAh+ypV98SpLJvuUaYM/bWoJ6mzrnpKffu2aNpCstQiv/wfv/vljKU3L1I5ThHBHT3Z8ociICUNCPLUu6giIBIp5KtN4EkW2m6f/YSbHfo6TpJ2hFsVVzCrU43iivJVi7GXlv+Wm/txecOuV+dOiDbgEmrhCUNV45zREDJSHi8LkRAXf6j2pU7KCJAIEAGakIr5+xbWNEYf2dARhUlENeMvQJOiDRBfXwIWSWMbHrnbMpxjgjo7M6kGRABSXHGFabcQREBcT4lVz8CJe4G6Gehcz+/cstdvnE/qBj1bxuUti4EAU2UiLE3EcjCxVgYH558a8mtfP1dYTJbV6cc54iAuiGCCKjLn5UAAf6YoEdAfam/6z569f3LPgKU3lyWishkk6MCCyZMltaiQv0ivi63cZc4KTFZnGfomPbiukBnz8B5XJGIgIKwx1Wl3EFZCRAIkMGYsDa4qt8N8Mb1u+7CB5918oz6xUZKe5g7ge2RmLG3B7yKWdXHB7WJrXKcq7GqGNZVqkYEVMG+sVLlDooIEAiQgZlg4a15zIe06luCfJgN7c4Axl57g4v6h/aKF/ApxzkioG4fRATU5c92IAH+mKBFQP1IzetfPnSzlz7pDM2CuNnu9uPODTaQQXlyxAuYxwPIf2TvPwh+Zt8u2ehS3FanHOeIgLqhjAioyx8RIMAfE3QIWDhJp89EWX1LUNdvHXQiJ84S5ckRIuBxn6qvpsW+IIiL3vBcynGOCAj3Y46UiIAcVDuWqdxBeRB1dCbJexFQ/+DPN67Plhn1SYxvX8xWp15Or5iZsbci/I5Vq28D8s1RndAqx7kqs47haTY5IkDAdcodFBEgECADMkH97O++H8+ePrzXvXfuuLRHu5xsIt2QAOMYewMgCSSxIAD6jg05MSvHOSIgp+cnl40ImMwoewrlDooIyO5+Kvgngdmn9riPXjwhzSPFfl/1k02GdGeAqbH3v266a/94IN0/chhnQQD4PjN76VO3fP+bHAh6l6kc54iA3u7tVQAioBe+NJmVOygiII2PKWUygdpbZSad/uwf9McWPt54AVDEId/qdyB4T6UQO5M9Xj8FY299H2xngYW+4u3vcnFgDeLKcY4IqBERa3V2EAGTHpF1G2K5duUOigiwHFm2bFf/aDbVNhkLKx7KWxtSRjVjb0qa6cry2+a8ADh1cE+6QjOVlGpcyGTeqFjlOEcE5PT85LI7iIDJhZEijoByB0UExPmUXN0IWFjyT/m2T31LkPdenw+gu3m/XmrG3nrst6r52NRu9+pPn3bnZ/ZrGTbGGn8a0Ol3bm5cHRS0XDnOEQF1AwYRUJe/vEpHBAgEyABMUL8bIPXRmRa2OfQ5CtVKyCpPjoY09vo7NOZn9rsXpqeshI5T/w5gPUjlOEcE1A15RMAm/hFbfHt7ULmDDulB1NuRFBBFwL/9u3n+ZFTeUpneuH7XXfjgs2TVWdgSlFr4JIOXsCDG3oQwOxTl43/24L+4uel97vSRve6J3Ts75K6f1AsAvwKw+MXD+sYEWKAc51VEQI2JXoCfaiRBBNSgvqlO5Q6aUgTQ7wSCTdAEC3cD5Dg738KWoBztVgpBS2OvX5mpO+nsNoJ7cX9sau1mX7/P3/+e/+dfpTjoYoueAJj8vaZynFcRAV0c3nhaRICAg5U7aEoRIIAaE1YJdHueZ+WmPhnOdQuoBfFj4aPHPsFpaezt007ypiGgJwDC2qUc54iAMB/mSoUIyEW2Q7nKHRQR0MGRJO1MwMLlWbn2xlvYBtX6nQGWxt7OnYsMSQn0FgAVX7woxzkiIGmYdi6sbRFQsdN18YRyB0UEdPEkabsSqH03QIi9T761lO30D/Ubkj2flu8MsDT2hsQqafIQ8KuB81dvV96OFd825ThHBKz36+StXfFRsHXOtkVAalqZylPuoIiATE6nWLf/Rzvd8vxJ6Y8Cc5+Xb2FLUG4GNbuCpbG3Jqch1+3jf/7qnWwvAkqwVY5zRECJCBhfByKgLv9R7f076Bj1mEFU0mEFAqYREyzcDZD7LbiFLUE+3Fq9M6D/2NtIZ6QZWxLItRWwNG7lOGdOUToaNtaHCKjLP5EIKNcIOmw51q3XdO3ccemTQkrth7ewJaiVydDmPqU8OWq9/yu3z/r2H0txnmdOkeENqHLA9rANEdADXqqslh5EeTpsKpKUY4WAhTfgpU7GsbAlqNU7AyyNvVb6tnU7X/vz5+7VDz+33owN9ivHOXOKuqGGCKjLn5UAAf6YUJ6AhRtzSz2c/LcR916eKe+EjjW2eGeA8uSoo3tI3pPA+3cejPb+L9//pmdJetmV47zUOKvnFQ2LOouAmgfu1Kw7p7uUO+jmdtNhc0bCcMpWvxug9Jvvy2ePuhemp6QDoNTKSEkIlsbeklyGVJff+uNvA79250GzzVaOc+YUdcOuswioa26btSt3UERAmzFXs1Vz01Pu3bNHa5owse43rt8dTQxK/Sx8JF3qG4lSzH09lsbeklyGUlfuD/9VOCrHOSKgbpQgAuryH9Wu3EERAQIB0pgJFu4GSHoaTsASppUtQa1NmiyNvY0NAxLN8cL22u0H7vKNr9zC0j0Jm3IYoRzniIAcHg8vExEQzipbSuUOigjI5vZBFmxhsuu3B8xe+qS4fyxsCWrtzgC5sZdDTYr3u9UKvSC4/OkjMdDa1iC5OF/nZURAtZAfVYwIqMuflQAB/phQjoCFbS+1jsO0wMZHStJVknKht2VNypOjymgGXb1/EXBx8W4zqwPKcY4IqNvVEAF1+SMCBPhjQjkCFs7Ef/KtpSq3g1pYJfGRUkskbR+lca/QlSdH5XolNY0j4A8I8MeFWt8qpBzniIC6/Q8RUJc/IkCAPyaUITD71B730YsnylQWWUvt7S4WvpcofXJSpCuDsilPjoIaQKIiBKyLAeU4RwSEhXDAp2VhBW1KhQiIwpY2k3IH3dxSOmxa3w+pNAt3A9T+8NXCyUk+Zlu5M8DS2DuksUK1rf4ugQt/+swtfvFQ1cQt7VKOc+YUdUMJEVCXPysBAvwxoULJ5ZoAAB29SURBVAyBlVdm3BO7d5apLKIWlSMw1Tl5tK3cGSA3OYrb1RQR7WTpQ8DarcJycb4OPiKgTyT2z4sI6M+wdwnKHZSVgN7upQDnnIU33CoTWwtbglQEU9/OZWns7dtW8qcl4D8enrtyy8QNw8pxjghIG5ddS0MEdCWWIb1yB0UEZHD4AIuMPf6y5ItRlYeRBcHkQ7j21qkU3cjS2JuivZSRloAXw7/44x337o37aQtOXJpynKuMu4mRmykOESDgKuUOiggQCBDjJhyb2u1unj+ZvRV9BIPax64WtgTV/og6RUBZGntTtJcy8hBQ3x6kHOeIgDwxGVoqIiCUVMZ0yh0UEZDR8QMp+sLsAff6s4ekW/vG9bvuwgefydhoYUuQh2X9zgBLY69McGLIlgRUthNuZZxynCMC6nYoREBd/qPalTsoIkAgQIybsDz/Y/fMvl3SrVCbzJ4+vNe9d+64NDNvnOadAeHYLI294a0iZS0CqkJAOc4RAbWi9VG9iIC6/BEBAvwxIR8BC3cD+A/8Zi99kg9CZMkWxJPaNqquqJUnR13bQvpUBPpsLNQ8OUs5zhEBqeI2rhxEQBy3pLmUOygrAUldPbjCLGxrUX2bbeFeBR/Qlu8MsDT2Dm7wMNxgtRUB5ThHBNQNdERAXf6sBAjwx4Q8BPb/aKdbnj8pfTeAb/mTby25la+/ywOhR6kWVlF889QmPF2QK0+OurSDtHoElD4WVo5zREDd2EUE1OWPCBDgjwl5CMzPPOl+f+ZwnsITlap+wo2FLUGW7wxQnhwlCnGKqUjg51duucsCx4cqxzkioGKA8k1AXfirtSt30M2E6LAaMWPBimvnjrvnD++VNlX9rHsrW4LUOY4LQktjr3RHwrgtCXiBPHvp0+oXiinHOXOKup2HlYC6/FkJEOCPCekJlLoboI/lOd5g73DO+c8KU/2sbAlSX1FBBKSKSMrpSkDh4AFEQFevDSc9IkDA18odlJUAgQAxaIKFmLayl93CliAfomrHrIZ0m9px2u8cmpAWkkaBQO3vA2rH+XY+YCWgboQiAuryZyVAgD8mpCdgYeK6+vBJ/fY+Nc3HLltTmTluskP1lKXt/KE8OWr5BYxf4dq/e6fzK4bHpnY5fy+G//+e2L0zdfeRKa+mSFaOc0RA3RBFBNTljwgQ4I8JaQlYuOjK0vn2FrZW+QiyxHQ14pUnRy2LgHEjjo91P37MTe9zL0xPpR2YKpf2/p0H7vQ7N6tYoRzniIAqIfFDpYiAuvwRAQL8MSEtAQt3A7xx/a678MFnaRuesbTFl064Uwf3ZKwhTdG97wwovCyjPDkaoghY32Z/xPDc9JTzK2EWYj+kB9U6LUg5zhEBIZGTLw0iIB/b4JKVO6jKg6jw3CDYdyTcSMA/uO+9PCOPpebSfAycx7YExRRSII+V7yxYCSgQDAmr8KsD/jmpftrYpCbXWi1TnmMgAiZFTd7/jgjIyzeodOUOqiICgkCSqDoBC3cDKJzW0dVRVrYE5ThxqSurLukZe8NpKbyI8SsD/tjcZ/btCjdcLGWN43SV43wkAv7xIO2xamI+VzYHESDgHeUOiggQCBBDJljYtmLxA1YfAhbYejtrTHJiuwhjbyy5evn8auPFZw+58zP76xnRo+YaqwHKcc5KQI9gSpAVEZAAYt8ilDsoIqCvd4eT38rb6iffWnIrX39nzjFWtgRZujOAsddcN/jBYAurjuPolv42QDnOEQF1+6BpEaCwPJnCfcodFBGQwsPDKMPC7baWJqibo8bK9xbebivfXDD22h6b/LGi/mZya0eLlj4paHyc1z9vGBFQtw+OFwGtzLDr8g2qnQdRECYSiRNYeWVG/mFsaavKVu6+fPaoiaMTrWy5YuwVH1QCzLMqBEoKZeU4RwQEBHnGJKZXAjJyKVq0cgdlJaBoKJitzH+w9+7Zo9L2W/todSuYVrZA1Nj3HBN8jL0x1PTyWOkX68mVPKZYOc4RAXX7EyKgLv9R7codFBEgECAGTLDwhtra8ZVbud3SlqDedwYUiHvG3gKQC1VhYTviehQlhbJynCMCCnWQMdUgAuryRwQI8MeEfgQsTUz7tZTcXQhYEF3KkyNewHSJNuf8OORP0LJ0fGgpoawc54iAbnGeOjUiIDXRiPKUOygPogiHDiyLlVNrBuaW6s21sP2Ksbd6mCQ1wMK2xPUNfu3Pn7tXP/w8KYOtClOOc0RAdvdvW8EWIqD+1+I5kSh+76zcQREBOaOxjbKtnF/fBm1brSh9FGJXOoy9XYnpp/enBVm5WbjUxYXKcY4IqNunWAmoy39Uu3IHRQQIBIiwCf5kjo9ePCFsIabVJKB+JCtjb83oyFO3tY+ES9xbohzniIA8/SC0VERAKKmM6ZQ7KCIgo+MbKHrhzBGzN3c2gN9EE0pMcmJBMPbGktPOZ+G44lWCJVbLlOMcEVC3LyEC6vK3uxKguK9KwJdDM8HSw3ZovlFpr/KdAcqTI17AxEewpZOCSnwXoBzniID4OE+RExGQgmLPMqp10IjPP+iwPZ3dUHZry+4Noc/WlIghYaItpfY9TzRkiwTVxt4IYxl7w6FZ+kC4xO3BynFOXIfHdY6UiIAcVDuWqdxB9d9G5Zi2dHTgQJNbuBtgoK6Ra3apoxC7NpyxtysxO+m//+VPTBhb4hQt5ThHBNQNU0RAXf6j2pU7qL4IEHDgAE04NrXb3Tx/coAtt97kOqK55O2oXTzE2NuFlq20EqcEBXa3HW/+NStc5ThHBGR1/cTCEQETEeVPoNxBEQH5/W+xBksxa5FvazaXeNsZwmzzp0yW4pjJUoiH19JY+i4gt2+V4zx327tFzfBSIwIEfK7cQREBAgEiaMLy/I9N3cwpiHBwJpU4BaUrVMbersTspLd0iWHuvqEc54iAun0KEVCX/6h25Q6KCBAIEDETTh/e6947d1zMKsxRJ6B4ZwBjr3rUxNtnaZzKfUKQcpwjAuJjPEVOREAKij3LUO6giICezm0wO3cDNOjUQk1SuDNg/ZYgxt5Cjq9QTU0REPgpwA9UEAEPKkQIVXoCiACBOOBBJOAETAgisP9HO93y/En3xO6dQelJBIH1BNTuDGDsbTs+rZwQlHuVTDnOWQno0we7ys3H60IE9OGfKK9yB5VdCeCyskTR160Y7gboxovUGwmo3RnA2Nt2hFoRAbnvClCOc0RA3T6ICKjLf1S7cgeVFQECfhuiCRLH7g0RfENtVrozgLE3PrAsvIdBBDzyr3Kca4uA/m/a43tYmZyIgDKct61FuYMiAgQCRMQE7gYQcYRxM5TuDGDsNR5ME8xHBCAC2o7w/q1DBPRn2LsEHkS9EVJAAQKWzt0ugIMqIgmo3Bmg/oaUFzCRAbYuGyIAEdA/itouAREg4F9EgIATMGEiAe4GmIiIBIEEcp+LHmiG9DYJRECoF8enQwQgAvpHUdslIAIE/IsIEHACJmxLYG56yr179iiUIJCEQO7TUEKNZOwNJWUvnT/J7N7LMyYM58NgjgitFaiIgFrk19XLg0jACZiwLQHuBiBAUhNQuDOAsTe1V3XKq3lPQFcKiABEwOSYyfORMiJgMvnsKXgQZUccXIGFEy+CG5MooaU3aomaTDEFCCjcGcDYW8DRlapABKyBV45z7dOBKgVvwWoRAQVhj6tKuYNutpkOKxAwhU24MHvAvf7socK1Ul3rBBTuDGDsbTfKLPmWlQBWAmr1RERALfLr6rU0WCECBAKmsAmLL51wpw7uKVwr1Q2BQO07Axh7242yy2ePuhemp0w0EBGACKgVqIiAWuQRAQLkMWESgdmn9riPXjwxKRn/HQJRBGrfGRArAjbvzs2zW3cjUl7AdAsxS6eZvb204uav3u7WwA6pY+O8QxXRSYnraHRJMiICkmDsV4hyB93cMjpsP19by83dANY8Zsve2ncGMPbaipdQa61dbPjanz93r374eWjzOqdTjnPmFJ3dmTQDIiApzrjClDtoiAjgY9o4v1vItfLKjHti904LpmKjUQI17wywPvYadXl2s619x4QIGPp2oBJriVt3O0RA9uFocgXDehDVC/bJniDFegLcDTCkeKjXL0PvDMjxsmFYY2/D8bwpOKx9x5RbCCvHOSsBdfslIqAu/1Htyh00ZCVAACEmZCBg6cO6DM2nyIIEat0ZwNhb0MmFqrJ0NOgqktwTYeU4z932QmFnthpEgIDrlDsoIkAgQCqYYG1PbQVEVJmQQK07Axh7EzpRpKhr54675w/vFbEmzIwdb/41LGFkKuU4RwREOjVRNkRAIpB9ilHuoIiAcM/m2K4QXnvalNb21PZufb3dML1Nb6GAWncGMPa2ED1rbbC4ClDi43jlOEcE1O2DiIC6/Ee1K3dQRIBAgFQwwdLxehXwNFxlPTVU484Axt52QtnfbO6/BXhm3y5Tjcp9R4D6HAMRUDdcEQF1+SMCBPhjwkYClu4GqLWX3ErMWFrRqXFnACLASiRPtrPbN0z1xO7mluQ7GWitjcpxjgiYHNs5UyACctINLFu5g5ZaCYjdShObL9A1g0y2cOaIOz+zX77toafKyDcko4GWvu0osS1iM2rG3ozBV7DoqDFLRAfkPhmIlYCCgWiwKkSAgNN4EAk4ARNGBPyS+vL8SRN3A/zi6h23sHQPz00g0O+4xAkzpcQTqRITovW4GHvtd58oASDU7BKrmcpxzkpA3WBEBNTlP6pduYOWWgkQcAMmOOfmZ550vz9zWJ5FjbfG8lDGGGhpS1Dp1R3GXqtR/eiFhd8CZO0koPXES30QrxzniIC6fRARUJc/IkCAPyasEbByvN7bSytu/uptXBdAwNKWIN+cEm9GV7FlmRwlXh1ZtZXJ0lqw+5cVF5/7VxMrltt10VLfwWSJ84CxJyQJcZ1pwAiB75xDBASCyplMuYOyEpDT81plW5oslt42ouWp7tb02xLUvb4+OUreGcDY28dT5fP6I0C9zyy//V9PrdSJWMpxjggo34/W14gIqMuflQAB/pjwiIDyg2K9j9gK1D1iLW0JKrVFwlLMe1uHPFnyb/7nZ/Y3M/n3/vz7V9+6Ywt/696ZI3Ioj+1DjusIVybPgghIjrR7gcodtHtryJGDQL5j5NastXI3QKkl9Bx+rFWmpVUez2j1DWnu078sjb1Dmyz5t/5z/zY1mvw/sXtnra6Trd6S41j1ON9mx8vQ4jpbQEUWHC8Cco/OkQ2ymK16B7UIbWA25xYBc9NT7t2zR01QLbWEbgJGByMtbQkqNUGyNPa2Plnyk35/R4n/e/rI3iYn/uu7a8lxTDnOW4/rDkN0laTxIqCKuW1WqtxB2yRur1VdRUBXjW7lmL2SS+j2omR7iy1tCSq15cvS2Ou/lVj84qH5sPQTfX+yj/83e3CP86tU1m757euEklvevK3KcY4I6BtN/fIjAvrxW8vddda1rl7lDpoKD+X0I9BVBHSpzT+M77080yVLtbSl3hBXa2DGiq1tCSrx8Tdjb8aAo+ixBErfcaIc54iAuh1lowjoMZGt2wzbtSt3UNtk27E+pwiwcjeA9+bxtz92y/e/acexhVti5QhYj6XEnQGMvYUDkOqKfhC8ils5zhEBdTsFKwF1+Y9qV+6gAngwwTmXUwRY2Steegm9xcCzJPg8/9x3BjD2thjl2m0qvQqgPsdABNSNV0RADv4dV1R4EOVwQltl5hIBlraIrD8/vmMXaysYerTG0tYv38zcdwYw9vYIJrJ2JlDrmyblOEcEdA6jpBkQAUlxxhWm3EHjWkSu1ARyiYCLzx1yvzp1ILW5WcpjK1AarJfPHnUvTE+lKSxzKblXfxh7MzuQ4jcQqLEKwEoAQbgdAUSAQHzwIBJwgrgJuUTAyiszJo7ie//OA3f6nZviXgowT2AJw9qWoJxHKTL2BsQsSZIQqDmGKcc5KwFJwiu6EERANLp0GZU7aLpWUlIfAjlEgKW7AWq9QevjM9W8wVuCtrngp2Tbcp4Ixdhb0pPDriunmJ1EVjnOEQGTvJf3vyMC8vINKj2og4o8kIMaRKLkBHKIAEvbQnJ/IJrcYeIFWvJ9zjsDgsZecV9inj6BHON3l1aHxHmtKQYioIsn06dFBKRn2rnEkA7auVAyNEUg9UMk+G2wAMUSR0UKNLOoCda2BOW6M4Cxt2jYDbKy3N+1hEBVjnNEQIgH86VBBORjG1yycgcNbkTfhLVeQ/S1u1D+1CLA0u2xbAVKH2SWRKBvfS4hyNibPrYocY2AX8WavfRp9btNlOMcEVC3x9gTAQIf1qV2mXIHTd1WyosjsK0IiOgTy/M/ds/s2xVnTMFcObeCFGyGZFWWtgR5gDm2hDH2SoZmM0blWsHqCkg5zvuLAN4gdo2H9entiYA+rRXNq9xBRZENzqyUKwGzT+1xH714wgTDt5dW3PzV2yZstWaktS1BOe4MYOy1FrV27O23gpl2Yqsc5yEiIOI9l51AqWyptAgYiuNLdtC0Q0vl6B1Q9SlFwMKZI+78zH4T9FTepJmA1dFIa1uCcuytLjn2dnQPyQ0TUHt5oRznISIgeygMZbK5BUhpEZDd8SIVKHdQEUSDNyOlCLByNwBbgfKHvbUtQY8ds9jz4R009vLmJH8gNlSDmgDwaIPivJIPJERApbYrVIsIEPCCcgcVwIMJzrlUIsDSFhDFh2lrwWgpHjz71HcGMPa2FtF126M6ZinHOSKgbswiAuryH9Wu3EEF8GBCQhFg6c1vzct1hhR0VlaGvE9Srw4x9g4p0vO2NbVATWmtcpwjAlJ6untZiIDuzJLnUO6gyRtLgVEEUqwEHJva7W6ePxlVf+lMf//qW3ds4W+lqx1kfZa+EfEOSvmdCGPvIEM+eaP9R8BvL91zfueY4k8xzld32SEC6kYMIqAuf1YCMvJvaStvChGg+CAY537lt2oZQ7ZK0XPTU+7ds0er1B1Taco7Ayz1iRhW5MlLwK9Mzf33LXftzoO8FfUsXTnOEQE9ndszOyKgJ8AU2ZU7aIr2VSujIRWQQgRYuRvAxwtbgcr2GktbgjyZVHcGMPaWjbOWavOnVc1duVX9IrAQpspxjggI8WC+NIiAfGyDS1buoMGNIGFWAn1FwOnDe917545ntTFV4TmOgkxlW6vlWNsS1O8M9jUv5h57G3oP0WroR7Wr73gcVWmPTJPivGacIgJ6ODZBVkRAAoh9i5jUQfuWT377BPo+dCxN8nJcCmU/AvK2wNqWoFRCkbE3b1y1VrqPO3954eIXD001TTnOEQF1QwkRUJf/qHblDiqABxN6ng7kL4Vanj/pnti90wTL429/bGKJ3QTMDkZa2xKUIk4YezsEyICT+r3/Fxfvulc//NwkBeU4RwTUDSlEQF3+iAAB/tlNSLDW2mclwNJZ8Kne8Gb3aYMVWFot8vhTfDyuPDlqMMRMNsl/iH7hT/9j+sWEcpwjAup2C0RAXf6IAAH+FkzoIwIWXzrhTh3cY6GZLtVebxONFTPS2pagFMfIKk+OxMJjcOa8f+fB6M2/+sk/IY5RjnNEQIgH86VBBORjG1yycgcNbgQJMxL43r325y+ilqJT3Q2QYDEjiE+qU1+CKiPRYwSsbQnqe2cAYy+dYDMBLy795H9h6V4zcJTjHBFQN8wQAXX5664ElJr1CfC3YELsSsDF5w65X506INDEyQGV8vx3gQabNMHalqC3l1ZGH2rG/pQnR7FtGmS+ycPLRCz+zb/f93/5xv2Jaa0lUI5zREDdaEIE1OWvKwIEuGDCGoFYEWDpbgC2AtWPeGtbgjyxPqtHypOj6GhIMCGOrttgRi8k/Vv/Frb9jMOvHOeIgLqdBhFQlz8iQIC/BRPWi4AdzgVdT19kQpdowuFP3zi28LFb+fo7C+5o2kZrW4L6iEflyVHTQVa5cX7Lz8XFL93C0sogxhzlOEcE1O0MiIC6/BEBAvwtmBCzEjB+a0eimXtCcH23dSQ0ZfBF6WwhC3NFnxOllCdHYa0nVSgBP/H3W338W39r5/yHtpGVgL6khpcfESDgcx5EAk4QN6GrCPB3A9x7eUa8VWvm9f3A00xDDRg6+9Qe99GLJwxYumZi7J0BjL2m3NzZWC8Q/cTf/xvaxH89LOU4ZyWgc1gnzYAISIozrjDlDhrXInKlJtBVBFyYPeBef/ZQajOylOe3Au3/3VKWsik0joClb0l8C2PvDGDsjYsP1Vx+0u/39l+7/WD0l+2FjzylHOeIgLq9CRFQl798BxXAgwkRNwZbuhuArUB5Qjz025Gtare2JSj2zgDlyVGeqGinVH+az/L9b93il/87esvf8oe9fb2mHOeIgL7e7ZcfEdCPX5Lcyh00SQMppDeBLisB1rZz8BDoHR7JC7AWQx5AzJYyxt7koZOkQD/BX/2tTu79RN+/2V/88tFffuEElOOc8T/cjzlSIgJyUA0ts8+rutA6SAcBCEAAAhCAAAQgAIFNBBABhAQEIAABCCQioHfyVKKGUQwE6hHghWE99o3XjAho3ME0DwJpCTDJS8uT0iwQYA5mwUvYCAEIdCWACOhKjPQQgAAEIAABCEAAAhAwTgARYNyBmA8BCEAAAhCAAAQgAIGuBBABXYmRHgIQgAAEzBNgi495F9IAeQJsH1V3ESJA3UPYBwEIQAACEIAABCAAgcQEEAGJgVIcBCAAAQhAAAIQSE+AN+vpmQ67RETAsP1P6yEAAQhAAAJaBNirpeUPrGmWACKgWdfSMAioEeAtlppHsAcCEIAABIZLABEwXN/TcghAAAIQgAAEIACBgRJABAzU8TQbAhCAAAQgAAEIQGC4BBABw/V9kZaztbMIZiqBgCwBxgBZ12AYBCAwcAKIgIEHAM2HAAQgAAEIQAACEBgeAUTA8HxOiyEAAQhUJcDqQFX8VA4BCEBgRAARQCA8IsBTmUiAAAQgAAEIQAACgyGACAhwNfPjAEgkaZ4A/aB5F9NACEAAAhAYEAFEwICcTVMhAAEIQAACEFAhwN0pKp4Yqh2IgKF6nnZDIBkBHmTJUFIQBCDQjwBLlv34kbsegQqxiwio525qhgAEIAABCEAAApMJVJggTjaKFNYJIAKsexD7IQABCEAAAhCAgBkCrB6ruAoRoOIJ7IAABCAAAQhAAAIQgEAhAoiAQqCpBgK5CbBanJsw5UMAAhCAAAQKECj0QEcEFPAlVUAAAhCAAAQgAAEIQECJACIg1BuFVFmoOaSDAAQgAAEIpCfAfu30TCkRApoEEAGafsEqCEAAAhCAAAQgAAEIZCOACMiGloIhAAEIQAACEIAABCCgSQARoOkXrIIABCAAAQhAAALbE2CrMhHSgwAioAc8skIAAjYI8Jy04SeshECLBKqOP1Urb9GbbbUJEdCWP2kNBLIQ4DmSBSuFQmAdAT7IJRwgAIGyBBABZXlTGwQgkJEAYiUjXIqGAAQgAIGmCCACmnInjYEABCAAAQhAAAIQgMBkAoiAyYxIAQEIQAACEIAABCAAgaYIIAKacieNgQAEIAABCEAAAhCAwGQCiIDJjEgBAQhAAAIQgAAEIACBpgggAppyJ42BAAQgAAEIQECfAKdB6fuofQsRAQV8zIklBSBTBQQgAAEIQAACEIBAMAFEQDAqEkIAAhCAAAQgAAEINEtgYG9tEQHNRvKmhg0ssIfiVtoJAQhAIJgAz4FgVCSEwBAIIAKG4GXaCAEIQAACEIAABCAAgXUEEAEB4cDLkwBIJClGICwe+eismEOoCAIQgAAEIGCQACLAoNMsmBw2UbXQEmyEAAQgAAEIQAACGQlUmjQhAjL6lKIhAAEIQAACSQhUmiQksZ1CIAABSQKIAEm3YBQEIAABCEAAAhCAAATyEUAE5GNLyRCAAAQGRoBvUQbmcJoLAQgYJoAIMOw8TIcABCAAAQhAAAIQgEAMAURADDXyQAACEIAABCAAAQhAYETA5iooIoDwhQAEIAABCEAAAhCAwMAIIAISO5wDHBIDpTgIQAACEIAABCAAgeQEEAHJkVJgswRQeM26loZBAAIQgAAEhkYAETA0j9NeCEAAAhCAAAQgAIHBE0AEDD4EAAABCEAAAhCAgGkCrFSbdl8t4987d9ydPrzX7XC//Yv/tJkfBCAAAQhAAAIQgEAiAszPE4HsVYzN03t6NTkgMyIgABJJIAABCEAAAhCAAAQg0BKBVRHw/wFRFRsNiIqPjwAAAABJRU5ErkJggg==;" parent="KlYnetJEtSsTYRGKjeyn-58" vertex="1">
                    <mxGeometry x="103" y="59" width="73.79" height="30.31" as="geometry"/>
                </mxCell>
                <mxCell id="KlYnetJEtSsTYRGKjeyn-64" value="" style="html=1;shadow=0;dashed=0;shape=mxgraph.bootstrap.rrect;rSize=5;align=left;spacing=15;fontSize=14;fontColor=#6C767D;labelBorderColor=none;strokeColor=none;fillColor=#FFFFFF;opacity=90;" parent="KlYnetJEtSsTYRGKjeyn-58" vertex="1">
                    <mxGeometry x="26" y="153" width="144" height="22" as="geometry">
                        <mxPoint x="20" y="50" as="offset"/>
                    </mxGeometry>
                </mxCell>
                <mxCell id="KlYnetJEtSsTYRGKjeyn-65" value="" style="rounded=1;whiteSpace=wrap;html=1;shadow=0;glass=1;labelBackgroundColor=none;sketch=0;fontSize=12;fontColor=#ffffff;strokeWidth=1;opacity=50;fillColor=#7DDDD2;strokeColor=none;" parent="KlYnetJEtSsTYRGKjeyn-58" vertex="1">
                    <mxGeometry x="24.080000000000002" y="97" width="155.84" height="250" as="geometry"/>
                </mxCell>
                <mxCell id="KlYnetJEtSsTYRGKjeyn-66" value="" style="group;fontFamily=ANton;fontSource=https%3A%2F%2Ffonts.googleapis.com%2Fcss%3Ffamily%3DANton;" parent="KlYnetJEtSsTYRGKjeyn-58" connectable="0" vertex="1">
                    <mxGeometry x="29.119999999999997" y="93" width="149.00000000000003" height="63" as="geometry"/>
                </mxCell>
                <mxCell id="KlYnetJEtSsTYRGKjeyn-67" value="" style="shape=image;html=1;verticalAlign=top;verticalLabelPosition=bottom;labelBackgroundColor=#ffffff;imageAspect=0;aspect=fixed;image=https://cdn1.iconfinder.com/data/icons/osman01/500/gloval_logo_-128.png;" parent="KlYnetJEtSsTYRGKjeyn-66" vertex="1">
                    <mxGeometry x="49.809999999999974" y="13" width="50" height="50" as="geometry"/>
                </mxCell>
                <mxCell id="KlYnetJEtSsTYRGKjeyn-68" value="SINERGIA" style="text;html=1;strokeColor=none;fillColor=none;align=center;verticalAlign=middle;whiteSpace=wrap;rounded=0;fontSize=15;opacity=80;rotation=0;fontFamily=Lucida Console;" parent="KlYnetJEtSsTYRGKjeyn-66" vertex="1">
                    <mxGeometry width="149" height="20" as="geometry"/>
                </mxCell>
                <mxCell id="KlYnetJEtSsTYRGKjeyn-69" value="" style="html=1;shadow=0;dashed=0;shape=mxgraph.bootstrap.rrect;rSize=5;align=left;spacing=15;fontSize=14;fontColor=#6C767D;labelBorderColor=none;strokeColor=none;fillColor=#FFFFFF;opacity=90;" parent="KlYnetJEtSsTYRGKjeyn-58" vertex="1">
                    <mxGeometry x="30" y="169" width="144" height="22" as="geometry">
                        <mxPoint x="20" y="50" as="offset"/>
                    </mxGeometry>
                </mxCell>
                <mxCell id="KlYnetJEtSsTYRGKjeyn-70" value="" style="shape=image;html=1;verticalAlign=top;verticalLabelPosition=bottom;labelBackgroundColor=#ffffff;imageAspect=0;aspect=fixed;image=https://cdn4.iconfinder.com/data/icons/48-bubbles/48/31.ID-Horizontal-128.png;fontFamily=ANton;fontSource=https%3A%2F%2Ffonts.googleapis.com%2Fcss%3Ffamily%3DANton;fontSize=15;strokeColor=#007FFF;fillColor=#FF3333;opacity=80;fontColor=#00ADC0;" parent="KlYnetJEtSsTYRGKjeyn-58" vertex="1">
                    <mxGeometry x="34.54" y="170" width="18" height="18" as="geometry"/>
                </mxCell>
                <mxCell id="KlYnetJEtSsTYRGKjeyn-71" value="&lt;font color=&quot;#00adc0&quot; style=&quot;font-size: 9px;&quot;&gt;DNI&lt;/font&gt;" style="text;html=1;strokeColor=none;fillColor=none;align=center;verticalAlign=middle;whiteSpace=wrap;rounded=0;fontFamily=Helvetica;fontSize=9;opacity=80;fontColor=#00CCCC;" parent="KlYnetJEtSsTYRGKjeyn-58" vertex="1">
                    <mxGeometry x="49" y="171" width="40" height="20" as="geometry"/>
                </mxCell>
                <mxCell id="KlYnetJEtSsTYRGKjeyn-72" value="" style="html=1;shadow=0;dashed=0;shape=mxgraph.bootstrap.rrect;rSize=5;align=left;spacing=15;fontSize=14;fontColor=#6C767D;labelBorderColor=none;strokeColor=none;fillColor=#FFFFFF;opacity=90;" parent="KlYnetJEtSsTYRGKjeyn-58" vertex="1">
                    <mxGeometry x="29.120000000000015" y="199" width="144" height="22" as="geometry">
                        <mxPoint x="20" y="50" as="offset"/>
                    </mxGeometry>
                </mxCell>
                <mxCell id="KlYnetJEtSsTYRGKjeyn-73" value="" style="verticalLabelPosition=bottom;html=1;verticalAlign=top;align=center;strokeColor=none;shape=mxgraph.azure.message;pointerEvents=1;fillColor=#00ADC0;" parent="KlYnetJEtSsTYRGKjeyn-58" vertex="1">
                    <mxGeometry x="35.53999999999998" y="205.12" width="16" height="11.75" as="geometry"/>
                </mxCell>
                <mxCell id="KlYnetJEtSsTYRGKjeyn-74" value="Email" style="text;html=1;strokeColor=none;fillColor=none;align=center;verticalAlign=middle;whiteSpace=wrap;rounded=0;fontSize=9;labelBackgroundColor=none;fontColor=#00ADC0;" parent="KlYnetJEtSsTYRGKjeyn-58" vertex="1">
                    <mxGeometry x="51.27999999999999" y="201" width="40.52" height="20" as="geometry"/>
                </mxCell>
                <mxCell id="KlYnetJEtSsTYRGKjeyn-75" value="" style="html=1;shadow=0;dashed=0;shape=mxgraph.bootstrap.rrect;rSize=5;align=left;spacing=15;fontSize=14;fontColor=#6C767D;labelBorderColor=none;strokeColor=none;fillColor=#FFFFFF;opacity=90;" parent="KlYnetJEtSsTYRGKjeyn-58" vertex="1">
                    <mxGeometry x="29.12" y="229" width="144" height="22" as="geometry">
                        <mxPoint x="20" y="50" as="offset"/>
                    </mxGeometry>
                </mxCell>
                <mxCell id="KlYnetJEtSsTYRGKjeyn-76" value="" style="verticalLabelPosition=bottom;html=1;verticalAlign=top;align=center;strokeColor=none;shape=mxgraph.azure.message;pointerEvents=1;fillColor=#00ADC0;" parent="KlYnetJEtSsTYRGKjeyn-58" vertex="1">
                    <mxGeometry x="34.41999999999996" y="235.12" width="16" height="11.75" as="geometry"/>
                </mxCell>
                <mxCell id="KlYnetJEtSsTYRGKjeyn-77" value="Confirme su Email" style="text;html=1;strokeColor=none;fillColor=none;align=center;verticalAlign=middle;whiteSpace=wrap;rounded=0;fontSize=9;labelBackgroundColor=none;fontColor=#00ADC0;" parent="KlYnetJEtSsTYRGKjeyn-58" vertex="1">
                    <mxGeometry x="50.16" y="231" width="92.84" height="20" as="geometry"/>
                </mxCell>
                <mxCell id="KlYnetJEtSsTYRGKjeyn-78" value="" style="html=1;shadow=0;dashed=0;shape=mxgraph.bootstrap.rrect;rSize=5;align=left;spacing=15;fontSize=14;fontColor=#6C767D;labelBorderColor=none;strokeColor=none;sketch=0;opacity=90;" parent="KlYnetJEtSsTYRGKjeyn-58" vertex="1">
                    <mxGeometry x="29.12" y="259" width="144" height="22" as="geometry">
                        <mxPoint x="20" y="50" as="offset"/>
                    </mxGeometry>
                </mxCell>
                <mxCell id="KlYnetJEtSsTYRGKjeyn-79" value="" style="points=[[0,0.5,0],[0.24,0,0],[0.5,0.28,0],[0.995,0.475,0],[0.5,0.72,0],[0.24,1,0]];verticalLabelPosition=bottom;html=1;verticalAlign=top;aspect=fixed;align=center;pointerEvents=1;shape=mxgraph.cisco19.key;strokeColor=none;fillColor=#00ADC0;" parent="KlYnetJEtSsTYRGKjeyn-58" vertex="1">
                    <mxGeometry x="37.41999999999999" y="267.4" width="16" height="7.2" as="geometry"/>
                </mxCell>
                <mxCell id="KlYnetJEtSsTYRGKjeyn-80" value="Contraseña" style="text;html=1;strokeColor=none;fillColor=none;align=center;verticalAlign=middle;whiteSpace=wrap;rounded=0;fontSize=9;fontColor=#00ADC0;" parent="KlYnetJEtSsTYRGKjeyn-58" vertex="1">
                    <mxGeometry x="60.16" y="260" width="50" height="20" as="geometry"/>
                </mxCell>
                <mxCell id="KlYnetJEtSsTYRGKjeyn-81" value="" style="html=1;shadow=0;dashed=0;shape=mxgraph.bootstrap.rrect;rSize=5;align=left;spacing=15;fontSize=14;fontColor=#6C767D;labelBorderColor=none;strokeColor=none;sketch=0;opacity=90;" parent="KlYnetJEtSsTYRGKjeyn-58" vertex="1">
                    <mxGeometry x="29.120000000000005" y="291" width="144" height="22" as="geometry">
                        <mxPoint x="20" y="50" as="offset"/>
                    </mxGeometry>
                </mxCell>
                <mxCell id="KlYnetJEtSsTYRGKjeyn-82" value="" style="points=[[0,0.5,0],[0.24,0,0],[0.5,0.28,0],[0.995,0.475,0],[0.5,0.72,0],[0.24,1,0]];verticalLabelPosition=bottom;html=1;verticalAlign=top;aspect=fixed;align=center;pointerEvents=1;shape=mxgraph.cisco19.key;strokeColor=none;fillColor=#00ADC0;" parent="KlYnetJEtSsTYRGKjeyn-58" vertex="1">
                    <mxGeometry x="35.53999999999999" y="299.4" width="16" height="7.2" as="geometry"/>
                </mxCell>
                <mxCell id="KlYnetJEtSsTYRGKjeyn-83" value="Confirme su contraseña" style="text;html=1;strokeColor=none;fillColor=none;align=center;verticalAlign=middle;whiteSpace=wrap;rounded=0;fontSize=9;fontColor=#00ADC0;" parent="KlYnetJEtSsTYRGKjeyn-58" vertex="1">
                    <mxGeometry x="58.28" y="292" width="102.72" height="20" as="geometry"/>
                </mxCell>
                <mxCell id="KlYnetJEtSsTYRGKjeyn-84" value="" style="html=1;shadow=0;dashed=0;shape=mxgraph.bootstrap.rrect;rSize=5;align=left;spacing=15;fontSize=14;fontColor=#6C767D;labelBorderColor=none;strokeColor=none;fillColor=#FFFFFF;opacity=90;" parent="KlYnetJEtSsTYRGKjeyn-58" vertex="1">
                    <mxGeometry x="62.12" y="320" width="78" height="22" as="geometry">
                        <mxPoint x="20" y="50" as="offset"/>
                    </mxGeometry>
                </mxCell>
                <mxCell id="KlYnetJEtSsTYRGKjeyn-85" value="Registrarse" style="text;html=1;strokeColor=none;fillColor=none;align=center;verticalAlign=middle;whiteSpace=wrap;rounded=0;fontFamily=Helvetica;fontSize=9;fontColor=#00ADC0;opacity=80;" parent="KlYnetJEtSsTYRGKjeyn-58" vertex="1">
                    <mxGeometry x="83" y="321" width="40" height="20" as="geometry"/>
                </mxCell>
                <mxCell id="KlYnetJEtSsTYRGKjeyn-86" value="" style="group" parent="1" connectable="0" vertex="1">
                    <mxGeometry x="214.03" y="320" width="156.97" height="45" as="geometry"/>
                </mxCell>
                <mxCell id="KlYnetJEtSsTYRGKjeyn-87" value="" style="dashed=0;outlineConnect=0;html=1;align=center;labelPosition=center;verticalLabelPosition=bottom;verticalAlign=top;shape=mxgraph.webicons.google;gradientColor=#DFDEDE;strokeWidth=1;" parent="KlYnetJEtSsTYRGKjeyn-86" vertex="1">
                    <mxGeometry x="48.630000000000024" y="25" width="23" height="20" as="geometry"/>
                </mxCell>
                <mxCell id="KlYnetJEtSsTYRGKjeyn-88" value="" style="dashed=0;outlineConnect=0;html=1;align=center;labelPosition=center;verticalLabelPosition=bottom;verticalAlign=top;shape=mxgraph.webicons.facebook;fillColor=#6294E4;gradientColor=#1A2665;strokeWidth=1;" parent="KlYnetJEtSsTYRGKjeyn-86" vertex="1">
                    <mxGeometry x="81.97" y="25" width="23.39" height="20" as="geometry"/>
                </mxCell>
                <mxCell id="KlYnetJEtSsTYRGKjeyn-89" value="" style="group" parent="KlYnetJEtSsTYRGKjeyn-86" connectable="0" vertex="1">
                    <mxGeometry width="156.97000000000003" height="40" as="geometry"/>
                </mxCell>
                <mxCell id="KlYnetJEtSsTYRGKjeyn-90" value="" style="line;strokeWidth=1;html=1;fontColor=#ffffff;fillColor=none;strokeColor=#00ADC0;" parent="KlYnetJEtSsTYRGKjeyn-89" vertex="1">
                    <mxGeometry y="5" width="28.39" height="10" as="geometry"/>
                </mxCell>
                <mxCell id="KlYnetJEtSsTYRGKjeyn-91" value="&lt;font style=&quot;font-size: 8px&quot;&gt;Otras formas de ingresar&lt;/font&gt;" style="text;html=1;fillColor=none;align=center;verticalAlign=middle;whiteSpace=wrap;rounded=0;fontColor=#00ADC0;fontStyle=1" parent="KlYnetJEtSsTYRGKjeyn-89" vertex="1">
                    <mxGeometry x="24.97" width="105.21" height="15" as="geometry"/>
                </mxCell>
                <mxCell id="KlYnetJEtSsTYRGKjeyn-92" value="" style="line;strokeWidth=1;html=1;strokeColor=#00ADC0;" parent="KlYnetJEtSsTYRGKjeyn-89" vertex="1">
                    <mxGeometry x="126.71000000000001" y="5" width="30" height="10" as="geometry"/>
                </mxCell>
                <mxCell id="KlYnetJEtSsTYRGKjeyn-93" style="edgeStyle=orthogonalEdgeStyle;rounded=0;orthogonalLoop=1;jettySize=auto;html=1;exitX=0.5;exitY=1;exitDx=0;exitDy=0;" parent="KlYnetJEtSsTYRGKjeyn-89" source="KlYnetJEtSsTYRGKjeyn-91" target="KlYnetJEtSsTYRGKjeyn-91" edge="1">
                    <mxGeometry x="211.61" y="305" as="geometry"/>
                </mxCell>
                <mxCell id="KlYnetJEtSsTYRGKjeyn-94" value="" style="group" parent="1" connectable="0" vertex="1">
                    <mxGeometry x="214.16" y="150" width="169.84" height="160" as="geometry"/>
                </mxCell>
                <mxCell id="KlYnetJEtSsTYRGKjeyn-95" value="" style="rounded=1;whiteSpace=wrap;html=1;shadow=0;glass=1;labelBackgroundColor=none;sketch=0;fontSize=12;fontColor=#ffffff;strokeWidth=1;opacity=50;strokeColor=none;fillColor=#7DDDD2;" parent="KlYnetJEtSsTYRGKjeyn-94" vertex="1">
                    <mxGeometry width="155.84" height="160" as="geometry"/>
                </mxCell>
                <mxCell id="KlYnetJEtSsTYRGKjeyn-96" value="" style="html=1;shadow=0;dashed=0;shape=mxgraph.bootstrap.rrect;rSize=5;align=left;spacing=15;fontSize=14;fontColor=#6C767D;labelBorderColor=none;strokeColor=none;fillColor=#FFFFFF;opacity=90;" parent="KlYnetJEtSsTYRGKjeyn-94" vertex="1">
                    <mxGeometry x="5.840000000000003" y="38" width="144" height="22" as="geometry">
                        <mxPoint x="20" y="50" as="offset"/>
                    </mxGeometry>
                </mxCell>
                <mxCell id="KlYnetJEtSsTYRGKjeyn-97" value="" style="verticalLabelPosition=bottom;html=1;verticalAlign=top;align=center;strokeColor=none;shape=mxgraph.azure.message;pointerEvents=1;fillColor=#00ADC0;" parent="KlYnetJEtSsTYRGKjeyn-94" vertex="1">
                    <mxGeometry x="12.259999999999991" y="44.120000000000005" width="16" height="11.75" as="geometry"/>
                </mxCell>
                <mxCell id="KlYnetJEtSsTYRGKjeyn-98" value="" style="html=1;shadow=0;dashed=0;shape=mxgraph.bootstrap.rrect;rSize=5;align=left;spacing=15;fontSize=14;fontColor=#6C767D;labelBorderColor=none;strokeColor=none;sketch=0;opacity=90;fillColor=#FFFFFF;" parent="KlYnetJEtSsTYRGKjeyn-94" vertex="1">
                    <mxGeometry x="5.840000000000003" y="68.5" width="144" height="22" as="geometry">
                        <mxPoint x="20" y="50" as="offset"/>
                    </mxGeometry>
                </mxCell>
                <mxCell id="KlYnetJEtSsTYRGKjeyn-99" value="" style="points=[[0,0.5,0],[0.24,0,0],[0.5,0.28,0],[0.995,0.475,0],[0.5,0.72,0],[0.24,1,0]];verticalLabelPosition=bottom;html=1;verticalAlign=top;aspect=fixed;align=center;pointerEvents=1;shape=mxgraph.cisco19.key;strokeColor=none;fillColor=#00ADC0;" parent="KlYnetJEtSsTYRGKjeyn-94" vertex="1">
                    <mxGeometry x="12.259999999999991" y="76.9" width="16" height="7.2" as="geometry"/>
                </mxCell>
                <mxCell id="KlYnetJEtSsTYRGKjeyn-100" value="Email" style="text;html=1;strokeColor=none;fillColor=none;align=center;verticalAlign=middle;whiteSpace=wrap;rounded=0;fontSize=9;labelBackgroundColor=none;fontColor=#00ADC0;" parent="KlYnetJEtSsTYRGKjeyn-94" vertex="1">
                    <mxGeometry x="28" y="40" width="40.52" height="20" as="geometry"/>
                </mxCell>
                <mxCell id="KlYnetJEtSsTYRGKjeyn-101" value="Contraseña" style="text;html=1;strokeColor=none;fillColor=none;align=center;verticalAlign=middle;whiteSpace=wrap;rounded=0;fontSize=9;fontColor=#00ADC0;" parent="KlYnetJEtSsTYRGKjeyn-94" vertex="1">
                    <mxGeometry x="35" y="69.5" width="50" height="20" as="geometry"/>
                </mxCell>
                <mxCell id="KlYnetJEtSsTYRGKjeyn-102" value="&lt;font style=&quot;font-size: 6px&quot;&gt;¿Olvidó su contraseña?&lt;/font&gt;" style="text;html=1;strokeColor=none;fillColor=none;align=center;verticalAlign=middle;whiteSpace=wrap;rounded=0;fontStyle=1;fontColor=#00ADC0;" parent="KlYnetJEtSsTYRGKjeyn-94" vertex="1">
                    <mxGeometry x="76.04999999999998" y="89.5" width="74" height="14.25" as="geometry"/>
                </mxCell>
                <mxCell id="KlYnetJEtSsTYRGKjeyn-103" value="Login" style="shadow=0;dashed=0;shape=mxgraph.bootstrap.rrect;rSize=5;strokeWidth=1;whiteSpace=wrap;align=center;verticalAlign=middle;spacingLeft=0;fontStyle=0;fontSize=12;spacing=5;labelBorderColor=none;labelBackgroundColor=none;labelBorderRadius=15px;html=1;sketch=0;gradientDirection=east;fillColor=#00ADC0;fontColor=#FEFEFE;strokeColor=none;" parent="KlYnetJEtSsTYRGKjeyn-94" vertex="1">
                    <mxGeometry x="39.05000000000001" y="110" width="77.2" height="20" as="geometry"/>
                </mxCell>
                <mxCell id="KlYnetJEtSsTYRGKjeyn-104" value="&lt;font style=&quot;font-size: 7px&quot;&gt;¿Primera vez? &lt;b&gt;Registrese&lt;/b&gt;&lt;/font&gt;" style="text;html=1;strokeColor=none;fillColor=none;align=center;verticalAlign=middle;whiteSpace=wrap;rounded=0;fontColor=#00ADC0;" parent="KlYnetJEtSsTYRGKjeyn-94" vertex="1">
                    <mxGeometry x="32.24000000000001" y="135" width="94.34" height="14.25" as="geometry"/>
                </mxCell>
                <mxCell id="KlYnetJEtSsTYRGKjeyn-105" value="" style="group;fontStyle=1" parent="KlYnetJEtSsTYRGKjeyn-94" connectable="0" vertex="1">
                    <mxGeometry x="3.1500000000000057" y="-25" width="149.00000000000003" height="63" as="geometry"/>
                </mxCell>
                <mxCell id="KlYnetJEtSsTYRGKjeyn-106" value="" style="shape=image;html=1;verticalAlign=top;verticalLabelPosition=bottom;labelBackgroundColor=#ffffff;imageAspect=0;aspect=fixed;image=https://cdn1.iconfinder.com/data/icons/osman01/500/gloval_logo_-128.png;" parent="KlYnetJEtSsTYRGKjeyn-105" vertex="1">
                    <mxGeometry x="54.5" y="20" width="40" height="40" as="geometry"/>
                </mxCell>
                <mxCell id="KlYnetJEtSsTYRGKjeyn-108" value="" style="group" parent="1" connectable="0" vertex="1">
                    <mxGeometry x="199.61" y="70.83" width="180.39" height="44" as="geometry"/>
                </mxCell>
                <mxCell id="KlYnetJEtSsTYRGKjeyn-109" value="" style="shape=image;html=1;verticalLabelPosition=bottom;verticalAlign=top;imageAspect=0;image=data:image/png,iVBORw0KGgoAAAANSUhEUgAAA2EAAAC8CAIAAAB+JjEEAAAgAElEQVR4Ae2dCXxU1fXHI4J7tS61ImiCqWu1CO7rNC51qbWuY9S2Wtz+E9u6VK2duC/ViVDXZrppCBNAQZgIIuioAYGHCsoooDIGcZIJCYEXyDYhy8z9fyY/OLnc9+bNy0KTCSeffOh9d+67977vm8qPc+45J0PwDxNgAkyACTABJsAEmAAT2J5AxvaXfMUEmAATYAJMgAkwASbABARrRP4SMAEmwASYABNgAkyACagEWCOqRPiaCTABJsAEmAATYAJMgDUifweYABNgAkyACTABJsAEVAKsEVUifM0EmAATYAJMgAkwASbAGpG/A0yACTABJsAEmAATYAIqAdaIKhG+ZgJMgAkwASbABJgAE2CNyN8BJsAEmAATYAJMgAkwAZUAa0SVCF8zASbABJgAE2ACTIAJsEbk7wATYAJMgAkwASbABJiASoA1okqEr5kAE2ACTIAJMAEmwARYI/J3gAkwASbABJgAE2ACTEAlwBpRJcLXTIAJMAEmwASYABNgAqwR+TvABJgAE2ACTIAJMAEmoBJgjagS4WsmwASYABNgAkyACTAB1oj8HWACTIAJMAEmwASYABNQCbBGVInwNRNgAkyACTABJsAEmABrRP4OMAEmwASYABNgAkyACagEWCOqRPiaCTABJsAEmAATYAJMgDUifweYABNgAkyACTABJsAEVAKsEVUifM0EmAATYAJMgAkwASbAGpG/A0yACTABJsAEmAATYAIqAdaIKhG+ZgJMgAkwASbABJgAE2CNyN8BJsAEmAATYAJMgAkwAZUAa0SVCF8zASbABJgAE2ACTIAJsEbk7wATYAJMgAkwASbABJiASoA1okqEr5kAE2ACTIAJMAEmwARYI/J3gAkwASbABJgAE2ACTEAlwBpRJcLXTIAJMAEmwASYABNgAqwR+TvABJgAE2ACTIAJMAEmoBJgjagS4WsmwASYABNgAkyACTAB1oj8HWACTIAJMAEmwASYABNQCbBGVInwNRNgAkyACTABJsAEmABrRP4OMAEmwASYABNgAkyACagEWCOqRPiaCTABJsAEmAATYAJMgDUifweYABNgAkyACTABJsAEVAKsEVUifM0EmAATYAJMgAkwASbAGpG/A0yACTABJsAEmAATYAIqAdaIKhG+ZgJMgAkwASbABJgAE2CN2O3vQDQaDYVCgUCg1O/Pd7vz3e48lys7M8v4i08LPJ5Sv1/TtFAo1O3F+AYmwASYABNgAkyACfQHAdaItqhHIpFAIFDg8eQ6nblOpyz7IpGIPIWu66FtP5FIBM1AIFDi8+W73TkOR57L5S30apqm67p8I7eZABNgAkyACQwmAk3t8c/11te/a37l64Znv6x/6PPNjy7fPH5l/b9WN75VEV1d394Wiw+m5x18z8Ia0eqdBoNBb6E31+nMc7lKfL5gMBiNRumGSCSS43BkZ2bhT2+hNxqNBgIBGBRznc7szKxAIEDj0dB1XdM0mrbU71dUpjKeL5kAE2ACTIAJpAuB9S0dvvKmWxbpo6ZXZRSFrX+HFodPmlV9/9JNcyMtLR2sFwfcS2aNaPJKdF0v8flyHI58tzsQCOi6Ho1GTc1+EIJwOkMRhkIhaEQhRCgU0jRNXqDU78/OzCrweILBoBAiEomU+HzQoIFAQBag8l3cZgJMgAkwASYwkAm0dMTfWNt8aaB214lduvCQ1yOOuTW3L9YfXb55wsqGf61uhEEx/7NNNy7YOHZW9T4lFSQid59U4ZhbM31t80B+zJ1tb6wRt3vjwWAw3+3OdTpL/X5d13EJS2GOw0EGP6hGIYS30JudmVXq95P4I42Y73aX+HxCiGg0ChOjEALDcFeu0wndGen88RZ6cxwOb6HXVIxut0u+YAJMgAkwASYwMAg0tcefX9VwyOsRqL0flFRev2BD0bdN3ze2m24w2hH/rrG9qrlDCBGLiwU1W46csZ3FcZ+Sioc+38xeaFN6/+NO1ohbgWualut05rvdsuWvxOeDQIxEIrAO6p0/OFZImg/HE7Mzs/LdbtKIcE/TmFK/XwiB6JZgMIjZQqFQNBrNzszKc7kikUg0Gi31+3OdTlaK/+P/G/ByTIAJMAEm0F0CcSH+G2o8aGol1OE579RMXtPU3J7UZVwd7fjdRxt3K95qOzxsWiT/s02XvV9LpkS5sZev4tVQY3e3xOP7lgBrxIRHOM/lgrzTNK3A45EPEeKsYTAYLPB46Hxhic8HKYnTh/luNxkUdV0nXzMsiPApw6CIj/BnnssVjUY1TSO9qGlaic+HA4tsU+zbLzrPxgSYABNgAn1I4Iu6tjPn1EDVXfTe+iW1W6wnr452ZHWeUDxwSuWlgdrT3q6WFWGy9rEz11U0JSyO/NMvBHZqjajrOkKVcToQJj0yHOJ9QPyV+HxwE8McSK8KVsMchwMHExHUDM1X6vdDXyJLTqnfj6ny3W5MBZWZ73bjhCI817lOJzzasCnmOBzKirQ0N5gAE2ACTIAJ9AuB/6xu3GNSwhyY/WbVvEiLnT38ftHGjKLwrYv1lo54eyxxhz8cHTIxfMCUyle+biirbvn36kZT4TisuMJX3mRnCR7T5wR2Xo0YCASMCgyKTZaJsPPhhCKOHsrvAJ/CDAmhqWka0iLCg1zq94dCIcg+KEjk0MFUZHRExDTND/NkgcdTVVUFFcu5FWXs3GYCTIAJMIF+IbClI/6bjxJqL6Mo/MDSTfaDkQ+cUnnUjKqOuHhw2aahxWHH3JpoR/wOTZ9TGW1uj78aaiwub2qLxa9fsMHUpnjjgo398rw7+aI7o0bUdR0yzhgdUuLzFXg8sP/BFywbF3McDuMtxi8QXMyk6nDoUB6GWOkSnw/HE3OdThxbzHE4ENoMqZrjcOQ4HIFAIBgM5jgciICR5+E2E2ACTIAJMIH/GYHNrbGzOv3L+0+unFXRlQnOzgYyisJ3LqnTt8RIAs6LtKxpSJxeHLdIR2fBivqq5o5dOgXoECk+Gp+eOaeGA1nsoO7DMTudRoTeQtiy0WpY6vfDKCgfGYRZEScF7aBHxuwSnw/qMBqNFng8FBON44nyccZcpzMUCsFUKYSAERF6FIcgo50/BR5PnstlR6Ta2SSPYQJMgAkwASZgn8Dm1thJsxKHCI94s+rbevOYZYvZfjS18pqyDdGOOGJWDp4aaWzbGt1y2LStMdG3Lk6UlvjtRxuDemtciKrmjl8GtotoOc6/jmWiBeQ+/2jn0og4IxiJRCiyuNTvhw6DDQ/6rMTnI6EWDAZleWfnBQQCAbJBIkI5EonkOp1KxDSmJZ2KW3RdhxUTUdLBYBABNIiSnvP22zkOB5zadnbCY5gAE2ACTIAJ9J5Ac3v81NkJgXhC6bp10Z4EkTjLNgwtDpc3tN++OGE1vEHyHSP3zamzq2tbEgcV22Pio5ot//ymcU1De1N7fOQ2BUnWxN4/Ds9gk8DOohHh/81zuaqqqsgsR+cOqSYKYlAg5pSqKjaBwmvsLfRiPBkRo9EoZUwMBoMIphZCIGKa/NGQjBCU5HqmzDs42pjjcMhy0/7GeCQTYAJMgAkwge4SiAvx6w8S9rwjZ1RBxtmZYUNL7F+rGy97vzZzetXBUyMj3kgYC0+dXb2pNfZ4cPPl79dSlpxXvm7IKAqv2tSGaRfUbIGj+cApla2x+P1LN5F7Go3ffMRnE+28gT4Ys1NoxGg0iirJoVAIJ/xADoIMORGR1waGxl4qsFK/Xzb1RSKRaW+8gRVhtoxEIohEgeMY0S0o7gIfN26HoTEajULCZmdmhUKhUr9/5cqVeJw+eP88BRNgAkwgDQnoW2Izvm9+bkX9Xz/bdNcndU8ENy/d0Ko8x+bW2KbO382tnWG0ysc78rI9JrD0ptYYKaEdueCOnfuZL+szisLDX498lyQttrL8qk1tNy/cuHtn4HNGUfjgqZEz59QcPXMdFN6579QYheYba5vXbpv82rKtYSu7Tgy3dMSf/iKxuvLLkc4K8x10Ofg1IglEcuNSxZRoNArHLsQijIi9L4hX6ve/9uqrBR4PpkIWG5oW6Q8R0RwMBnVdRwJtvGCIVJyJzHO5hBCo+4LoFmjcHIejvLy8b2ViJBJBHI/xz2652imsW5nHNODGYlHldtNLJCSi2KDe/D8EVl7TVQo8nt7MzPcyASbQtwQa2mJ3aPqwbXmYSTo8unyzstB+k7fmdt5vcqXy0Y6+LKtuoY3dtDC9jV5a7ZZdJ4Z3nRhevD5FBkQhxLKNrbA4ZhSFz32n5t+rG1FPBcDv22YR/PHrkdPerh79VuL3zDk1NyzY+MKqBnJhIyzm6JnrpqxJ1OW74N31BJMaw4orIp2VWnb0q9zJ5x/kGpEEIl4zLsnFDFcvTHe9tB3KX6MCjwdyM8/lgoKBGCLJqGkaRAnqNSNdNolIuMWzM7M0TUNKRUS0wNyY43BgTuXR5A30oI0NA4XyZ7dEGFI/KjPgbKVxVxaLGmew6Ol9vnHKZG66SrcIGB+Te5gAE+grAls64qe/vTVvM8kFNFgj9hVkeZ6WjvgRbyYK5T3zZb3cr7RjcTGnMnphp5j7QUnlHZq+om6r41geGdRblbcmX+4xqeKx5ZtbY/GCFfVnzalp6wxOeX9dl9qWB2cUhY+euU6enNs7gsBg1oikoiKRCJVOMcpEhBX3FdxIJILDiIqwgH9ZLgONYVCBOQ6H0V6FSoCwwEG7kAU0GAyW+v1VVVV9ZU20kGvKg1iD6heNSMKux/nGYaaleZQGnS61fnb+lAkwgR1NwLNiO7fjsOKKk2dX/+r9Wsfcmpe+alBWZzuiAqQHl48t35xRFD5rTo1pfb01De0zvm/+08d1h02L7FKUSHlYXN7UtK0W39rG9me+rD9v3vrsN6vOfadm2trmpRusNCIk4NhZ1eUN7WXVibzc39a3Hzx1a8izIhBxycX6evBOu3XLoNWIJBCRK1sOK5ZlonxwsFvgkg0OBoMwSZomqUHmnTyXK9fpLPB4ELZMZQCVOaPRaInPhzrOUC2hUAi+aVzmOp1lZWVUGFq5vVuXg0MjZmdmmTq1rVFQJnNFGtIlBQ9Zz8OfMgEmsKMJHOffeqYNwoW8k6brskY0xWK/c01D++6TKnadGDY1Cn62sfWkWdUnz66+ccHG/4Yaa7YFO29oiRV+3Qh/sSLskuXHVoaNeGPrwccbF2xN1q0MoMu9fRWcCsf+C+3ByEGrEb2FXph/sjOz9M4f5D4kAQfXbbcO29nhC7eyaTJFmBIR0Yz0h6jCgtOQFuIGAg47R/wKjjCW+v25TieCWnrpKx80GhGRPXbeFI2BvZYUoWmjl3hpLW4wASbQYwK1LV3pl4cWhytTlfFljdhj1LjxDi2RpOZPH9fZmaepPT5lTfOlgdqhxYn4kh9OrrzovfW/er9WyVxD8s66cezMdS0d8bmRpI5muv3BZZvsbI/H9IzA4NSIkIM44ZfjcECE0d/98EjCPtczatZ3lfr9+W63UX2SZTESicA0FQqFkHA73+0u8HiSCREUhhFCUOm/aDSKhDio0YIJjSta71P+dDBpxHy3W360lG1KSEnfEGOju3OmXJQHMAEm0F0CS2q3kDI4552alLezRkyJyGJAVXPHsOKKPSZVWBtr22LxdyLRGxZs3NuXKN9Mv3cu2aos22LxKzrz5tBHNhsPf54IQjrnHfPjpzTJPiUVFk/BH/WSwCDUiAj+hSCT41U1TdN1ncqZ9BJcstsRcZLShe0t9CKiBQm9Q6EQkiYmmxb9+W43Um1DFMo2M3ixKfDFeh7jpwNNIyKy2zTQ2I6ks8+BsqkbdaHSQxLfSI97mAAT+B8QeLsySsrgts6CHNaLPvNl/aPLNz+6fLN1vIX1JD37dBDENf9lWSIroWtJovBJsp8NLbETSru8//R2MorCcjT3x7WpjyHK96K9b0llQ1tsVkXXSzeOQc+LhqOoyTbM/d0lMNg0ItLZINe0IhSQgJDCPrpLKuX4QCCQ73Z7C70FHg+FyCS7CwlxsjOzKF12nsuFOs50C85NogQfDJOapuW5XJCD2ZlZCHPxFnphgCzx+Xps7hpoGtE6UEbXdcT6KDKOLq1vJ8JCCFTZoRstGj0OiJGX4zYTYAI9JuAPd8mFuz6x5QDt8Vq9vDHdNWIsLg7tTHm9OlXNvY1bYjeYnRo8cEpl3ba0lN/Wt2cUJbLnXFO24cApWxMSJRN8cn/Rt00dcfGjqSluOWpGVS/fF9+ejMBg04gFHk+Jz0epTCjagCRFSgtfMlIW/cFgMM/lkj3FmqYhXXap369IVXmeaDSKhII4HIkagDQgEAhQsLOmaXgWisDF+UXUDITWjEQiEJo0g/1GemlEPFeyGGqkQ7fz7CmjVWTJCLe+nWl5DBNgAjuCAGvEHUHVdM73qhIHAU97u9r0U2OnPxz98etqAPLPSte9sbZ5ud5a+HVjRlG48OtGIcTXm9sot7YsB03b1y/YIIS4eWGKyJVdisL6lv91mnQjhEHZM6g0IrQaDuqhDWNbqd8/Z86ct956a0cIRATHKEIQtfVwxBDeYetvj67rqPKMYGcMLvH5ZHsYjIh1dXWhUKiuri47MysSiUAneQu9yJ4DH3QPvKLpqBGj0ais4eS2TZsfKWz5XqTPVHpwuSO+P9ZfDP6UCTABIsAakVDs6Mb/dUar/KNT1VmsdeeSupy56+dXJ3JrJzMokvijc402o5szisLH+RMZECExaR7TRv5nHLli8aJ6/tHg0YjkZYalLc/lkt2ISLPcc05J7tQ6f+jDaDQaCAQ0TQsGg95CLzScnHaHRiZr6LpOATfeQq+sEVEJmvzL2ZlZ0WgUx+lync4Sny/H4cCYHnic01EjogiNqZiTbbrJUAshqMihMkkyCyUnSrSAyR8xgR1NYDBpxI1bYmsb26uaO9r7yP7V2BZf29i+trGdPLy9eR0/mZHIm03F8ZJNRSVV/vBx3ZaORApFo0Hx2JnrfOVNb37f3LotS82TwUTORTu/e05KxKMsWt8Vq5TsrhPfsmvyTPYs3G9KYPBoxBKfD+5XTdPkv/t3nO2H0mUT2Wg0Gtr2g+OJpX6/t9Br06xF8yAyGplxqBMNb6E3EAjAdY7lUMUEtVswJtfp7O5Tp6lGJM+7IvIUba0wxGWyR0YRRWVCulQMxqYzcycTsCbQ0NBYb/jZsiV1oTNM29TUZLi73vjN7OjoMA6z7mloSHgD++Snvb3ddK22NpPyGxYrTl7TVPTt1t8/flxHEuHCd9dTPxrLdbVeM907eU1TsiWqox00z8IaW6/Azi3JziMuWr/l+gUb5AN2w4orTn+7ZvzK+h4UlW7piBeXN/36g1rFzztkYsICd9cndV+YFTtJhoL6K5s6MorCmdNTH/JbWJN4nD066zKfMrs63NQOg6JsKfywMxs2TS6EuGVRIqXOD7dVSqR3amygiGJ5Q+I4o/Uv1KS8Crf7hMAg0YioxSz/V5JMQX1bRoWgI35ZXhG1TzRNg0rECcI8lwsZs+lGmw2UaTaKSwSylJeX5zgcpX4/HlMJkUHtPpsLYVgywSSHTtuZkLCTqELD1LTZy0WT+ZphT025WzqiqmwVNkjZCC0PsGmhTLk6D9iZCZxy2unDR4xUfsdPmGCTyVVXX6PcO3zEyLvuvke5feXKlcZhdnrGnnzKtdfl/v35F77+5htlTvuX3n/+y3Sthx951P4kQgjKX2MtETKKwj2rxZdMzFls0s4txjGtsfi4Tm2U7EF+NLWyNBy1WFf5aHZF9LBp6hFA4+Q3LdxIhU+UGZJdvvl9sxKYnGwk+je3xl4NNV7+fu3h06oWbavpPG1t80GdsSbjFumdFsatc8yLtOxWXPHcikRlv79+lgidtvg9eGpECLG2MbVGzCgKb2jpI5Os9dPuZJ8OEo2Y73aX+v0wsNFpPMRwZGdm7QgXYYHHQwsJIaLRKMWXCCECgQC0KcoA2slro3zx4Do3lVZ4rrKyMpJfVVVVFN2MeQBEmdPispdyjWb+X2rEZCLPKKxpe9QAXln8oU1BThT2pIzJc7loEm4wgZ4RGOAaUdZ2111//Zo1a3rwmD/POU+eh9o/PeFnbe0Ja5PNn8GhEeNCXPnBBgsxRB/9a7UtU66dI3o05+lv10RlmZYK/VNfJAoejl9pVaAZc5w0q/rEt6pDnbHPaxvbyxvav2vserm1LbGrP0w89VEzqu5busn92abz5q3PKAr/oKQS29nSEd/f0pr487nrhRB2KvhlFIVf/6451ZPx590mMBg0Isxm+Fs/GAxSKmld12F1k6193SZkdgNK5MmflPr9ZGEyjWKRB9ts46yh6eY1TSvx+ZBJWwiBvI+ySEWSSNN7TVdPL42IijWKesOlnQghykZunIH+OZHMSImyPaYMuZMJ2CSQRhpx+IiRRx1zzGeff27z0TAs+MUXJAqNjXnz3rU/2wml6zKnV+FXdtH+oKSS+tF4flVP6jUbDX4p92bnFmXMv1cnAnszisIHTKl86PPNH9VsCdW3f7O57cPqlns+rZOzTw+ZGDY6Z5UtBapahkzsMr/t7au4+5O6uZGWrza3rW1s12q3/H1lw9Ezt0tbeM+n3UgV9LuPEnHEb1WkMGpGO+K7dm7jz58m4kVW17efPLt6l6LwqOlV4xbpX2/eeqhgUnnTnp3O6IyicM7c9S+sapAra/98bkI1Jvt1d0aiTFmTsGum/L17YKdDUl5iulwOBo2Y73Zrmoas1JQ0G3WNu3ssz85rQ5FleSSUKHpwXlD+tDdtC3Nggccjn7qLRqO6rqNwC84j2knTSHsbaBrRIoe2UdhRT67TSf9CoEczbSQ7yCh/YZLZKS2qJpquxZ1MQCGQXhpx+IiRPzvxxE2buhE36s7PN0pD6hl3y60KEJuX3Y1ZIRskjrWZrqKIOdMxSqedW+Qxv/1o4+HTEiEgp86upqLG8pzlDe3ZbyYG4HfU9CoK75CHod0RFwgoweBTZ1dXNXcYh7XG4nLKmGHFFetbTIYZbxRCQLeRyDMdI4T4dMPWzNinzK5eUrtFVrpK3px3OzPp/HBypfG5kqXgxtOt2pQQmnlLEucXU/5eGqhNtlXu7zGBtNeIdBIRQiHH4chxOPC3eL7bbfNomn18yN6sjCcjouLwVYb14NKiegoK9CHRDz07VR2EgrSf0m+gaUSSffYbiDWxAzlZWkTl25KsBIsyzM6KPIYJyATSTiMOHzHyWY9HfgSLdmtr6zHH/ZQUobFxeGZWXV03zFq0VppqROi/g6dGLFRaqL5d1lj//Capx/ktqe7IAVMqLebsiItjJWvif0NJ5yTCaJz4VnVGUdhUesoj//nNVuOoqXrby1fR3J6IdMbPJe/V7lIU1mq3iwqyLsfsmJsot9geE8MNmRdNV7RTnnHbdvh/7RJIe42IqGFE+JLhB/EcuU6nEsxhl0rycaZCBKcG+1wgYhcWT4EjmCU+H0ybyO+D9H6kkskDnvyZEp+ku0bEPwzkE6IWz1vi85lKT6OBMFndP9ncaLEQf8QETAn0r0a8/Iorbx43Tvm94cbfXHTJJZmjjjBKOvScdsYZps9i7Hxr1qxkk1D/a68VGW9M2ZOmGhGCJuVBw8eWd2WEOb40kRfQ9OcmKaH0375IcWTQK8m4WxZZVdWT14Kdsr4tRQiIdQhORlH4oc6Cy5j58c58N7sVV+Qt0aevbX5jbfO4RfrQ4vAl79V+Udd21yddEevAtevE8GcbE4Hq09bacjRnFIU5/Y38Evuqnd4aEWcQYVEDEblKm30rmk2awWDQKLlQUqX3ApEOFyqbsa6wR8fvyDYmFxtEERdlQtPLdNeIZEm1E7CSTPkZ/dT0rw5FU8pHP015cicTsCDQvxpxsaYl21s0Gv3HPwoPz8wiMSc3bBr/bvzNb+W7TNsXX3Jpsj1Y9KevRtx/cmVLqqiR2pbY0OIujyrcrEYasqM5Zf7CVZvayOR23rxE/Iedn8zpCcd3lw0wyT3H+bc78kgLyQ3XEh1aM9LcIZsD9/ZV7FtSuZevYlNnvb6Gtu2ePaMo7OkMfG6NxY/qzNQoz5msfezMpMI6yRNwd2oC6a0RNU1DLRMEL1OIBiI25ON6qUnYGEEBDTSWoo+N8oLG2G/ku930CEKISCRS4vPluVwWk0OhIs8OVeSTV8xxOOxY1waHRoSSM74mGUgyD7LpvyiSDUYCc3labjMB+wQGrEbEI/zjH4Wmwm7VqlUpn7GmpmbEYYeb3q50rl4dSjmbMiB9NeJNCzcqz2J6+Yt3uwI4kB3GOGyXbSfzDppaafxU6dnQEiNFNcZ2lmnEu0C9KRPSZXU0kUPRzu8JpeuQfGdLRxxxzWfNqWlqj3fEhZzSUlaQdy7ZehThoc+7bKsp17L/gPQU3EhJIL01IgQiapPkOByynJLFVkoKdgageooystTvT+Z2jEQi3d0Dpd1GDm2yTSIeRVkag3HmElKGbIrwHee5XCj3YsfhPpg0YnZmloU1MVniw2SUkhkdk41XXhNfMgEjgQGuEXVdV/QcLleuXGl8FqXn5VdeMd572eW/NnY++dRTyr0pL9NXIxZ9mzSJt/zUz36ZSDqD3ys/SJQqVn42tXZpvpNmpa4som/pGj/atkY8aVbiPGJFk1WMy8Rvm2irKRsTVm4NOT95dmLma8rUR9vUutWOOGRimBzob6xtlsO3U66C84sKMb7sJYE01oiw4SHzCzIU5rlcOQ7HDvrL25iqEHY+ixdgbdAy3oj4aNn8qes6/MVGUyJCuXEkEfZUSEmkZoRFLd/tDoVCdlL6DTSNKEMwBRUMBilAR3EE49LUekoeeeMtpuOFEMkOL9qhatw59zABIcQA14hCCNODievWpfblnX2uQ5GDmaOOWLt27WEG//WJY8Z2dFipEONXJX014srO+FzjEyk9H6xrISU0yqzMSXW0wzG3Br932Uj1Imeftq8Rz+/MYvilZZyXcUQAACAASURBVI2WGxck8uPY/L15mxl1xBuJpN+7FIVfC20nmv+yLJFM+4TSdQhq6YiLBzt7bM6PYb/+gOOalS9UH1ymsUaEMAoEAtmZWUiVIic06QM20hSmcjAQCFhYCnEy0lrrSCtsbXoLvSU+Hwqo4E/YKXVdV2QiJHKJz4eFcCiTpA/iV3B60o67Ob00InFLdl4wOzPLGICC3OaESG4g4fm2Morb/S++YPJgaitvhHbFDSZgTWCAa8T6hgZF5yH9jfVDCSGWffaZ8cZbb7tdCHH9DTcaP/qwrCzlnPKANNWIu04Mt20rVSw/jrFd1dzlwN2lKJzyCKNxBqVnsVTp2L5GvHVxItfMm99bpaR+8/tmZ9mGi9/rco5b6LnHg5uxMcpGlFEUPvedmr99Uf+3L+rhYb/n0zpAao3FL3+/1mK2ZB89uKwb6ZkUUHyZjEAaa0S4Yk2NSX0eUhAKhewLAtRxxunAlBoRtfvo9SC/I4K1S/1+BKzkOp15LheOHtLIQCAQCoWinT/eQm9dXR0imr2FXtn9jZOaxlAbmgeNNNWIQgi5NjepN8BXntFisHyj/XZ37cTG/XDPzklggGvEoonFRj33+BNPpHxZ993/gPHGOe+8I4SYMmWq8aP/y8tLOac8IE014qFvJArK2fzZrbiCNBDql9i80XTY/Uu7it3Z14jjVyZc3k9uE3amM6MzLsRevq4N087lxu6TKii2JlnxQHmMHLgtz5Oy/XZliqTfFg/CHyUjkMYaEeYxo4vQ9PResue32W9xvk2eAX5h2PB0XQ8EAimVZYnPBx1Jwg4Sk2xZeEDU+otEIlB7Suk/BFzLdk0kA8LZOxhc5X0a232lEU0le3ZmltFT31cJd5JV/8vOzFIe0+IZ7etCeSQnSlQI86VNAgNZI74XCIzK/omi504YfeLGjSmiLlpaWo465hjlxqOOOaa1NZHBpL6h4fCsUcqnWUdk1zeoxVEsGKapRhxr4+AgPbWsoj6q2S6bII2x02huj49fWS+f57OvEd+ujGYUha+br54aNF3X1On8U/86pA0fNb1qjiTdcNKR1N7pb9dsbo1VNXfMr976pJtbY/KeaaSdRmNbylBs0yfgTisC6aoRI5EIimogfaBRKVo9dPc/oyzZpreiKDNZ+8gBbWFnojGYEOZDmtxUUcGtDBNpKBSCpgwGg5jKW+iNRCIwPco+d9SOS6lmLPRTShskbVsI8b/XiBY7V4y4Fo5pWfl1q90tODIobu/MBPpXI9519z3jJ0xQfp951nP/A38574ILFRmHWnyffvppyvc10+833nv3vffSjb+76WbjAF9JCQ1I2UhTjditWAo5ocw7kW4bxqqaO14NNV794QY5IzcEln2NqG+J7VIUPmhqpR3NFYuLrM5cObKMO78zz45RtMmlXzKKwoe8HmnfPgnjJ9tqt8iz2WnvW5I6yjvlF4wHGAmkq0akiA36Gz3X6YSLtvd/bSOsON/tzne7UXyZVFe+203nBb2F3gKPp8DjwcgCj4fOEQaDwVAoZKERccARwzRNQ/U8ej1a5w9doqHreonPB6UYCoWwSaxOpkeikZ2ZRaVWUM86pYyW75Xbpgf7lL3RZbIoYFMU9uUdzW9s2JwExzfl5+qTdp+fajA+IPcMPgL9qxGNQs2i58KLLv5m9Wo7r8CZe71xno8++ojunTFzpnHA5VdcSQNSNtJUI178nt3EhEII1DiBKvKHbWnEtlh8fvWWB5dtGt1ZH0VWVMh0iB77GpG2scIybIXe13XzN8iLIirlcz1hP1Z+fOVqNDRFMWPkHZqtsnvKchlF4bPmJIqy8E+fE0hXjVji8wUCgWAwWOr3F3g8sjQxlSN9Ds7OhNbWR4RQQFYqFq9EhUqXS7E1CiEKPB7YLNEu8HjyXC78Wer3w7YKIDiQV+Lz5TgcwWCwwOMhX3aynXfrYJ/pJBZyzdRZbzHeCMR0RYswlOzMLHkSTdP6RBQaJ0kpvpPtnPt3WgLpohEPzxo14e/P19am9jlGIpFDRx6mSEAlcrmpqSnriGxlzPARI7/77jub34Q01Yjdird1zK0hATTRMmNOe0yUhqPXlm34QUkl3UKNXYrCV3xQ+2VdVw7tbmlEHGR8KlUdF7y42zpjXGhpNIa/Hnk11Lh4/ZYngpvHvFWNDOINbbF9StTzi7cu1md83/zfUOOFUnpIZbaUl3/fll7H5neJh9kkkK4aEVld5L+edV0PBoN5LtcOyn1jE6gyDJY/HC7UNC3l8US63fQQoexuxsgSnw9+anpwuYIzHQSEEqXJTRsWrlibSJM5mrMzs0wfvE80YjJpq5xHJEuwUeT1sscmHFPm3LlzEkgXjQg9d+TRx6Qsnff8Cy8axd8jjz6mvN9bbr3NOMxTUKAMS3aZphrxNx+lOMopP6+sES2yKr5X1XKMVIuZJNQekyrOn7f+uRX1axrahRByPsVuacRlG1szisJHzaiS95asXbJGtQ7SftD41ftdWWlsJrUxFb7KtHQ5ZGK41V7keLJH4P5kBNJVI+Y4HFVVVajLDI9tsifs936k+O6BdTPX6VTMb6FQCE52eihMCyMZaknnOBywHUYiETKkhUKhlF5Ra0tbSg++hcQ0LWHS+5iVaDRqc1GLtIgpzauEOlny7WRPRzdygwkoBNJLI0LVPfHkk8pT0GU8Hj/jrLON4m95MEhj0Jg1e7Zx2CmnnR6LbX8qTblt22WaasQe2xGTacS/r2xQAjuOmlH1wNJNH1a3KOlyeqwRhRDHdmrQJbWp42biQsimxAOmVJ7+do2c5kYOkW5sixvPL5Lao8Z/Vje+9FUDXVo3TpmdOp34ti8R/2/3CKSrRoQnMdfplG1XOQ5Htw7PdQ9V70b3YGPIzKeIM5y5JAMqRCROHOa5XMiSKDupo9Eo7JemcTDKM8kue6N1Ld/tphAZuhFZvi2MeRZVTyzsiMjsQ8HdSiMYDMKNbtwk9cjyOlke7G7JOwsNTVqcsHCDCVgQ6F+NeOtttz/8yKPGX3d+/i233jb6xDFGGYcev7/U9KGWfPyx8ZYzzz7HOLilpSX7yKOMgxctXmwcbOxJU414yXtdVjTjQyk9YztrnEASzQybZCh8/btmWTAdPXPdO5FosuCS3mjE51YkMuAYa6IoG6bL2pbYt/XtDW1b5T4ScWOrSsbsz/VWY0iN/FCnzK5GLIv7s67cPfIApW3z4CZtlRv2CaSlRgyFQlA80Wi01O8nZVPq98vyyD6F/8FIuIm7tVA0GlUO1QkhvIVeCCZMVer3650/iJtBpRa0Zd0mhFB8r6Y7scgjQ9oLjXy3W55f+VS+zHE4kr0UC40oz9CDtpI2nL4hylTdEu54HcoMuOyBkdiUP3fuJAT6VyMu1jQLzh0dHVOnvm5MfzN8xMgTx57U1p7wYCo/d997r1H2jZ8wQRmGyztcLuPgu+6+x3Sw0pmmGrFbcc3Hl64jAWRM+LepNXbglK7Th5e9XxvFQT+F1LbL3mjEza2x/SZX7lIUXmWvSMy2Nbf+709mVNGDvBpqVD5dvH7LAdKD0MiMznjqb+u3fs3aY8IYiCMPzigK//j1bqSfVLbBlykJpLFGhPGM/pIm01rKZ+6XAYFAINkOg50/CL9Q9oaay3In5bhBJ/nZ893uUr9/5cqVsoghO6tNjYhYGXmG3rctjuvtOI0oL4pi1qYPYnpKUqattJO5my10sDIDXzKBZLX4nhs/3iacy6+40o7MWrlypXHY8BEjrTUi9mAagzx8xMh3331P2WRzc/NPjjrauFAya+W11+UaB2cfeVRT03bF2ZRVcJmmGvHk7nhC5UhkyhpINOSCzpnTq4zJZWgkGr3RiEKIhz7f3C1TIq0e7YjvOrGrUp8SvIxh3ze258xVy7SMml6lBFNPX7ud3VQRiBlF4f+sVgUobYMbvSeQrhoRNevwF3+Ow0F5Z7plGeoZPm+hF4IsEAhQVLJ1IRYcScRysg+UNgDLqPEjeJZpmBAC8cs0kmyK2BJUF+qvIBkQqUPTQGl5ZrQjkUgyq5upzLLutDaw7SCNqCyaTNh1y9EMOBbuZuVIgBEs9zABIuDIyTHqpIcfeZQGWDfOv/AXxtvzH3pYuas3GjEej5saOx997HFllWnTpxs304OeadOnKzMbL9NUIx4+zVbkB553j0ldYb9fb25TIMg5qF/5OnX68V5qRH3LVrPle1Utyk6sLxfWbJHFXG7ydNyzK6I3Lth48uzqX7y7fsLKhqZ21W3eGovvKTGRp80oCh88lY2I1q+it5+mpUYkcQYLHGUlzHO5FH3QWzyG+5G8WrEbQaihVh5tRlariD7GZMmsiST75DWN8chYiwJQKJk21CRUF1LkoIILrGjIbm3z2FxfycSU72JHaEQFo0W0imxrlJlbtC3czXaOe1rMzB/tVAQuufSXRhX1p7vutgnhpFNONd7+5NNPK7f3RiMKIW6/4/+Mq1x/w43KKlddfY1xWA96rrnWqcxsvBwgGvHdqhZSKjctNI9ZLqvuGjOsuMLSIdz1oBtaYjRzRlFYEUxbtjfOUYG7rvsNrYhUALpbcc00079XNyLA2dqpTePReLjTAEnPcuCUSiVXtjLe+nKMIe8jzbygF6VorBflT0EgLTWiUTnR60ymwGhALxuQoYFAIM/lsp4Klk4hhGxEtLhF1pQ0zJiIWwltpsnz3e5A5w+CeMisRSIS2YJoZusGYl+sbYQWn+Y4HHYUWN9qRNMHRNyP6VZ79lVJZpVEPRtrqvwpEwCBcbfcalRRF11yiR0+TU1NxkyEw0eMfK1oonJ7LzXiXXffY9zkLy/7lbxKOFxhHNOznkNHHpby7McA0YhT1nR5P+1oxIyisM3Kywsk89vIaaqFLFTfTtpo90kV8otI1l6uJ1LY4LdnGjEuxJlzEikbb1+sJ1vF2P9Tf9epSqw+ba1J/I3xRtOei99TXdKY87zOai6mt3BnXxFIY41IuaORqhoO1r7iYpxH0zQUYvYWelEHBSYrxXxY6vdTTC4Cjb2F3mRBG7QKYk3okhoUnSP3KBIZ24BCQpsc36jvjP/ymkoomta0EQwG5bBxU6WldFKtatMJlc4+0Yh5LleJz5fsb5dkgTUpJb6yVbq0cDcrJky6hRs7IYFNmzatWrVqwwbz7NPPPOsxCqlDRx5WXZ06hcfcufOM95qeMuylRrz6mmuNC1151dXy2xw/YYJxTI97nn/hRXlyY3tHa8Rry8zfl7ITT2fAL2SKTY049TtbCulFKduLsTqLLPj2m2yr9FzRt12ZC3umEYUQ5Q3t+3am6bb5FB/XdglTUMooCp+4LY22AtPOJUQqTYXGviWVSqIfO1PxmO4SSGONiPTU5NtFTK4d81V3GcEWmO92o+QdqcACj+eTTz4pnjhRloDwBYdCoUAgUOLzIf43pcnKtPieEMKoHVGFT5YjpBHhgs93u3McjlAoRG5WeMZ7oBEBStf1QCBQ4PEk01vZmVkwr9rPNYiZo9Eo4epZI+WrTDZtyjdiMXOyOZPpVIup+KPBR6CysvI3v/0dmfquvubab7/9VnnMDz780FRI3f/AX5SRymU8HjeVbodnjTLGfPRGI0YikcMys4ybzLvzD7SlWCxmembReJfNnjPOOpsmN23sCI24aH3XybkL3rVVNO+XgVrSKzY1omuJLSPcFR90zWyscbJCKpqyW7EtO+LvF22krfZYIwohEDiy56SKxetTp0uU+dDqGUXh51elOEDZ0hEf/Vb1rQaD5Y9fj8jzoNbfpxtMav2Zfm24szcE0lgjGh8bhemM/b3sQSETUhVw78J4uXDhQuTfsTAWYjydDtQ0jaayszElZ42iEcnXnOdyQS5TURPkl4azFfZIm+cRrXel67oskqwH86dMYKcisL629sSxJymS6Ohjj1PKzbW0tJjGAg8fMfI///1vMmKxWOzxJ55QJsfljb/5rfGuHmvE6urqiy65xHQheXsLFy0yjjksM6uurs64GaVn2WefGe8dPmLk0qVLlZHy5Y7QiF9t7qpWd5jBvSuvjnZtS2x3KYTCpkYc/nok5ZHExrb4Xr6ugBWjBqps6pClEiWIMW4SPfXbF77rjUYUQqA63/6TK61T4bwTicqblNu7FVdolhm571u6NRviso1d+m/Vpq4XRLM9+2V9sqfm/r4lkJYakWJW8lwu5ALEnwhw7ltAFEqMaclWBHFGlrNIJGIdtQChibrJZAG1IxYVr6isEUOhEOpWl/r9MFiigLUQglyiCLPA+cI+0Yh9jpcnZAKDhsC9991nKn1uHjdOeca/ut2mI4ePGHnFVVdNf/PN7777rrk54aBsbGz8+ptvJhZP+nnOeclueS8QUOYXQiTTiM+/8OLcufOMv3Peeee114r+8Mc/mSZHHD5i5MjDM2Vv+B//dJdxP7/57e+MOzH2xONx08ib++5/wDiYenaERty4ZbswkZQHB/O3z+psUyNmFIXf/D6Fu/llydGcOb1Kje8VIhYXcrHjlHHNTwYTmWvot5caMS7EDQsSVsmDplZ+Jmk4ejtCiC/q2uT0jbQ0NQ6cUrk0if1vxvfNVDzm5a+6LI4PbBOONMkdmi2jrLwxbveYQFpqRFSWM034TLEaPSZivDHX6cxxOH5+7rn5bre30IvUMKiPLPt8UfzDeLvc4y30BgKBqqoq+IK9hV5voRdKEaXzZLc1boSPmyZBzAqsmMrquU4nfNxUoS4QCGDDSHxonJym5QYTYAK9J3DsT483yqbhI0YelpnV2tplGhFCrFu3LpkUM53BovOyX10ejxsVRVKNaDGV9UeygGtsbDziJ0cax8+YOdMmxscef9x4+9HHHLtlS1Jv5o7QiEKIUdO7sj3f86mVEXTx+i27FSdMfUOLt2ovOxrxgncTIRdHzqhS4pRlUBtaYj+a2pUc2zShoBBCTih45IyqLcmNk1ptYqu7FIWposmIN9QgGHkDdtrtMXFt2YaMovC+JZXvr1Oz4bwTieLYIok508Yekype/qpBDnOOxcULqxqGdYLFLWRuXN/SocxpkUbHziPwmO4SSFeNmO92a5pW4vNRwEokEtkRGgihKrAXlvr9eS6XpmnRzh+cOJRPQJb4fGRZNH0TOF+Y63S+9dZbUHi6ruPYYjAYxHlHxW2Nwio0G/y8BR6PooYDgQA0IkyGuU4nBpDtUPFZ04TcYAJMoK8IGEUP9dTWqvEQr71WRJ/2uJF95FGhkHreEY+TzI7Ys7XOPPuc+vouB9/kKVOM84zK/onxWGQytsnczaWlbyW7ZQdpxLs/qSM1M7Q4bMxcjf18WN2y/+SEjLtu/gbKdG1HI04qb4IA+tX7taaqrr4t5pibiB3G70FTK6minYLiX52ZaGjkbYt1k38cCDEv0oJyyVd8UHvEm1sV8JCJ4armDmXC7l52xMUti/SMovCuE8PPfFmP1etaY3lLEp32fw+fVvXHj+sKVtTfv3QTCkPTveMWbTUTNmyPJaMo/MePrRR8d5+Fx9shkJYaMRKJKB5YO4/agzHIFAj/Mmx+RhmqhJsgNEQ+sae0V6xYce3V1+Q6neXl5ZTvJhqNFng8SCiIs4O0kKIRS/1+kn30RLquz5kzR8naSJ8i5oY1ogyE20xgRxA4+dTTjMpp+IiRRx59TLtZFTsLj7PpPErn4ZlZ772nFj6h5+pDjXjm2ed8Hw7TzEII01ovd6TKCCbPIIQ4/YwzlScaPmKk6dlK3LiDNOKahnZYByFTdp9U8edPNy3XW2Gkq2+LzY20XDd/wy6dGmj465GaaEe3NGJZdQs5TH/qXzd5TVNty9aixlXNHf9Z3UizYQOT1yQtOdPYFpfNjRlF4fPmrX9/XUtrLKHWNrTEZnzfTIEvQ4vDQb31lNnVJL9OnV3tK296t5sJsZW3JoQYv7IeltQz59TcvliHHqVVetlwLdGfX9Xwl2WbDn2jK1RlyMRwSt+6cZ/c03sCaakRUTvEfnVmnOHrAaxcp5MsiKYZoWFQlGViJBKRQ62VNkrnRSKR7MysQCCAwbQxyFAU5SMhqMQjk47EXbBlZmdmlfh8OQ4HTUUNhNSgKB91coMJMIEdQcBTUGAUPcNHjHzgLw+aLhePx19+5ZWRh2ea3mXdeeKYsR9//InptOjsE4146MjD7vnzn+sbus6HCSG+++47070ZK/VZbE8I8dTTfzPOM+Kww2vWm8cX7yCNKISYsLLBVNnIVU8yisL7T65EKAmpOjt2xLLqhIY7qzPLIK0yrLhCrlZH/fct3WQNbWa4Kzsj3ZVRFJZlLvonrEy8tdsXqxa+zOndqPuSbDPT1jbL3mF5J33ePnBKikCZZJvk/t4TSFeNiEJzOQ4H3LvJgj/gjy7x+fJcLlJdNqlpmkbWSou6bXANyzLRzvzQdsaR3kIvVCnZERWNiAor+PPZZ55F3hkUU6GgGV3XEbyCPDjeQm+Bx0OlWYyLyj2RSISsm0KIYDBY4PHgICbF68AwiZqEcPrLMyBiRnGF0wBjcA965MlpMDVMV6FPe9Mo8flMt4pvjv2Zk81jfwYeOQgItLS0XHb5rxXd8/Oc82QvrfExV61adf0NNyp3WVwe8ZMjH3n0MUW3GaftpUY8+dTTnnr6b+Xl5caZTfM7HnPcT5Uzl8YblZ4vvvjS9DH/8Y9CZSQud5xGFEI8/UU9xUyYqpyfla6j4njd1YhCiOb2+JUfJA7zJfsdVlxhM1y36NsmObbaOOFuxRWUaOabzW3Kkb4+0YiJfyo0th9nyJVt3Exvenbp9OzLhxdNvxjcueMIpKtGhHLSdd1b6M11OpG6D7VGoK40Tbvj9tsffughJJ1BXutucSzweHDW0Chr5HkQsByNRrsrE0nSKbMpejQ7M0tWt7gLEvn63Nz//PvfOJQJuQxdm52ZleNw5DgcGIY013KAi7yi3IbLmzYG6Ykqf0imDSWn63qOw4FsOyU+H6yYNI+u67lOZ7LlkDebBgsh0CM/o/wp2tmZWckmNA7uVg/qXBtvQai4sT9ZT7J5ko3n/sFKoKWlZfyEv59x5lmHZ4065bTTn3z66YaGRjsPW15ePn7ChMuvuDL7yKNMldPoE8eMu+XWksmTU6pDLLe+tnb8hAnd+i30/rNk8uR3331Pjl82bn6Sz2ec1u8vNY5M2fPSyy8bp0pWu/nLura7PqnD78xwijBhIcSDyzZh8IPLUhjnsM/leuv1Czb8sPPQoaxsTp5d/Z/VjbJSeTy4GTMn8wt/W99OW5WT1MyqiDrm1ihidP/Jlbcs0kmApoSW+M9mffu4RSZO3gOnVN66WP9m+0LP32xuu2WRfnzpuh+/Hjl8WpXNZI12tiGEeDXUKEdby9x62T5yRtWKOrVitc1d8bC+IpCuGhE+XJQhRjWRYDCoaRr0Yr7bPWvWrFynM8/leunFlz755JOlS5daqxAjUDLgIQrEOAA9SASd73ZDJmJjZGOj1DzkdKYa0yTFlJllmxm80rRzOM3RiRXx1AheRsC1pmn5bjeMf8FgMNfpRPk462AaPCNmoI0htRBtL9fphIkRy5GlEwHm0WhUrsuSTNL1TCMiDJx20oeNSCRiaoRmjdiHkHmqbhGIxWLr1q377PPPF2safr/66is7SQe7tQoPTkYgFhffbG6bX73lrYrowpot+patZweTje9B/+bWmFa7ZVZF9IN1LaH69uTRySnm7ujc6sKaLf5wdH71ljUN7Z3nElPctSM+/vvKBqO27rFGPM6/zhg3vSO2zXOmJJCuGhE+UGhEGLqQmxoGRSR/yXO5VqxYMXPmTBSII6WVEgoGyMEiim2PZoAXGyPzXC6STTSguw3KiY0bYaWjnaPoXKTzBwNK/X5d1/NcruzMLG+ht7y8HLXpkE4cWRJBw1QJ0fawLoQRaUTFege9S8zpXjIEUu7GHtsRoY8hcAs8HnJAox8aVF6Xtko7l6PC891u8pULISKRCGZGP+aRfcSYH451BJtjDPXLNyJxJphg9WSymDbMDSbABJjAICYwpzJ6xts1pucs7ejFvX0V183fkDJF5SAGOAAfLV01ItydoVAIAjEYDOY4HAgByXe7oZkQIAwrl7fQS4LD5muA5Q/SCjWajTfCUAd9FggE6PyicaTNngKPh8QcnLZXXH45NKKxLp8QosDjiUaj8PwKIWC/hOEwFApBKea5XKbhLKZbku1nUFQYhlUggzRNI9mKM4tU3AWDLRyv1nZEcosHg8E8l4ukOdSqYlUt8fkwIBAI5Dgcmqbha0DCET73Ao8H4U1IsY7vTHZmFjjTVlG6sMDjQfbN7MwszIMNI5wcYOkwA3aFrSp62pQtdzIBJsAEBj2BWFz4w9GrPtxw6BuRlHEte06qOGpG1f9p+hfsVh6Q34x01YhCCKQAxKlBZJZGGuonHn8Coq3U7y8rK0MG7EAgYO1sNb4diAmYJyORCOSIHLYc6PyBqMpxOGBSynO5SOQZ57TuQYZtjEF+H2+h9/LLLkOPqU6FCTM7M2vmzJkoqVJWVobNQNzAlGgzYIVsY7QH6CokhkyWWwclXuRHI+Eld6KdUiOSNQ6nIXEXKTDZQgmDH74Jyl14BdmZWfTgWJcMvXTKk7ZKihMrgiGAkPQHYehjsqpSaiHag/GpuYcJMAEmsHMSaGyLz6mM/uPrxieCm+/5tO7BZZs8K+r/s7px8fot/eUZ3zlfRM+eOo01IhQVgnZDoRC8isgymOt0wuqGasX/+fe/c53O7toRMUM0GkW6GQph0XVd0zTj+UKIRQQaw7pJ+b1DoZD16rquU35EyNAch4NMetiDUeNGIhGUJczOzHrs0cdgN/3oo49yHA60oaIon7adrwgtCucsne+EZiKNRVPBka3sjYQXDaNGSo1IFkp5JGlEGEoxW3ZmFvKZk+ATQsgyTu7HbBTCHAqF8Cy0VRzipH2SBNR1nd4dJsEOaUu4Be+LbucGE2ACNV5guQAAIABJREFUTIAJMIF0J5DGGpGOmiHANt/thilo2htvlPh83kJvWVlZnsuFwGdFxNh8bXDRQurB82sUSfJUkJVkR4RyhZokKyPcqUhYCAscPOPoJ4mJIBKE48ChjIXksi7IsJjncpFvHTluoI1yHA4cpMtxOGhL8m5N27JGxCbxyNFoFOEvdBceFk5e6kSDhJfST1HMcr8ivKw1IsyiNA8ChgANhBF/TTKOZoMjHiOhLJWtKnuWOeCwJhIJke7MzsySv1TK7fIDcpsJMAEmwASYQDoSSGONiEzaOH2IA2cU4bFixQoImny3+6UXX+qxE5BqJaMRCATId5nsZeMUoLWUpHvhHEdCQeUWJDiEvtQ0DUZTY85tmM0CgcCct98u8flmzpwJ6xoMmYhEJlcprWvRIG0kSzeMx8lOtEkgko1NntNCMGFaebC8ECkwUoEYSUY7MhPC/U3DkNuIStoApjwb5qHDiKSbaavUwEjiQLknFZulMrlyu/yA3GYCTIAJMAEmkI4E0lsjegu9sB1SEZQ8lwuVi7Mzs1568cVpb7xBH/Xg9RR4PLAVwaqXzOerzIxIEaUz2SX0K/zXNAaeYhyChH2UYiZoTDQaRUwuPMuwIELQIIqiwOOBGVU2PdLtyRqkjSDdZAlIBwQhEC3iuC0EE6aVBXG3NKIQAoHbwEJnAWV7IWK98U8I6td1ndoQuyBPW6XTjSBD8TqKD5qkIclWjJcPSiZjy/1MgAkwASbABNKIQHprRKiWEp+PvLGIsUCYLf313+P3ATMehEh5eXm+2w2xaO26hcySHZEWGyAJSw1K0ULZCnFaUamVomkaIqmhdbAo+VuRrBHuUevdKnsjjYg4XzrAB18tnO845WkxrQV5xCbLcOA+Nlr+oB2xPVmQUQANTZLjcJAOxlcCeyM9h9ATuWI1zicgjw8A4kwC0aDqhfJBQ0wOrQn9jfGwbmIemoEbTIAJMAEmwATSmkB6a0TEtCLzC/4uR2WRXKczEAhQUEuP3xBpRIgMlFT55JNPSM+Zzlzq9yuZ/EyHoZOEBTWgEeGGhhxBXEiJz0dKCPeGQiHEGoMAjmAuXbpUzueX0jmu7I00IvQTjJQoIU1CDUqUHLtoyKZBC42IV4ZC2Ei7TRHEiuUvmUaEypQFH3J6I8+2nPdb1oi4CwAxM+QvbRWdGAARjNw3BR5PrtOpd/7g3CcSicMYidgXvCB6gwpSvmQCTIAJMAEmkI4E0l4jlvr9SIBHVrfszCzku4H7L9fpJCdjd98QHQeERoTjtdTv/9tTT8+bNy/ZbKj+B2GRbAz1k7CQxRwSOCMNIQ5cQpbJOgxbwu0wxYEAHh8CKM/lImMbrWjdkDUiSvMhmAa1/nAvhdfIDRkyCS/TtVDbkO5FwRiameZJphGFELKsRCwzQlUQkkL+cVkjCiFwXBXrUk1qeas0gA6zIribwKI4OIyp+AcDZqNDsabPy51MgAkwASbQewLPv/DiET85srHRVnHL3i/HMwgh0l4jwiUa7fxRUtJAPcybN4+SKnf3lUMjoigfNAFmQJ1ouRALNkD5YsrLy7MzsxSzn+nqsliRB+i6TkoRgdWyiIT7GykbUZcZBZqDwSACa3B+kXJQyzNzmwkwASbABJhAehFobGw8+JBDFy1anF7bTvfdpr1GxDk5hCnA8IaUgUikR1lR7Mg147vEVAiGRfQxmf0gQCn6GEGvmqblOBxIvgPRJp/nM84Pfy76LYQsUieSgY3Gw0YIExpMWbIolOs+my7NnUyACTABJsAE0oLAnHfeef6FF9Niq4Npk4NBI6IuHxL4wfeHgANqz5s3z6bnV3m1KECsKLmFCxcawzWi0SjKrsybNy/P5frXv/4Fv2Sey2UtE0t8PsyWTCPCOKrkr6EsPLBfotoe+ViREUbWi8pz8SUTYAJMIL0ILFy4yJFznvI7Vzrz89jjTzhyzqutrTU+16zZs8846+wDDjp4VPZP7rr7nvr6eoyZO2/edbk3KON/ednlCxcuEkIsXx505Jwnf9rY2KhsgC6rq6sxsmTyZEfOeUuWfCzfKG/+yquuue/+Bz7/fLk8QGk/86wHM59/wS+uy73BU/Cc8ly0LjXyH3pYmQSXjpzzli8PCiGweVfenfIw4zOWzZ//85zzDzr4kJGHZ9162+0bNmyg8bfcehsth8YvL7scn16Xe8Ovr7gqFovR4OrqakfOecDy7bfljpzz4CPGiso80998Uwgxd9486j//gl/c+JvfvTljBk1o+rKefOppWoVGcqMPCQwGjQhTIsRWKBRC7huEHVCaQE3TkokwC5qkEcnPC4/zSy++5C30GpUipkLuG4rkoNLApgshUNpie8jJIgtN5MShw4L5bjcCnOVkNL03IlJuSNNtGzvxCBRYjcLHxmEDoQdOfOX1IZHQQNge74EJMAEjAX9p6Z57/6BoYrH8++235RgZi8V+PHxE5qjs4kmTlHtnzJy52x57PTd+wldffT3v3XePO/6Es891QM0UTSzOHJWtjN9v/wP9paVCiLL58zOGDJU/bW1tpdXPOufcMSedTJd0SO78C36ROSr73j/fJ98ob977z39d68zdddjuFlaxm24ed9Y552LygufGjz35lAMOOliWlRlDhv7lwb/S6kUTiz/48EN5RWpnDBlaNn++EGLTpk0ZQ4ZmDBm6cuUq+lR5xvnzF+y2x14PP/LoqlVfvf/BB2eefc7xPxvd2tqK8aPHjP31FVfJi06eMgUfZY7KzhgytPStt2jmtWu/zxgydO3a76G2M4YM3bRpE1GVJymaWLxq1VdCiKKJxQf+6Mf46L+vvnbrbbcPGbrbE08+hTmNLysejx868vDDs4549bUiWpcbfUtgkGhEmBLxt340GkWQASKdcVyPdGS38JFGLPX7yUoXiUS8hd5gMJjrdCIdI32EOJJZs2ZFOn9QRRpBx0q4ibINTdNMzX6U4IbGIzchNrZixQpN0+QyLdCy2Bvd0rOGEvCRchKkpIEyhma1FscpJ9xBA5CnxnhaVA5e2UFL87RMgAn0mIC/tHS//Q9Mdvunny495NCRBc+Nd153vTymo6PjsMxRTz39N+oMh8NDd9vjnblzIUq6pRFpEiHETTeP+/UVV8k9QoiGhobd9thrks939LHHyR8ZN//KPwqH7b5nOByWh1H7ppvH3XTzOLrs6Oi46OJLTzvjTOoh5Uc9yRo0EhrxxLEn3Xb7HTRY0YhjTz7lj3+6iz7dvHnz/gf+6PU33kDP6DFjH33scfpUbmSOyj7qmGN/nnM+dVprRBomN4wqsOC58Xvtsy9EqvHTzz9fftDBh4yf8Pcrr7pGnofbfUhgkGhEiDNYChHkixwocDfDCAd1JRvkUnIkjRgMBuXjgJqmIdZE07QCjwerIOWePGxNeTlqJcO06S30apqmmK9oD/ApK1ISScLlPVPZaAThegu90WhU13XIMsQI9yaUm/bTA40oW2qh1OXjmzRz/zYop6a8WwQbJXs1/bthXp0JMAEhhFFmyVgefezx3/7u5mDwi/32P7C9vZ0+0rQlu+w6THaYCiHGnHTyI48+tiM04oyZM3924phoNLr7nnuXl6+hbRg3H4vFRhyW+dz4CTRGbigaUQjx6adLM4YMJbspKT/5LtM2jYRGnFhcvMde+2zcuBGDZY24Zs13GUOGfvPNanmey37167w7/4Aea404fsLf99hrn2DwCwzuE434xRdfkjHSqBGfePKp62/4zcqVq/bZ94dk7JQ3z+3eExg8GhGJ9xBEAgsWwlbw17+30Fvg8ZSXl+c4HLLZLyVBKAmYx+TBclAzlpDVISJavIWFciZFXddRYzrZBhDLXOLzQSkajYjeQi/WLfX7A4FAWVkZrKTyhEgGJG/VZhtVZOAslpNF4+lQdwQh3qYTyklzMEC2zMmea+S+oUkom2OBx0MPAhWOOeV5toH1Yp+yeqbc4/lut0XGH3wT8ICyIpd9zXhMKrWC851YUd4k/csE5wHk2ejpuMEEmECfEDDKLHnak045dZLPF4/HDz7kULhW8elLL79y7E+Pl0cKIb744kuILaPsEEJY+JrleUztiL8fd8t99z8ghLjgwotefOllGm+6+Rtu/G3u9TfSGLlh1IixWOwH++1PJj1SfvJdpm0aCY24fHnw5znn/+2ZZzFY1ojTpk8/4KCDlUk2dP6g01ojFk0svu32O34/7hYM7hON+OWXKzKGDK2rqzMV9KedceZrRROFEIeOPDzw/vvKzvmyTwgMKo2InNJ1dXWaplHOZMQaU9JEHOYjLZIS4tVXXoUDf8pIKCqlky51Xc9zuRYuXGhqSKOqMDRebsB9jIOPsiYLBAI4ZYhg7ezMrByHY+nSpfA1Q4xGIhGqRCzPaaeNTNRa5w+c9VC98ONDmxZ4PMnmVzQiFZLG0rJVUk58iDayjue5XORwR4Zq5HdEm+QghtE/BtAPsyUOQSKjdTKjIBVlQWFrIiMrUbClHnyXaJPIW4684jkOh6ZpwWAQBX5oNm4wASbQtwRMZRaWqK6u3mXXYQiP+M1vb4JKw0f3/vm+Sy69LNlO+lYjxuPxHw8f8V4gIIQoeG78Ly66hNY13bw7/6FzHD+nMXLDqBGFEMcdfwLZHUn5yXeZtmkkaUR/aemIwzLb2trodCBu9BQ8N+akk00nQWdKjbhixco99tpn/fr1Qog+0Yh5d/7hpFNOxerKy9qwYcMuuw7DX+U3/37c3ffca7Fz/qjHBAaVRkSeZJzJQ3kMSi6taRqKrZX6/cuWLct1Ou3LRExrVHuysQrCjl4D+ZRJ9NBHMD5Zr474D1gNcSPmr6qqgos5EAhAhkLoQJ/1wJlOu1IkHSJ+oBFLfD6KqlaG0e14qDyXCwbXUr8fhzXJtJZMIyKtD+aBFMOi0IV0O5XOg6Ykky0V0EM/jZeXkzeJJSAf5aXlonwo90JRSjjJSo5pEIAwlUs8l/r9yK0tL8dtJsAE+oqAv7R0yNDdRo8ZK/82NDQIIV59reiE0SdioeJJk2TD4e13/N/V1ziT7UGRHRjWYzvismWf7b7n3vivUDD4xW577NXU1IQ5TTWip+C50WPGmu7NVCOeefY5dBwwY8jQ7COPklF8WFZmOpVRI8ZisVHZP5n6+uuKRnz0sccpjnvDhg1r136PXwrZHj1m7I+Hj5AXLXhuPBbNHJVdNLEYBtTHn3gypUaUJxk9ZizeY9HE4v0P/NHzL7z4/AsvPvLoYznnXXDUMcdShI3ysuQXPXnKlCOPPsb08bmzlwQGm0aETgoEAsHOHyQphCDDuT2UYIFMJKmREiKSZiMeFol1EDFNhVjyXK48l8uo/HAeUZlfdkArH9ElPJtQM3Caw1EeCAQgE+GSRtYb3AUvKs3QrYaiveTLfLebEn1DS8mXtApEErYNMyTOSmKALNowOfrJqkfDoMUVqySZ9KAdaVH8GwC+YNkuiBJ5NIwaJT4fqfZAICCrOloCGlH+BwApVMxDl/h3CP5K0HXd/teJ9sMNJsAEbBLwl5bu/YP9yubPl39x9PDKq66hOOJ169ZlDBn63XdrMe1tt99xrTM32RKK7MCwHmvExx5/4oILL8Ik8HojPjrZYcqC58Z3SyOefa5D1ojPv/CijEI5c0mPbNSIQojnX3gRETCyr1nWiK68O/fb/8D99j9wj732IeE4eszYm24eJy9K5yNJI749Z84hh45sbW21tiPKk5TNn4/3WDSxeO8f7Ad9fMWVV2cfedRFF19KxzqVl+W87vo/3XU3HrO2tnaXXYeFQt/SU3OjrwgMNo2Iw3N06BC6IRKJ4K98KEh4EteUl6dMXmhBGQYzpNop9fuRicbo3yzweMgIR7PJNirqVBqwcsGjDU0Jny8MWpTZBxEzyO+d63SSIU2ZLeWlrNswmFRdvtsNWUz6j4xq8rSKqoPfn9QwzUZ6jlZBdBEmp5LQymwk4JR+WcvCxYx3moxDnstFW5LNlkY7oiz4cFABO8x3uxEvT9+0HIfDW+g1/vNAhsNtJsAEeknA1BQnhGhtbd1n3x+++NLLy5cH8Zs5Kvull1/Bcvfc++dLf/mrZEsrsgPDeqwRTznt9Dv/8EfaxoW/uPjW227HnKabf+jhR84651zTvZnaEY//2WhPwXMYT8rP9Ha5k0aSr1kIUV9fv8++P1yy5GNZIz7rKSDHLs3w9N+ekTUiiVQagAZpxFgsduTRx0zy+aw1onI7LpXX0dHRceEvLr7o4kuNn7a3t++3/4ET/v480T7iJ0da5BIyXY477RAYhBoRggmHxpCqkKKbcXQPsQhrysurqqoUh6MdZKZjYN4zfgQxJ2tHqtpiHCz3UNZD2ccNsxkZF/FcECjd9Z7Laym6DR+RqoNHlTRxKBQy1UOKeoODngx1NJuyFnLQyJPj6ZTZ7GhEzAylaJoyHWUbAY3+JJsoLQE7oqIRcRyT9kkvFLnTc53O7Mwsmkphy5dMgAn0noCpzBJCvP/BB0OG7pY5Kpt+9z/wRyQsnn/hRXJD0x7c+Q/95cG/moZB9DhmpaamZpddhx2WOYq28ePhIw4deXg8Hk9mR7zp5nHJbJymGvGHBxxUMnkynoKUHz1UsgaNlDWiEOJPd919Xe4NskacMnXqQQcfosxz3/0PdEsjCiFefuUfY08+pfcaES/ohwcchC3JCrJs/nzjSz//gl8om+fL3hMYnBqRjsfV1dXBAwv/LLkjEchCbk1TN7F9uJTU2ngLdIlcCRBOauNIpQc+cYrMoE9znU7SIjjzV1VVhcgJGtODBgxyJP6wbegkWTxBf8v6idZSVB1eQXZmFgZYa0R5EkyuzEZ7UI79UXiy7OqFP1rW1pifDlmS1IOzGJ/SEkaNmOt0yrOh5CMkKcQipeRMZr+kB+QGE2ACPSOQTCPefc+9OeddIM/59pw5u++5d3NzsxBi/vwFuw7bnQqrYNipp5/xV3e+EGJiceIAnHxva2trxpChKN8i6yd5DNpKXHPRxOKDDj5ELjRSWVmZMWQoEl8bNx+Px7OOyH7mWY9xZiRflPMjIhY7Y8hQ5JoWQpDyM71d7qSRikYsL1+z2x57+UpKKE/4N9+slt30mOTiS37ZXY3Y2Ni47w8PwMzJcmjLO6S2rALR+e5772UMGdrR0aEI+vvuf0AJ93n3vfeG7b4nzjXShNzoPYFBqxHlUAMIIFkgwoxEf/EjG4us5LpFFqcSlVugWkKhEJQcfZrrdMpn3aifGtFolAqBoBYzyvohaBen6EiL9CZOhVYUQkAUUuywnPvGW+iV3eXkaZVvhyJUfNCyApM1IrQabpedv7IwTaYRsTEy45X4fDBVKucU6cigvEmj31+2y1poxAKPh44HyDErMgpsjES2vC63mQAT6D0Bo8zCnEcefcyzngJ5/ubm5t322OutWbOEEO3t7YccOlL2Qq5eHdpl12ELFnwkhFi8WFNU0ZIlH2cMGYozcN3SiFdf47zhxt/K20AkMsqEGDfvKykZMnQ3Omyn3KjYEePx+DXXXicbREn5KTcaL2mkohGFEL+6/IrTzzyLNKIQ4qcn/OzBv7ppkkgk8sMDDuquRhRC3Pvn+0465VRKbbh8eVCps0JLyA2jRsTrQIEW+dNjf3r8k089Ld/b0tKyx177zJg5U+7kdu8JDGaNCJkIVyz9dQ5ZAI2oaRoO/MEyR5VCuou1wOOBakEua/iykSolEolAoZKssU5wHQqFULsFZirUaMl1OquqquDQhLucEr7IGqu721bG57vdeS6X3vmDVWDSw/4hoCHF6FnkGYheKBRCGsjszCxSw0gNE41GcU6R7IuYECEmSL4D+ZtMI1KOG5oKQl/eJNqkd7FJaDv6V4HciUez0Ij4ztC3hXLfQATruo5vETnWZSzcZgJMoE8IGGVW538kv80YMhT1iOVVzjv/wtvv+D/0FE0s3muffYsmFtfW1i5erP30hJ9RVppYLDZ6zNhTTz9j6dJlmzZt+uijhccdfwLFnUAjKtEVFKUh2xHb2tp+sN/+E4sTgb3yzz33/hmhIRRw88GHH05/801X3p1Dd9sDebzl8dS+6eZxF118adn8+fPefbdoYvH5F/xir332RRVpjMkYMlSJWVEqRNNUFhrxgw8/RHU+GvzO3LnDdt/zpZdfqa6u/uyzz0857fQ//ukuWSMqMSsUbkLnETHV2rXfDxm6m4VGVKh+/fU3iqUQ83z11dck2Ukjfvfd2owhQ5cuXUbbRuOiiy+l7IzKR3zZYwKDXCMKIWQVhb/s6ZCinDoRCa5RPdmiFrMRdKnfjwIqWMjUkiSnOUTpFOM8uq7DXlVVVQXzITQHqSL4efFRIBCABZEiMIwTdrcHHnOoZ7jmyadMnnoLpzbUHm6HIiSBiJ3TR5iNtkeFauQjlck0IiJFIJezM7PkTJO0SdOjgRCOxreDiBnrmBWcraT903PJxKylPz0sN5gAE+gZgQ/Lys4+16HcO2369HMcP8eZP/mj//z31ct+9WvqKZpYfNQxx2YMGbrf/gfedvsdmzdvpo8ikcg111639w/2w6c33TyO/g28dOkyJUXL6DFjKdvLw488Sjn5li8Pjh4zdt26dTQtGvPnLxhz0slNTU0flpXRVGedc+7vx91infP54UcexfgTx550wYUX3f/AXyhSGzPTbNRIlgZy9JixkFMNDQ2jx4w1llFRYqtnzJx5/M9G77LrsEMOHfnKPwqXLl12y623YVHnddfTctSAe/eSSy+D4ZYIuPLuHD1mbFVVlRDim29WU4IbU6oPP/KoEOKtWbOUp2hpaTnltNPfmDZN/vTNGTPOPPsc2a2PRV8rmnjxJb+kDXCjTwgMfo1ITmeEHiP4l0QGsrSU+HwwYoFpKBRCoAb9xyIZa7hHkWFH8bTKt8il/JD7UP4UiXVIR8IVK/s3ZSMZbuxzgSjvh9tMgAkwASbABJgAE9gpNCJkYp7LVVdXhyyJSH9T6vfD+IS0MpCPcLnC1Yt0J4rXUv7SoPCdnOxa/pTalFIbZjBSk9CLUIeapiHFDIydJT5fqd9Pdi+E68KChWIqPT49SbviBhNgAkyACTABJsAEkhHYWTQigiqQNxGnx3CMLMfhQClhOCghxV568SWEsuq6XlVVhWIe3kIvORmJJmImLEQkac1Svx+uW4SA4M8Snw+mSpz/Q2AHHW6Dc5OSI6IMMcq+Wa9I2+MGE2ACTIAJMAEmwAR6RmAn0og4FScXPoFXV9M0WBOpOgiO1sFcB+0YjUaDwSDEIoIbUPsE5wKTocfpRqRgRGgwDJaIU8YBxByHI9fpnDlzJpVFlmeDZqUeZH4h4yL1c4MJMAEmwASYABNgAn1LYOfSiHD1ImYF2Y8p1TYZ7XDEEP5fREVgvKZpsAWiUDJy7KGHYjvo3cAWSFEOeS5XMBiEZFy4cCGsgORTRnERkqQwcBZ4PIgURuQK7s13uynrDa3FDSbABJgAE2ACTIAJ9DmBnU4jCiGQgFDOU0gCEScX4fNFBDFVwKO4XVTeQ4xLdmYWcmLPmzdv6dKlmBwxuYFAgEqS5LlciJIp8HjoBCRFoiBxo6ZpmBNR1TBqIo4YORGVvC19/lXgCZkAE2ACTIAJMAEmQAR2Ro2Ih0d2a6Q2DAQCOGuoGBGhHZHnD+V9S/3+FStWQAs+/thj8+bNQ+DLH//wh+tzc3Gs0JiPBg5lOI41TUOWHGhELEHuYyhRiqdGcu9eloGhl80NJsAEmAATYAJMgAnYJLDzakSy+SG9NqVuzs7MgmMX0jDH4UAEMRTeihUrsjOzIpEILhFBkp2ZhYCS7MwsyMQSny8UCiF/DQbnOBwQoJqmQW7iNGQgECDtqOs6leCDsZNWt/k6eRgTYAJMgAkwASbABPqEwE6tEUEQ6QmhFOvq6iKRCGpy5DqdSK0Mu2COw+Et9ML4B38x6rPB3YyyH3BSQzLmOByUdnHO228j2w4GUy1jCmSGsiwvLw8EAnV1dYhNgVO7T14zT8IEmAATYAJMgAkwgW4RYI24FZesFKPRqKZp8D7TGUGYFSEfIfhgesSxRU3TIB8pOBr6TzYZIpw5OzMLhkmcUKR4l1AoVFVVhWQ63Sr00q33zYOZABNgAkyACTABJmCHAGvE7SiRUqRsiBRujOQ1QgicIEScMqobQzJCI6Ky3CeffAItGAwGszOzFi5cCIkJdzOiT+CDhtDUNK3A45G93tttiy+YABNgAkyACTABJvC/JcAa0YQ37IgIRobxTx6U63SW+HxCiFynM8/lQtFnlOuF7bDA48l1Ootee41q9MH6mOdy4ZdCUpBzEdWNOS22DJnbTIAJMAEmwASYQP8SYI1oxV/X9UAgkO92Q8YhnQ3dEAwG4S/OcTiCwSBl5EboSa7Tqes6uZJxL3qQHAfJFzVN45SHhJQbTIAJMAEmwASYwAAhwBrR1otAnRXSdsiqXer3Q/khDyLCVmi6SCSCPNuBQAA3ImYZZVpIO9J4bjABJsAEmAATYAJMYOAQYI3Yk3dB5sBSv7/A48l3u5P9IsM2pCTbC3vCmu9hAkyACTABJsAE+oMAa8T+oM5rMgEmwASYABNgAkxgYBNgjTiw3w/vjgkwASbABJgAE2AC/UGANWJ/UOc1mQATYAJMgAkwASYwsAmwRhzY74d3xwSYABNgAkyACTCB/iDAGrE/qPOaTIAJMAEmwASYABMY2ARYIw7s98O7YwJMgAkwASbABJhAfxBgjdgf1HlNJsAEmAATYAJMgAkMbAKsEQf2++HdMQEmwASYABNgAkygPwiwRuwP6rwmE2ACTIAJMAEmwAQGNgHWiAP7/fDumAATYAJMgAkwASbQHwRYI/YHdV6TCTABJsAEmAATYAIDmwBrxIH9fnh3TIAJMAEmwASYABPoDwKsEfuDOq/JBJgAE2ACTIAJMIGBTYA14sB+P7w7JsAEmAATYAJMgAn0BwHWiP1BnddkAkw8fZTeAAACm0lEQVSACTABJsAEmMDAJsAacWC/H94dE2ACTIAJMAEmwAT6gwBrxP6gzmsyASbABJgAE2ACTGBgE2CNOLDfD++OCTABJsAEmAATYAL9QYA1Yn9Q5zWZABNgAkyACTABJjCwCbBGHNjvh3fHBJgAE2ACTIAJMIH+IMAasT+o85pMgAkwASbABJgAExjYBFgjDuz3w7tjAkyACTABJsAEmEB/EGCN2B/UeU0mwASYABNgAkyACQxsAqwRB/b74d0xASbABJgAE2ACTKA/CLBG7A/qvCYTYAJMgAkwASbABAY2AdaIA/v98O6YABNgAkyACTABJtAfBFgj9gd1XpMJMAEmwASYABNgAgObAGvEgf1+eHdMgAkwASbABJgAE+gPAqwR+4M6r8kEmAATYAJMgAkwgYFNgDXiwH4/vDsmwASYABNgAkyACfQHAdaI/UGd12QCTIAJMAEmwASYwMAmwBpxYL8f3h0TYAJMgAkwASbABPqDAGvE/qDOazIBJsAEmAATYAJMYGATYI04sN8P744JMAEmwASYABNgAv1BgDVif1DnNZkAE2ACTIAJMAEmMLAJsEYc2O+Hd8cEmAATYAJMgAkwgf4gwBqxP6jzmkyACTABJsAEmAATGNgEWCMO7PfDu2MCTIAJMAEmwASYQH8QYI3YH9R5TSbABJgAE2ACTIAJDGwCrBEH9vvh3TEBJsAEmAATYAJMoD8IsEbsD+q8JhNgAkyACTABJsAEBjYB1ogD+/3w7pgAE2ACTIAJMAEm0B8EWCP2B3VekwkwASbABJgAE2ACA5sAa8SB/X54d0yACTABJsAEmAAT6A8CrBH7gzqvyQSYABNgAkyACTCBgU2ANeLAfj+8OybABJgAE2ACTIAJ9AeB/wcwEb8b6/6LlwAAAABJRU5ErkJggg==;" parent="KlYnetJEtSsTYRGKjeyn-108" vertex="1">
                    <mxGeometry width="180.39" height="44" as="geometry"/>
                </mxCell>
                <mxCell id="KlYnetJEtSsTYRGKjeyn-110" value="" style="shape=image;verticalLabelPosition=bottom;labelBackgroundColor=#ffffff;verticalAlign=top;aspect=fixed;imageAspect=0;image=data:image/png,iVBORw0KGgoAAAANSUhEUgAAAwEAAAE8CAYAAACYZL1PAAAgAElEQVR4Xu2dTY9Wx5n3iwdBGCHaWGBrEAhDDyJqKRI9iydZ2WYkdizcYWWv6GzsVRTyCWJ/AuN4FW/SXjGbsYk0rIJk7KycjRslUiuWDR0E8cg2oh8sNNiW5Ud1k3a/0HffderUy/+q87sl1FFcL1f9rqvq1P9Unaod7rd/+d7xgwAEIAABCEAAAmMI7HDOMVkgPCBgm8Dvzxx28zNP/tCIHYgA2w7FeghAAAIQgAAEIAABCEwicOrgHrf40glEwCRQ/HcIQAACwybg3/v697/8IKBDgBUJHV9giU0CN8+fdMemdo+MZyXApg+xGgIQgAAEINA2AWb8bfuX1lUhsH5LECKgiguoFAIQgAAEIAABCEAAAmUJnJ/Z7xbOHGEloCz2cbWx5K7hB6yAQB4CvMzMw5VSIQABCECgO4H13wWwEtCdHzkgAAEIQAACEIAABCBgksD3v/wJKwEmPYfREICADAHe8su4AkMgAAEIQCCQwEcvnnCzT+3hw+BAXiSDAAQgAAEIQAACEICAeQLvnTvuTh/eiwgw70kaAAEIQAACEIAABCAAgUACiIBAUCSDAAQgAAEIQAACWxFgSyBxYZHA688echdmD7ASYNF52AwBCEAAAhCAAAQgAIEYAr/56dPu1Z89jQiIgUceCEAAAhBIQIDXqAkgUgQEIACBbgQQAd14kRoCEIAABCAAAQhAAALmCSACzLuQBkAAAhCAAAQgAAHDBFgNrOI8REAV7FQKAQhAAAKOBz9BAAEIQKAaAURANfRUDAEIQAACEOhC4HvnRsqJX7MEEMbNulaxYYgARa9gEwQgAAEIQAACEIAABDISQARkhEvREIAABCAAAQhAAAIQUCSACFD0CjZBAAIQgIBhAmzbMew8TIfAYAggAgbjahoKAQjoEWCyqOcTLIIABCAwDAKIgGH4mVZCAAIQgAAEIAABCEDgBwKIAIIBAhCAAAQgAAEIQAACAyOACBiYw2kuBCAAAQhAAAK5CLDFLxdZyk1PABGQniklQgACEIAABCAAAQhAQJoAIkDaPRgHAQhAAAIQgAAEIACB9AQQAemZUiIEIAABCEAAAhCAAASkCSACpN2DcRCAAAQgAAEIQAACEEhPABGQniklQgACEIAABCAAAQhAQJoAIkDaPRgHAQhYI7DDOefPB+H3OAHYEBXKBCbG58QEyq3DNgg8TmAkAn76tNvhfvsXnltECAQgAAEIQAACEIAABAZAgJWAATiZJkIAAhCAAAQgAAEIQGA9AUQA8QABCEAAAhCAAAQgoEOArVdFfIEIKIKZSiAAAQhAAAIQgAAEYgmgC2LJjc+HCEjPtPkS6YjNu5gGQgACEIAABCDQOAEbIoBZZ+NhSPMgAAEIPCLAcE8kQKAhAnRoaWfaEAG5EBKcuchSLgQgAAEIQAACEICAMIFhiwBhx2AaBCAAAQhAAAIQgAAEchFABOQiS7kQgAAEIAABCEAAAhAQJYAIEHUMZq0jwLYtwgECEIBAPwKMo/34kRsCDRJABDTo1JpN4jlTkz51QwACEIAABCBQn8D3/zzmoL4l21mACBhDh8msduBiHQQgAAEIQAACEIBAPAFEQDw7ckIAAhAYEeClAYEAAQhAAALWCHgR8JufPe12uN/+xa9d8IMABCAAAQhAoCcBhGFPgGSHAASyE2AlIDtiKoAABCAAAQhAAAIQgIAWAUSAlj+wBgIQgAAEIACBYgRsfMBZDAcVDYoAImBQ7qaxEIAABCAAAQhAAAIQcA4RQBRAAAIQgAAEIAABCEBgYAQQAQNzOM2FAAQgAAEIQAACEIAAIoAYgAAEIAABCEAAAhCAwMAIIAIG5nCaCwEIQAACEIAABCAAAUQAMQABCEAAAhCAAAQgAIGBEUAEDMzhNBcCEIAABCAAAQhAAAKIAGIAAhCAAAQgAAEIQAACAyOACBiYw2muKIEdzjl/Zw0/CEAAAhCAAAQgUIAAIqAAZKqAAAQgAAEIQAACEICAEgFEgJI3sAUCEICAAgFWphS8gA0QgMC2BPzyuR+s+MUSQATEkiMfBCAAAQhAAAIQaJjA6cN73bGp3e7Y1K4tW3nt9gO3/NW3bvn+Nw1TaLdpiIB2fUvLIAABCEAAAhCAQDABP+Gfm97n5qan3POH9wbn+3/ffOcu3/jKXf70vrt8435wPhLWJdCuCGA5u25kUTsEIAABCGxDgK0MhIcOAf/Gf37mSXd+Zn9vo7wguLh4d/Rv5evvepdHAfkItCsC8jGjZAhAAAIQgAAENhPg5Zu5mPBv/i8++6/uhemp5LYjBpIjTV4gIiA5UgqEAAQgAIE+BJhL9qFHXgiEEbgwe8C9+rOn3RO7d4ZliEz196++dXNX/u4Wv3gYWQLZchEYLwIYhXMxL1cuPizHmpogAAEIQAACBgjs/9FOt3DmcJa3/9s1/xdX77iFpXsGCA3HRFYChuNrWgoBCEAgDQFeMKThSCkQKEzAC4Br5467Uwf3FK75UXVvL624+au3q9RNpY8TQARsGRV8sEVngQAEIAABCECgHQK1BcAqSYSATkwhAnR8gSUQgAAEIBBDgJWJGGrRedrG3eZLQBUBsBp0r/35c/fqh59HxyAZ0xBABKThSCkQgAAEIAABCEBAksDCmSNJjv9M2bifX7nFnQLbAS2gthEBKSN6SGUVCM4h4aStEIAABCAAgRwE/Pn/vz9zOEfRvcr0R4jOXvqU24Z7UeyXGRHQj1+S3P6SjtNHwm/mS1JpZCELSyt02Eh2ZNMi4I/Gs/Tj4p303rI09qZvff0S/ZGRmy+TWv7qW54xCV3jtwEtz5/MfgxorMl/uHHfzV25FZs9Ml+bW75iYCACYqglzuMnI94RFn7/8c5Nd+3OAwumYiMExhKYfWqP++jFE6YIcbxeendZGnvTt16/RH++/PL9b0aGrj53rt1+4Fa++Y4z5wPdp7gNaLPpzCsCnZkhGSIgA9SuRVp6ENFZu3qX9IoELDwYN3O7/uVDN3vpE0WcZm2yNPaahRxoeMy7Wd8nvEhY/PKh8+LA/928shBYfZPJ/G3AN8+flG/b+3ceuNPv3JS3s0UDEQECXrX0IEIECAQMJvQmsPLKjOzy+HaNO/72x2yV6O39tQIsjb0Jm910UX71wAsCv3Lg/62uJDTd6DGNs/Syg7lFnQhFBNThvqFWSw8iOqpAwGBCLwKqH8mFNIpj9UIohaexNPaGt4qU6wn41QIvBvxNtf4bhCH9LL3s4O6AOpGJCKjDHREgwB0ThknA35b5/GEbH+Jv9pB/y3ls4W/DdFyGViMCMkAVLtL3n8s37g9CEMxNT7l3zx4V9sZG0/xJQft/t2TG3lYMRQQIeNLSg4iVAIGAwYRoAlb2yG7XQFt9MGand7R7O2e0NPZ2bhwZtiXgVwj8iVt+haDFn6WtQKv8uTegfCQiAsozf6xGSw8iWxMQAedighQBS31tHDiWzdOFVAvxkI7GMEvyb6C9GGjtCN7l+R+7Z/btMuVUtjuWdxcioDxzRIAAc0wYJgGLD8bNnvKTlmMLH3MKSoIQRgQkgNhIES2JAX83wL2XZ8x5hlOCyrsMEVCeOSJAgDkmNEpgm5us/cVQ75073kTDuTMgjRsRAWk4tlSKFwOvfvj5aGXA6s/qWMd3AeUjDhFQnjkiQIA5JgyPgMU9suO8xBuzNPGLCEjDscVS/EfE83+8bfJyTKsiwMfRjjf/2mI4ybYJESDgGksPIr4JEAiYsSZof4RZk5xfHl+eP2nyboBx3LgzoH9EWRp7+7eWEmIIvHH97mhlwNIlZJbjGhEQE6XxeRAB8eyS5bTUYREBydxOQQUJWL4bYBwmPqLrH0CWxt7+raWEWAL+JKH5q7fN3DNgOa4RAbFRGpcPERDHLWkuSx0WEZDU9RRWiMDiSyfcqYN7CtVWphruDOjP2dLY27+1lNCHgN+vPv/HO6N7BtR/luMaEVA2uhABZXlvWZulDosIEAgYTOhEoIW7AcY1mP7YKRQeS2xp7O3XUnKnImDho3zLK5+IgFSRGlYOIiCMU9ZUlh5ETDqyhgKFZyBw8blD7lenDmQouX6RQ7gzYJsDn3o7wNLY27uxFJCMgLoQ4MPgZK5uviBEgICLLT2IEAECAYMJnQi0cDfAuAZzZ0CnUGAloB8ucq8joCwEZp/a4z568YQ5f/lvL2YvfWLObssGIwIEvIcIEHACJjRJYG56yr179miTbVttlPJkRB38lmMvh2ypu03GPuWXYt//8icynEINGcLKZiiLUukQAaVIb1MPIkDACZjQJIHLZ4+6F6anmmzbaqO4MyDevZbG3vhWkjMXAb8SN3vpU7d8/5tcVUSXe+3ccff84b3R+Wtk/PWfPjN9SVsNZn3rRAT0JZggv6UHUc03Hzn3BidwI0WIEfB3A9x7eUbMqjzmcGdAHFdLY29cC8mVm4DqFpYLswfc688eyt38pOUzjiXFGVQYIiAIU95Elh5EWUQAs/u8ATbQ0i0+BGNdxZ0BceQsjb1xLSRXCQKK/c/aqWiqYmpc/LQybUEElBghJtRh6UGURQQI+AATChEoOHK2eDfAOC9xZ0Bc/Foae+NaSK5SBP79Pz+Ru0ws3xiY/sMZtgKVitSN9SAC6nDfUKulBxEiQCBgMGEiAaunY0xs2DYJ6Jvd6Vkae7u3jhwlCSh+m2PlvgBOOSsZqYiAerTH1GzpQcREQy58MGgLAi3fDTDO4Zys0b0rWBp7u7eOHKUJ/PzKLbkbhS0ckay4nap07NSqj5WAWuTX1WvpQYQIEAgYTJhIYOWVGffE7p0T07WUgLdp3b1paezt3jpylCaguC1P/Zhkxq3SUcpKQF3iW9Ru6UGECJALHwzaRMDKEngOx3FnQDeqlsbebi0jdS0CiqsByseFMmbVitRH9bISUJf/qHZLDyJEgEDAYMK2BIZwN8A4AIr7kpXD1dLYq8wR29YIKPZBf1zy8vxJudXRP9y47+au3CJ8KhJABFSEv1q1pQcRIkAgYDBhLAFrx+LlcCVnbYdTtTT2hreKlLUJKPbB04f3uvfOHa+N5of6/ZGgp9+56Va+/k7GpiEagggQ8LqlBxEiQCBgMGEsgSHdDTAOAh/ZhXcQS2NveKtIWZvAG9fvugsffFbbjMfqV9kq6b8D8AJg8YuHcoyGZhAiQMDjlh5EiACBgMGEsQQsnISR232KHyfmbnNs+ZbG3tg2kq88AeU+WFsIIADKx+N2NSICBPxh6UGECBAIGEzYkoDacndNN9FPw+hbGnvDWkQqFQKKl4etsqklBPwWoPmrt1kBUAlSPgzW8ISlBxGTC42YwYrHCSycOeLOz+wHjXOOOwPCwsDS2BvWIlKpEFDflucvVLx89hn3zL5dRZD5j4Dnr95p9xuAHc45f5GysR8rAQIOs/QgQgQIBAwmPEZA9fQL/0zwz4bSvw1nbxt9OJVgZmnsLcGDOtIRUDwlaHPr/Ljp+8CvTh1I1/BNJfmx6MIH/+MWlu5lq4OC4wkgAuLZJctp6UGECEjmdgpKSKDW8nbCJiQvSur8bVEhYmnsTR4gFJidwI43/5q9jhQV+FWBi88ecs8f3puiuFEZfvJ/cfHu6B8nACXDGlnQ+NdRiIBIpCmzWXoQIQJSej5TWaITrkytHRWrfBlOznZvV7aFN5G12KzWy9ib1wP+yN5j+3a50d+pXW724J7R/z51cE/eikVKt/a89L559adPu7l/2xd9p4Df9+/f+i8srTD5F4nD7cxABAg4iQeRgBMwwSwB7gYY7zrF88qVAo2xt443/DYU/yH/6SN73dz0VLF96aVbq/5dwHY8Vv3j//oxdty3A/5lw/L9b93il//rLt/4yi3f/6Y0ZurbikDgy8DEIqDWDljbMcCDyLb/sL4ugYvPHcq6p7Vu6/rVbnkS0q/lYbkZe8M45U7lt6P4LX3zM/uj30DntjGmfD7Qj6FGnpIEEouAkqa3UxcPonZ8SUvKE+BugPHMlc8rLx8pj9fI2KvghY02eDHg/VLq1JqcBNiSl5MuZacggAhIQbFnGTyIegIk+2AJ+K0E7549Otj2hzTc2r7kkDalSsPYm4pk+nL87d/eP0/s3pm+8IIlWvk4uCASqhIigAgQcAYPIgEnYEJmAnm2CnI3wGS3sSVhPCPG3snxUzOF/3bg8tmjSU+tKd2eJ99a4gPZ0tCpL5gAIiAYVb6EPIjysaXkdgn4CcK9l2fabWCilm24MyBRma0Uw9ir4clJ3zBaFvusxGnEGFZsTQARIBAZPIgEnIAJ5ghwN0C4y6TuDAg3O3tKxt7siJNVYFUIIAKShQAFZSCACMgAtWuRJh5E/9zNwYDW1bukz0Vg8aUTgzlvvC9DPlDcmqCJsfefppceeye9ne8bkzH5/dagF6anYrJWy/PrP302ujCLHwQUCSACBLzCg0jACZhgioA/UvCjF0+Ysrm2sdwZ8LgHVMbekC9mSouA2vG6Vf1+C+Dy/ElTHwtzTK9iJGHTKgFEgEAsqDyIQlDwIAqhRJrcBLgboDthJiO6IiDEm4y9jyhZ2wZoqd8prv6E9A3SxBNABMSzS5YTEZAMJQUNhMDKKzOm3gYquIU7AxABCnGYwgZLd4NYEgEpfEMZtggkFgEhi5q2AJWwFhFQgjJ1tEKAuwHiPcnb5I3sGHvjY6lmTn+HwOvPHqppQnDdiIBgVCSsQCCxCKjQggaq5EHUgBNpQjECFj8OLAZnQkXcGYAIUInFPnZYOh4YEdDH0+TNTQARkJtwQPmIgABIJIGAc+7Y1G538/xJWEQS4M4AREBk6Mhlu3buuIlLxBABcqGDQesIIAIEwgERIOAETDBBQH0bwB9u3HezT/2Le2bfLlme3Bmw5hrGXs0wDflAtZbvum56RgRoxhhWPSKACBCIhLDBrOvQk6dh7CnOw5VSwwiofxDoJ9j7f/R/pPcrc2cAIiCst2mnsvJtECJAO46Gbp0JERDyVsCyI8NEgEYL7YsADTGl4U1bVqjfDbC61cbvV1bfssSdAY9ifzhjb3vjnvp4sDq6IgJsPWeGZq0JEdC6U6o9iCKeC/ZFQOvR1G77Fs4ccedn9ss2cP1Ht+q3GTMxGZoIkO02vQz7/pc/6ZW/RGb6WgnK1BFLYBsREDFDjLVi4PmqiYAI7oiACGhkSUJA/W6An1+55S7fuD9qq/q3C9wZgAhI0ikrF2JBBPz6T5+5i4t3q5LyByocE/1OafHLh27l6++q8hly5awECHgfESDghJZMaHD/nPotoZsn1RZOMULQD2k7UEsD3Fpb1L8R8pYq9DPlOYYCnzZ7R1irEAFhnLKmUu6gmxtOh80aChQ+hoD6cYBvXL/rLnzw2Qbr1bcEcWeAMRHwXzfdtX88YIxYR0B9XEAETA5X5hSTGeVMMWgRoPLCFBGQM8Qp2zqBEm/V+25+/Pf//MQtfvFwA2r1LUHcGWBMBLxz0127gwhY38ksiIAdb/61+hAcNcfoOygGthoREAgqU7JBi4BMTDsXG9VBO9eSJsOwO2yhUTGNq5opRb1/XP/yoZu99MljvC3cajr0OwPUY2t9UA177N16OFP/Tkjl2xvlOCeuKz6qdzj3m//79OiUtB3ut3/xMxx+FQjU66DdJ7V02AoBMvAq1ff9bvfh3+WzR90L01OyHhz6nQH1xt7uIcHY+zgz9Q+D/eWBc1dudXd24hzKcU5cJ3Z2x+KqrQSobMXpyCtLcuUOurnBdNgsIUChYwicPrzXvXfuuDSf7c7cV/+g2YMd8p0BjL3SXWuiceoiQOV4UOU4Z04xMcyzJqgmArK2yljhyh30Ecq1FQM6rLHgMm6u+t0Ak970WdgSpDJRqRGq+mPvGhXG3o0RYuGyMBWfKce5CqMa449CnYgAAS8od1BWAgQCZKAmWJhAh+ypV98SpLJvuUaYM/bWoJ6mzrnpKffu2aNpCstQiv/wfv/vljKU3L1I5ThHBHT3Z8ociICUNCPLUu6giIBIp5KtN4EkW2m6f/YSbHfo6TpJ2hFsVVzCrU43iivJVi7GXlv+Wm/txecOuV+dOiDbgEmrhCUNV45zREDJSHi8LkRAXf6j2pU7KCJAIEAGakIr5+xbWNEYf2dARhUlENeMvQJOiDRBfXwIWSWMbHrnbMpxjgjo7M6kGRABSXHGFabcQREBcT4lVz8CJe4G6Gehcz+/cstdvnE/qBj1bxuUti4EAU2UiLE3EcjCxVgYH558a8mtfP1dYTJbV6cc54iAuiGCCKjLn5UAAf6YoEdAfam/6z569f3LPgKU3lyWishkk6MCCyZMltaiQv0ivi63cZc4KTFZnGfomPbiukBnz8B5XJGIgIKwx1Wl3EFZCRAIkMGYsDa4qt8N8Mb1u+7CB5918oz6xUZKe5g7ge2RmLG3B7yKWdXHB7WJrXKcq7GqGNZVqkYEVMG+sVLlDooIEAiQgZlg4a15zIe06luCfJgN7c4Axl57g4v6h/aKF/ApxzkioG4fRATU5c92IAH+mKBFQP1IzetfPnSzlz7pDM2CuNnu9uPODTaQQXlyxAuYxwPIf2TvPwh+Zt8u2ehS3FanHOeIgLqhjAioyx8RIMAfE3QIWDhJp89EWX1LUNdvHXQiJ84S5ckRIuBxn6qvpsW+IIiL3vBcynGOCAj3Y46UiIAcVDuWqdxBeRB1dCbJexFQ/+DPN67Plhn1SYxvX8xWp15Or5iZsbci/I5Vq28D8s1RndAqx7kqs47haTY5IkDAdcodFBEgECADMkH97O++H8+ePrzXvXfuuLRHu5xsIt2QAOMYewMgCSSxIAD6jg05MSvHOSIgp+cnl40ImMwoewrlDooIyO5+Kvgngdmn9riPXjwhzSPFfl/1k02GdGeAqbH3v266a/94IN0/chhnQQD4PjN76VO3fP+bHAh6l6kc54iA3u7tVQAioBe+NJmVOygiII2PKWUygdpbZSad/uwf9McWPt54AVDEId/qdyB4T6UQO5M9Xj8FY299H2xngYW+4u3vcnFgDeLKcY4IqBERa3V2EAGTHpF1G2K5duUOigiwHFm2bFf/aDbVNhkLKx7KWxtSRjVjb0qa6cry2+a8ADh1cE+6QjOVlGpcyGTeqFjlOEcE5PT85LI7iIDJhZEijoByB0UExPmUXN0IWFjyT/m2T31LkPdenw+gu3m/XmrG3nrst6r52NRu9+pPn3bnZ/ZrGTbGGn8a0Ol3bm5cHRS0XDnOEQF1AwYRUJe/vEpHBAgEyABMUL8bIPXRmRa2OfQ5CtVKyCpPjoY09vo7NOZn9rsXpqeshI5T/w5gPUjlOEcE1A15RMAm/hFbfHt7ULmDDulB1NuRFBBFwL/9u3n+ZFTeUpneuH7XXfjgs2TVWdgSlFr4JIOXsCDG3oQwOxTl43/24L+4uel97vSRve6J3Ts75K6f1AsAvwKw+MXD+sYEWKAc51VEQI2JXoCfaiRBBNSgvqlO5Q6aUgTQ7wSCTdAEC3cD5Dg738KWoBztVgpBS2OvX5mpO+nsNoJ7cX9sau1mX7/P3/+e/+dfpTjoYoueAJj8vaZynFcRAV0c3nhaRICAg5U7aEoRIIAaE1YJdHueZ+WmPhnOdQuoBfFj4aPHPsFpaezt007ypiGgJwDC2qUc54iAMB/mSoUIyEW2Q7nKHRQR0MGRJO1MwMLlWbn2xlvYBtX6nQGWxt7OnYsMSQn0FgAVX7woxzkiIGmYdi6sbRFQsdN18YRyB0UEdPEkabsSqH03QIi9T761lO30D/Ubkj2flu8MsDT2hsQqafIQ8KuB81dvV96OFd825ThHBKz36+StXfFRsHXOtkVAalqZylPuoIiATE6nWLf/Rzvd8vxJ6Y8Cc5+Xb2FLUG4GNbuCpbG3Jqch1+3jf/7qnWwvAkqwVY5zRECJCBhfByKgLv9R7f076Bj1mEFU0mEFAqYREyzcDZD7LbiFLUE+3Fq9M6D/2NtIZ6QZWxLItRWwNG7lOGdOUToaNtaHCKjLP5EIKNcIOmw51q3XdO3ccemTQkrth7ewJaiVydDmPqU8OWq9/yu3z/r2H0txnmdOkeENqHLA9rANEdADXqqslh5EeTpsKpKUY4WAhTfgpU7GsbAlqNU7AyyNvVb6tnU7X/vz5+7VDz+33owN9ivHOXOKuqGGCKjLn5UAAf6YUJ6AhRtzSz2c/LcR916eKe+EjjW2eGeA8uSoo3tI3pPA+3cejPb+L9//pmdJetmV47zUOKvnFQ2LOouAmgfu1Kw7p7uUO+jmdtNhc0bCcMpWvxug9Jvvy2ePuhemp6QDoNTKSEkIlsbeklyGVJff+uNvA79250GzzVaOc+YUdcOuswioa26btSt3UERAmzFXs1Vz01Pu3bNHa5owse43rt8dTQxK/Sx8JF3qG4lSzH09lsbeklyGUlfuD/9VOCrHOSKgbpQgAuryH9Wu3EERAQIB0pgJFu4GSHoaTsASppUtQa1NmiyNvY0NAxLN8cL22u0H7vKNr9zC0j0Jm3IYoRzniIAcHg8vExEQzipbSuUOigjI5vZBFmxhsuu3B8xe+qS4fyxsCWrtzgC5sZdDTYr3u9UKvSC4/OkjMdDa1iC5OF/nZURAtZAfVYwIqMuflQAB/phQjoCFbS+1jsO0wMZHStJVknKht2VNypOjymgGXb1/EXBx8W4zqwPKcY4IqNvVEAF1+SMCBPhjQjkCFs7Ef/KtpSq3g1pYJfGRUkskbR+lca/QlSdH5XolNY0j4A8I8MeFWt8qpBzniIC6/Q8RUJc/IkCAPyaUITD71B730YsnylQWWUvt7S4WvpcofXJSpCuDsilPjoIaQKIiBKyLAeU4RwSEhXDAp2VhBW1KhQiIwpY2k3IH3dxSOmxa3w+pNAt3A9T+8NXCyUk+Zlu5M8DS2DuksUK1rf4ugQt/+swtfvFQ1cQt7VKOc+YUdUMJEVCXPysBAvwxoULJ5ZoAAB29SURBVAyBlVdm3BO7d5apLKIWlSMw1Tl5tK3cGSA3OYrb1RQR7WTpQ8DarcJycb4OPiKgTyT2z4sI6M+wdwnKHZSVgN7upQDnnIU33CoTWwtbglQEU9/OZWns7dtW8qcl4D8enrtyy8QNw8pxjghIG5ddS0MEdCWWIb1yB0UEZHD4AIuMPf6y5ItRlYeRBcHkQ7j21qkU3cjS2JuivZSRloAXw7/44x337o37aQtOXJpynKuMu4mRmykOESDgKuUOiggQCBDjJhyb2u1unj+ZvRV9BIPax64WtgTV/og6RUBZGntTtJcy8hBQ3x6kHOeIgDwxGVoqIiCUVMZ0yh0UEZDR8QMp+sLsAff6s4ekW/vG9bvuwgefydhoYUuQh2X9zgBLY69McGLIlgRUthNuZZxynCMC6nYoREBd/qPalTsoIkAgQIybsDz/Y/fMvl3SrVCbzJ4+vNe9d+64NDNvnOadAeHYLI294a0iZS0CqkJAOc4RAbWi9VG9iIC6/BEBAvwxIR8BC3cD+A/8Zi99kg9CZMkWxJPaNqquqJUnR13bQvpUBPpsLNQ8OUs5zhEBqeI2rhxEQBy3pLmUOygrAUldPbjCLGxrUX2bbeFeBR/Qlu8MsDT2Dm7wMNxgtRUB5ThHBNQNdERAXf6sBAjwx4Q8BPb/aKdbnj8pfTeAb/mTby25la+/ywOhR6kWVlF889QmPF2QK0+OurSDtHoElD4WVo5zREDd2EUE1OWPCBDgjwl5CMzPPOl+f+ZwnsITlap+wo2FLUGW7wxQnhwlCnGKqUjg51duucsCx4cqxzkioGKA8k1AXfirtSt30M2E6LAaMWPBimvnjrvnD++VNlX9rHsrW4LUOY4LQktjr3RHwrgtCXiBPHvp0+oXiinHOXOKup2HlYC6/FkJEOCPCekJlLoboI/lOd5g73DO+c8KU/2sbAlSX1FBBKSKSMrpSkDh4AFEQFevDSc9IkDA18odlJUAgQAxaIKFmLayl93CliAfomrHrIZ0m9px2u8cmpAWkkaBQO3vA2rH+XY+YCWgboQiAuryZyVAgD8mpCdgYeK6+vBJ/fY+Nc3HLltTmTluskP1lKXt/KE8OWr5BYxf4dq/e6fzK4bHpnY5fy+G//+e2L0zdfeRKa+mSFaOc0RA3RBFBNTljwgQ4I8JaQlYuOjK0vn2FrZW+QiyxHQ14pUnRy2LgHEjjo91P37MTe9zL0xPpR2YKpf2/p0H7vQ7N6tYoRzniIAqIfFDpYiAuvwRAQL8MSEtAQt3A7xx/a678MFnaRuesbTFl064Uwf3ZKwhTdG97wwovCyjPDkaoghY32Z/xPDc9JTzK2EWYj+kB9U6LUg5zhEBIZGTLw0iIB/b4JKVO6jKg6jw3CDYdyTcSMA/uO+9PCOPpebSfAycx7YExRRSII+V7yxYCSgQDAmr8KsD/jmpftrYpCbXWi1TnmMgAiZFTd7/jgjIyzeodOUOqiICgkCSqDoBC3cDKJzW0dVRVrYE5ThxqSurLukZe8NpKbyI8SsD/tjcZ/btCjdcLGWN43SV43wkAv7xIO2xamI+VzYHESDgHeUOiggQCBBDJljYtmLxA1YfAhbYejtrTHJiuwhjbyy5evn8auPFZw+58zP76xnRo+YaqwHKcc5KQI9gSpAVEZAAYt8ilDsoIqCvd4eT38rb6iffWnIrX39nzjFWtgRZujOAsddcN/jBYAurjuPolv42QDnOEQF1+6BpEaCwPJnCfcodFBGQwsPDKMPC7baWJqibo8bK9xbebivfXDD22h6b/LGi/mZya0eLlj4paHyc1z9vGBFQtw+OFwGtzLDr8g2qnQdRECYSiRNYeWVG/mFsaavKVu6+fPaoiaMTrWy5YuwVH1QCzLMqBEoKZeU4RwQEBHnGJKZXAjJyKVq0cgdlJaBoKJitzH+w9+7Zo9L2W/todSuYVrZA1Nj3HBN8jL0x1PTyWOkX68mVPKZYOc4RAXX7EyKgLv9R7codFBEgECAGTLDwhtra8ZVbud3SlqDedwYUiHvG3gKQC1VhYTviehQlhbJynCMCCnWQMdUgAuryRwQI8MeEfgQsTUz7tZTcXQhYEF3KkyNewHSJNuf8OORP0LJ0fGgpoawc54iAbnGeOjUiIDXRiPKUOygPogiHDiyLlVNrBuaW6s21sP2Ksbd6mCQ1wMK2xPUNfu3Pn7tXP/w8KYOtClOOc0RAdvdvW8EWIqD+1+I5kSh+76zcQREBOaOxjbKtnF/fBm1brSh9FGJXOoy9XYnpp/enBVm5WbjUxYXKcY4IqNunWAmoy39Uu3IHRQQIBIiwCf5kjo9ePCFsIabVJKB+JCtjb83oyFO3tY+ES9xbohzniIA8/SC0VERAKKmM6ZQ7KCIgo+MbKHrhzBGzN3c2gN9EE0pMcmJBMPbGktPOZ+G44lWCJVbLlOMcEVC3LyEC6vK3uxKguK9KwJdDM8HSw3ZovlFpr/KdAcqTI17AxEewpZOCSnwXoBzniID4OE+RExGQgmLPMqp10IjPP+iwPZ3dUHZry+4Noc/WlIghYaItpfY9TzRkiwTVxt4IYxl7w6FZ+kC4xO3BynFOXIfHdY6UiIAcVDuWqdxB9d9G5Zi2dHTgQJNbuBtgoK6Ra3apoxC7NpyxtysxO+m//+VPTBhb4hQt5ThHBNQNU0RAXf6j2pU7qL4IEHDgAE04NrXb3Tx/coAtt97kOqK55O2oXTzE2NuFlq20EqcEBXa3HW/+NStc5ThHBGR1/cTCEQETEeVPoNxBEQH5/W+xBksxa5FvazaXeNsZwmzzp0yW4pjJUoiH19JY+i4gt2+V4zx327tFzfBSIwIEfK7cQREBAgEiaMLy/I9N3cwpiHBwJpU4BaUrVMbersTspLd0iWHuvqEc54iAun0KEVCX/6h25Q6KCBAIEDETTh/e6947d1zMKsxRJ6B4ZwBjr3rUxNtnaZzKfUKQcpwjAuJjPEVOREAKij3LUO6giICezm0wO3cDNOjUQk1SuDNg/ZYgxt5Cjq9QTU0REPgpwA9UEAEPKkQIVXoCiACBOOBBJOAETAgisP9HO93y/En3xO6dQelJBIH1BNTuDGDsbTs+rZwQlHuVTDnOWQno0we7ys3H60IE9OGfKK9yB5VdCeCyskTR160Y7gboxovUGwmo3RnA2Nt2hFoRAbnvClCOc0RA3T6ICKjLf1S7cgeVFQECfhuiCRLH7g0RfENtVrozgLE3PrAsvIdBBDzyr3Kca4uA/m/a43tYmZyIgDKct61FuYMiAgQCRMQE7gYQcYRxM5TuDGDsNR5ME8xHBCAC2o7w/q1DBPRn2LsEHkS9EVJAAQKWzt0ugIMqIgmo3Bmg/oaUFzCRAbYuGyIAEdA/itouAREg4F9EgIATMGEiAe4GmIiIBIEEcp+LHmiG9DYJRECoF8enQwQgAvpHUdslIAIE/IsIEHACJmxLYG56yr179iiUIJCEQO7TUEKNZOwNJWUvnT/J7N7LMyYM58NgjgitFaiIgFrk19XLg0jACZiwLQHuBiBAUhNQuDOAsTe1V3XKq3lPQFcKiABEwOSYyfORMiJgMvnsKXgQZUccXIGFEy+CG5MooaU3aomaTDEFCCjcGcDYW8DRlapABKyBV45z7dOBKgVvwWoRAQVhj6tKuYNutpkOKxAwhU24MHvAvf7socK1Ul3rBBTuDGDsbTfKLPmWlQBWAmr1RERALfLr6rU0WCECBAKmsAmLL51wpw7uKVwr1Q2BQO07Axh7242yy2ePuhemp0w0EBGACKgVqIiAWuQRAQLkMWESgdmn9riPXjwxKRn/HQJRBGrfGRArAjbvzs2zW3cjUl7AdAsxS6eZvb204uav3u7WwA6pY+O8QxXRSYnraHRJMiICkmDsV4hyB93cMjpsP19by83dANY8Zsve2ncGMPbaipdQa61dbPjanz93r374eWjzOqdTjnPmFJ3dmTQDIiApzrjClDtoiAjgY9o4v1vItfLKjHti904LpmKjUQI17wywPvYadXl2s619x4QIGPp2oBJriVt3O0RA9uFocgXDehDVC/bJniDFegLcDTCkeKjXL0PvDMjxsmFYY2/D8bwpOKx9x5RbCCvHOSsBdfslIqAu/1Htyh00ZCVAACEmZCBg6cO6DM2nyIIEat0ZwNhb0MmFqrJ0NOgqktwTYeU4z932QmFnthpEgIDrlDsoIkAgQCqYYG1PbQVEVJmQQK07Axh7EzpRpKhr54675w/vFbEmzIwdb/41LGFkKuU4RwREOjVRNkRAIpB9ilHuoIiAcM/m2K4QXnvalNb21PZufb3dML1Nb6GAWncGMPa2ED1rbbC4ClDi43jlOEcE1O2DiIC6/Ee1K3dQRIBAgFQwwdLxehXwNFxlPTVU484Axt52QtnfbO6/BXhm3y5Tjcp9R4D6HAMRUDdcEQF1+SMCBPhjwkYClu4GqLWX3ErMWFrRqXFnACLASiRPtrPbN0z1xO7mluQ7GWitjcpxjgiYHNs5UyACctINLFu5g5ZaCYjdShObL9A1g0y2cOaIOz+zX77toafKyDcko4GWvu0osS1iM2rG3ozBV7DoqDFLRAfkPhmIlYCCgWiwKkSAgNN4EAk4ARNGBPyS+vL8SRN3A/zi6h23sHQPz00g0O+4xAkzpcQTqRITovW4GHvtd58oASDU7BKrmcpxzkpA3WBEBNTlP6pduYOWWgkQcAMmOOfmZ550vz9zWJ5FjbfG8lDGGGhpS1Dp1R3GXqtR/eiFhd8CZO0koPXES30QrxzniIC6fRARUJc/IkCAPyasEbByvN7bSytu/uptXBdAwNKWIN+cEm9GV7FlmRwlXh1ZtZXJ0lqw+5cVF5/7VxMrltt10VLfwWSJ84CxJyQJcZ1pwAiB75xDBASCyplMuYOyEpDT81plW5oslt42ouWp7tb02xLUvb4+OUreGcDY28dT5fP6I0C9zyy//V9PrdSJWMpxjggo34/W14gIqMuflQAB/pjwiIDyg2K9j9gK1D1iLW0JKrVFwlLMe1uHPFnyb/7nZ/Y3M/n3/vz7V9+6Ywt/696ZI3Ioj+1DjusIVybPgghIjrR7gcodtHtryJGDQL5j5NastXI3QKkl9Bx+rFWmpVUez2j1DWnu078sjb1Dmyz5t/5z/zY1mvw/sXtnra6Trd6S41j1ON9mx8vQ4jpbQEUWHC8Cco/OkQ2ymK16B7UIbWA25xYBc9NT7t2zR01QLbWEbgJGByMtbQkqNUGyNPa2Plnyk35/R4n/e/rI3iYn/uu7a8lxTDnOW4/rDkN0laTxIqCKuW1WqtxB2yRur1VdRUBXjW7lmL2SS+j2omR7iy1tCSq15cvS2Ou/lVj84qH5sPQTfX+yj/83e3CP86tU1m757euEklvevK3KcY4I6BtN/fIjAvrxW8vddda1rl7lDpoKD+X0I9BVBHSpzT+M77080yVLtbSl3hBXa2DGiq1tCSrx8Tdjb8aAo+ixBErfcaIc54iAuh1lowjoMZGt2wzbtSt3UNtk27E+pwiwcjeA9+bxtz92y/e/acexhVti5QhYj6XEnQGMvYUDkOqKfhC8ils5zhEBdTsFKwF1+Y9qV+6gAngwwTmXUwRY2Steegm9xcCzJPg8/9x3BjD2thjl2m0qvQqgPsdABNSNV0RADv4dV1R4EOVwQltl5hIBlraIrD8/vmMXaysYerTG0tYv38zcdwYw9vYIJrJ2JlDrmyblOEcEdA6jpBkQAUlxxhWm3EHjWkSu1ARyiYCLzx1yvzp1ILW5WcpjK1AarJfPHnUvTE+lKSxzKblXfxh7MzuQ4jcQqLEKwEoAQbgdAUSAQHzwIBJwgrgJuUTAyiszJo7ie//OA3f6nZviXgowT2AJw9qWoJxHKTL2BsQsSZIQqDmGKcc5KwFJwiu6EERANLp0GZU7aLpWUlIfAjlEgKW7AWq9QevjM9W8wVuCtrngp2Tbcp4Ixdhb0pPDriunmJ1EVjnOEQGTvJf3vyMC8vINKj2og4o8kIMaRKLkBHKIAEvbQnJ/IJrcYeIFWvJ9zjsDgsZecV9inj6BHON3l1aHxHmtKQYioIsn06dFBKRn2rnEkA7auVAyNEUg9UMk+G2wAMUSR0UKNLOoCda2BOW6M4Cxt2jYDbKy3N+1hEBVjnNEQIgH86VBBORjG1yycgcNbkTfhLVeQ/S1u1D+1CLA0u2xbAVKH2SWRKBvfS4hyNibPrYocY2AX8WavfRp9btNlOMcEVC3x9gTAQIf1qV2mXIHTd1WyosjsK0IiOgTy/M/ds/s2xVnTMFcObeCFGyGZFWWtgR5gDm2hDH2SoZmM0blWsHqCkg5zvuLAN4gdo2H9entiYA+rRXNq9xBRZENzqyUKwGzT+1xH714wgTDt5dW3PzV2yZstWaktS1BOe4MYOy1FrV27O23gpl2Yqsc5yEiIOI9l51AqWyptAgYiuNLdtC0Q0vl6B1Q9SlFwMKZI+78zH4T9FTepJmA1dFIa1uCcuytLjn2dnQPyQ0TUHt5oRznISIgeygMZbK5BUhpEZDd8SIVKHdQEUSDNyOlCLByNwBbgfKHvbUtQY8ds9jz4R009vLmJH8gNlSDmgDwaIPivJIPJERApbYrVIsIEPCCcgcVwIMJzrlUIsDSFhDFh2lrwWgpHjz71HcGMPa2FtF126M6ZinHOSKgbswiAuryH9Wu3EEF8GBCQhFg6c1vzct1hhR0VlaGvE9Srw4x9g4p0vO2NbVATWmtcpwjAlJ6untZiIDuzJLnUO6gyRtLgVEEUqwEHJva7W6ePxlVf+lMf//qW3ds4W+lqx1kfZa+EfEOSvmdCGPvIEM+eaP9R8BvL91zfueY4k8xzld32SEC6kYMIqAuf1YCMvJvaStvChGg+CAY537lt2oZQ7ZK0XPTU+7ds0er1B1Taco7Ayz1iRhW5MlLwK9Mzf33LXftzoO8FfUsXTnOEQE9ndszOyKgJ8AU2ZU7aIr2VSujIRWQQgRYuRvAxwtbgcr2GktbgjyZVHcGMPaWjbOWavOnVc1duVX9IrAQpspxjggI8WC+NIiAfGyDS1buoMGNIGFWAn1FwOnDe917545ntTFV4TmOgkxlW6vlWNsS1O8M9jUv5h57G3oP0WroR7Wr73gcVWmPTJPivGacIgJ6ODZBVkRAAoh9i5jUQfuWT377BPo+dCxN8nJcCmU/AvK2wNqWoFRCkbE3b1y1VrqPO3954eIXD001TTnOEQF1QwkRUJf/qHblDiqABxN6ng7kL4Vanj/pnti90wTL429/bGKJ3QTMDkZa2xKUIk4YezsEyICT+r3/Fxfvulc//NwkBeU4RwTUDSlEQF3+iAAB/tlNSLDW2mclwNJZ8Kne8Gb3aYMVWFot8vhTfDyuPDlqMMRMNsl/iH7hT/9j+sWEcpwjAup2C0RAXf6IAAH+FkzoIwIWXzrhTh3cY6GZLtVebxONFTPS2pagFMfIKk+OxMJjcOa8f+fB6M2/+sk/IY5RjnNEQIgH86VBBORjG1yycgcNbgQJMxL43r325y+ilqJT3Q2QYDEjiE+qU1+CKiPRYwSsbQnqe2cAYy+dYDMBLy795H9h6V4zcJTjHBFQN8wQAXX5664ElJr1CfC3YELsSsDF5w65X506INDEyQGV8vx3gQabNMHalqC3l1ZGH2rG/pQnR7FtGmS+ycPLRCz+zb/f93/5xv2Jaa0lUI5zREDdaEIE1OWvKwIEuGDCGoFYEWDpbgC2AtWPeGtbgjyxPqtHypOj6GhIMCGOrttgRi8k/Vv/Frb9jMOvHOeIgLqdBhFQlz8iQIC/BRPWi4AdzgVdT19kQpdowuFP3zi28LFb+fo7C+5o2kZrW4L6iEflyVHTQVa5cX7Lz8XFL93C0sogxhzlOEcE1O0MiIC6/BEBAvwtmBCzEjB+a0eimXtCcH23dSQ0ZfBF6WwhC3NFnxOllCdHYa0nVSgBP/H3W338W39r5/yHtpGVgL6khpcfESDgcx5EAk4QN6GrCPB3A9x7eUa8VWvm9f3A00xDDRg6+9Qe99GLJwxYumZi7J0BjL2m3NzZWC8Q/cTf/xvaxH89LOU4ZyWgc1gnzYAISIozrjDlDhrXInKlJtBVBFyYPeBef/ZQajOylOe3Au3/3VKWsik0joClb0l8C2PvDGDsjYsP1Vx+0u/39l+7/WD0l+2FjzylHOeIgLq9CRFQl798BxXAgwkRNwZbuhuArUB5Qjz025Gtare2JSj2zgDlyVGeqGinVH+az/L9b93il/87esvf8oe9fb2mHOeIgL7e7ZcfEdCPX5Lcyh00SQMppDeBLisB1rZz8BDoHR7JC7AWQx5AzJYyxt7koZOkQD/BX/2tTu79RN+/2V/88tFffuEElOOc8T/cjzlSIgJyUA0ts8+rutA6SAcBCEAAAhCAAAQgAIFNBBABhAQEIAABCCQioHfyVKKGUQwE6hHghWE99o3XjAho3ME0DwJpCTDJS8uT0iwQYA5mwUvYCAEIdCWACOhKjPQQgAAEIAABCEAAAhAwTgARYNyBmA8BCEAAAhCAAAQgAIGuBBABXYmRHgIQgAAEzBNgi495F9IAeQJsH1V3ESJA3UPYBwEIQAACEIAABCAAgcQEEAGJgVIcBCAAAQhAAAIQSE+AN+vpmQ67RETAsP1P6yEAAQhAAAJaBNirpeUPrGmWACKgWdfSMAioEeAtlppHsAcCEIAABIZLABEwXN/TcghAAAIQgAAEIACBgRJABAzU8TQbAhCAAAQgAAEIQGC4BBABw/V9kZaztbMIZiqBgCwBxgBZ12AYBCAwcAKIgIEHAM2HAAQgAAEIQAACEBgeAUTA8HxOiyEAAQhUJcDqQFX8VA4BCEBgRAARQCA8IsBTmUiAAAQgAAEIQAACgyGACAhwNfPjAEgkaZ4A/aB5F9NACEAAAhAYEAFEwICcTVMhAAEIQAACEFAhwN0pKp4Yqh2IgKF6nnZDIBkBHmTJUFIQBCDQjwBLlv34kbsegQqxiwio525qhgAEIAABCEAAApMJVJggTjaKFNYJIAKsexD7IQABCEAAAhCAgBkCrB6ruAoRoOIJ7IAABCAAAQhAAAIQgEAhAoiAQqCpBgK5CbBanJsw5UMAAhCAAAQKECj0QEcEFPAlVUAAAhCAAAQgAAEIQECJACIg1BuFVFmoOaSDAAQgAAEIpCfAfu30TCkRApoEEAGafsEqCEAAAhCAAAQgAAEIZCOACMiGloIhAAEIQAACEIAABCCgSQARoOkXrIIABCAAAQhAAALbE2CrMhHSgwAioAc8skIAAjYI8Jy04SeshECLBKqOP1Urb9GbbbUJEdCWP2kNBLIQ4DmSBSuFQmAdAT7IJRwgAIGyBBABZXlTGwQgkJEAYiUjXIqGAAQgAIGmCCACmnInjYEABCAAAQhAAAIQgMBkAoiAyYxIAQEIQAACEIAABCAAgaYIIAKacieNgQAEIAABCEAAAhCAwGQCiIDJjEgBAQhAAAIQgAAEIACBpgggAppyJ42BAAQgAAEIQECfAKdB6fuofQsRAQV8zIklBSBTBQQgAAEIQAACEIBAMAFEQDAqEkIAAhCAAAQgAAEINEtgYG9tEQHNRvKmhg0ssIfiVtoJAQhAIJgAz4FgVCSEwBAIIAKG4GXaCAEIQAACEIAABCAAgXUEEAEB4cDLkwBIJClGICwe+eismEOoCAIQgAAEIGCQACLAoNMsmBw2UbXQEmyEAAQgAAEIQAACGQlUmjQhAjL6lKIhAAEIQAACSQhUmiQksZ1CIAABSQKIAEm3YBQEIAABCEAAAhCAAATyEUAE5GNLyRCAAAQGRoBvUQbmcJoLAQgYJoAIMOw8TIcABCAAAQhAAAIQgEAMAURADDXyQAACEIAABCAAAQhAYETA5iooIoDwhQAEIAABCEAAAhCAwMAIIAISO5wDHBIDpTgIQAACEIAABCAAgeQEEAHJkVJgswRQeM26loZBAAIQgAAEhkYAETA0j9NeCEAAAhCAAAQgAIHBE0AEDD4EAAABCEAAAhCAgGkCrFSbdl8t4987d9ydPrzX7XC//Yv/tJkfBCAAAQhAAAIQgEAiAszPE4HsVYzN03t6NTkgMyIgABJJIAABCEAAAhCAAAQg0BKBVRHw/wFRFRsNiIqPjwAAAABJRU5ErkJggg==;" parent="KlYnetJEtSsTYRGKjeyn-108" vertex="1">
                    <mxGeometry x="90.81" y="6.859999999999999" width="73.79" height="30.31" as="geometry"/>
                </mxCell>
                <mxCell id="KlYnetJEtSsTYRGKjeyn-111" value="" style="verticalLabelPosition=bottom;verticalAlign=top;html=1;shadow=0;dashed=0;strokeWidth=1;shape=mxgraph.android.phone2;strokeColor=#314354;fillColor=#647687;fontColor=#ffffff;" parent="1" vertex="1">
                    <mxGeometry x="191.61" y="20" width="200" height="390" as="geometry"/>
                </mxCell>
                <mxCell id="KlYnetJEtSsTYRGKjeyn-112" style="edgeStyle=orthogonalEdgeStyle;curved=1;rounded=0;orthogonalLoop=1;jettySize=auto;html=1;fontSize=9;fontColor=#FFFFFF;exitX=1.008;exitY=0.575;exitDx=0;exitDy=0;exitPerimeter=0;" parent="1" source="KlYnetJEtSsTYRGKjeyn-103" edge="1">
                    <mxGeometry relative="1" as="geometry">
                        <mxPoint x="490" y="94" as="targetPoint"/>
                        <Array as="points">
                            <mxPoint x="430" y="271"/>
                            <mxPoint x="430" y="94"/>
                        </Array>
                    </mxGeometry>
                </mxCell>
                <mxCell id="KlYnetJEtSsTYRGKjeyn-113" style="edgeStyle=orthogonalEdgeStyle;rounded=0;orthogonalLoop=1;jettySize=auto;html=1;fontSize=15;curved=1;entryX=0.99;entryY=0.175;entryDx=0;entryDy=0;entryPerimeter=0;exitX=1;exitY=0.5;exitDx=0;exitDy=0;" parent="1" source="KlYnetJEtSsTYRGKjeyn-104" target="KlYnetJEtSsTYRGKjeyn-61" edge="1">
                    <mxGeometry relative="1" as="geometry">
                        <mxPoint x="342" y="587" as="targetPoint"/>
                        <mxPoint x="339" y="282" as="sourcePoint"/>
                        <Array as="points">
                            <mxPoint x="440" y="292"/>
                            <mxPoint x="440" y="538"/>
                        </Array>
                    </mxGeometry>
                </mxCell>
                <mxCell id="KlYnetJEtSsTYRGKjeyn-107" value="SINERGIA" style="text;html=1;strokeColor=none;fillColor=none;align=center;verticalAlign=middle;whiteSpace=wrap;rounded=0;fontSize=23;opacity=80;rotation=0;fontFamily=Poiret One;fontSource=https%3A%2F%2Ffonts.googleapis.com%2Fcss%3Ffamily%3DPoiret%2BOne;fontStyle=1;fontColor=#4D4D4D;" parent="1" vertex="1">
                    <mxGeometry x="217.31" y="120" width="149" height="20" as="geometry"/>
                </mxCell>
                <mxCell id="24" value="Reportes" style="text;html=1;strokeColor=none;fillColor=none;align=left;verticalAlign=middle;whiteSpace=wrap;rounded=0;fontSize=23;opacity=80;rotation=0;fontFamily=Poiret One;fontSource=https%3A%2F%2Ffonts.googleapis.com%2Fcss%3Ffamily%3DPoiret%2BOne;fontStyle=1;fontColor=#4D4D4D;" vertex="1" parent="1">
                    <mxGeometry x="505" y="76.08" width="90" height="27.17" as="geometry"/>
                </mxCell>
                <mxCell id="28" value="" style="group;spacing=4;spacingBottom=0;spacingTop=12;spacingRight=6;verticalAlign=bottom;" connectable="0" vertex="1" parent="1">
                    <mxGeometry x="505" y="110" width="171" height="55" as="geometry"/>
                </mxCell>
                <mxCell id="20" value="&lt;div style=&quot;text-align: justify&quot;&gt;&lt;br&gt;&lt;/div&gt;" style="html=1;shadow=0;dashed=0;shape=mxgraph.bootstrap.rrect;rSize=5;strokeColor=#DFE0E0;html=1;whiteSpace=wrap;fillColor=#FEFEFE;fontColor=#212529;align=left;spacing=15;verticalAlign=bottom;rounded=1;glass=1;labelBackgroundColor=none;sketch=0;fontSize=7;opacity=60;container=0;spacingTop=0;spacingBottom=-6;" vertex="1" parent="28">
                    <mxGeometry y="9.68" width="171" height="45.32" as="geometry"/>
                </mxCell>
                <mxCell id="21" value="" style="html=1;shadow=0;dashed=0;shape=mxgraph.bootstrap.topButton;rSize=5;strokeColor=inherit;fillColor=#ffffff;resizeWidth=1;fontSize=9;" vertex="1" parent="28">
                    <mxGeometry width="171" height="30" as="geometry"/>
                </mxCell>
                <mxCell id="22" value="" style="html=1;shadow=0;dashed=0;shape=mxgraph.bootstrap.rrect;rSize=5;strokeColor=#DFE0E0;html=1;whiteSpace=wrap;fontColor=#6C767D;align=left;spacing=9;verticalAlign=middle;labelPosition=right;verticalLabelPosition=middle;fontStyle=1;fillColor=#FFBC26;labelBackgroundColor=none;labelBorderColor=none;spacingRight=0;spacingBottom=0;" vertex="1" parent="21">
                    <mxGeometry y="0.5" width="20" height="20.5" relative="1" as="geometry">
                        <mxPoint x="10" y="-10.5" as="offset"/>
                    </mxGeometry>
                </mxCell>
                <mxCell id="30" value="En proceso" style="rounded=1;arcSize=50;strokeColor=none;strokeWidth=1;fontColor=#ffffff;align=center;verticalAlign=middle;spacingLeft=0;fontStyle=1;fontSize=8;spacing=10;shadow=0;glass=0;labelBackgroundColor=none;sketch=0;html=1;whiteSpace=wrap;horizontal=1;spacingTop=0;fillColor=#6C767D;" vertex="1" parent="21">
                    <mxGeometry x="40" y="7.5" width="65" height="15" as="geometry"/>
                </mxCell>
                <mxCell id="37" value="&lt;span style=&quot;color: rgb(108 , 118 , 125) ; font-family: &amp;#34;helvetica&amp;#34; ; font-size: 8px ; font-style: normal ; font-weight: 400 ; letter-spacing: normal ; text-indent: 0px ; text-transform: none ; word-spacing: 0px ; display: inline ; float: none&quot;&gt;Hace 11 horas&lt;/span&gt;" style="text;whiteSpace=wrap;html=1;fontSize=8;spacing=0;glass=0;shadow=0;imageAspect=1;connectable=1;verticalAlign=middle;align=center;rounded=0;labelBackgroundColor=#ffffff;" vertex="1" parent="21">
                    <mxGeometry x="115" y="10" width="50" height="10" as="geometry"/>
                </mxCell>
                <mxCell id="40" value="&lt;span style=&quot;font-family: helvetica; font-size: 9px; font-style: normal; letter-spacing: normal; text-align: justify; text-indent: 0px; text-transform: none; word-spacing: 0px; display: inline; float: none;&quot;&gt;Problemas en la calefacción&lt;/span&gt;" style="text;whiteSpace=wrap;html=1;fontSize=9;verticalAlign=middle;labelBackgroundColor=none;fontStyle=1;fontColor=#4F4F4F;" vertex="1" parent="28">
                    <mxGeometry x="6" y="37" width="155" height="10" as="geometry"/>
                </mxCell>
                <mxCell id="42" value="" style="group;spacing=4;spacingBottom=0;spacingTop=12;spacingRight=6;verticalAlign=bottom;" connectable="0" vertex="1" parent="1">
                    <mxGeometry x="505" y="175" width="171" height="55" as="geometry"/>
                </mxCell>
                <mxCell id="43" value="&lt;div style=&quot;text-align: justify&quot;&gt;&lt;br&gt;&lt;/div&gt;" style="html=1;shadow=0;dashed=0;shape=mxgraph.bootstrap.rrect;rSize=5;strokeColor=#DFE0E0;html=1;whiteSpace=wrap;fillColor=#FEFEFE;fontColor=#212529;align=left;spacing=15;verticalAlign=bottom;rounded=1;glass=1;labelBackgroundColor=none;sketch=0;fontSize=7;opacity=60;container=0;spacingTop=0;spacingBottom=-6;" vertex="1" parent="42">
                    <mxGeometry y="9.68" width="171" height="45.32" as="geometry"/>
                </mxCell>
                <mxCell id="44" value="" style="html=1;shadow=0;dashed=0;shape=mxgraph.bootstrap.topButton;rSize=5;strokeColor=inherit;fillColor=#ffffff;resizeWidth=1;fontSize=9;" vertex="1" parent="42">
                    <mxGeometry width="171" height="30" as="geometry"/>
                </mxCell>
                <mxCell id="45" value="" style="html=1;shadow=0;dashed=0;shape=mxgraph.bootstrap.rrect;rSize=5;strokeColor=#DFE0E0;html=1;whiteSpace=wrap;fontColor=#6C767D;align=left;spacing=9;verticalAlign=middle;labelPosition=right;verticalLabelPosition=middle;fontStyle=1;labelBackgroundColor=none;labelBorderColor=none;spacingRight=0;spacingBottom=0;fillColor=#DB2843;" vertex="1" parent="44">
                    <mxGeometry y="0.5" width="20" height="20.5" relative="1" as="geometry">
                        <mxPoint x="10" y="-10.5" as="offset"/>
                    </mxGeometry>
                </mxCell>
                <mxCell id="46" value="Reportado" style="rounded=1;arcSize=50;strokeColor=none;strokeWidth=1;fontColor=#ffffff;align=center;verticalAlign=middle;spacingLeft=0;fontStyle=1;fontSize=8;spacing=10;shadow=0;glass=0;labelBackgroundColor=none;sketch=0;html=1;whiteSpace=wrap;horizontal=1;spacingTop=0;fillColor=#6C767D;" vertex="1" parent="44">
                    <mxGeometry x="40" y="7.5" width="65" height="15" as="geometry"/>
                </mxCell>
                <mxCell id="47" value="&lt;span style=&quot;color: rgb(108 , 118 , 125) ; font-family: &amp;#34;helvetica&amp;#34; ; font-size: 8px ; font-style: normal ; font-weight: 400 ; letter-spacing: normal ; text-indent: 0px ; text-transform: none ; word-spacing: 0px ; display: inline ; float: none&quot;&gt;Hace 2 meses&lt;/span&gt;" style="text;whiteSpace=wrap;html=1;fontSize=8;spacing=0;glass=0;shadow=0;imageAspect=1;connectable=1;verticalAlign=middle;align=center;rounded=0;labelBackgroundColor=#ffffff;" vertex="1" parent="44">
                    <mxGeometry x="115" y="10" width="50" height="10" as="geometry"/>
                </mxCell>
                <mxCell id="48" value="&lt;span style=&quot;font-family: helvetica; font-size: 9px; font-style: normal; letter-spacing: normal; text-align: justify; text-indent: 0px; text-transform: none; word-spacing: 0px; display: inline; float: none;&quot;&gt;Pérdida de agua en 5to C&lt;br&gt;&lt;/span&gt;" style="text;whiteSpace=wrap;html=1;fontSize=9;verticalAlign=middle;labelBackgroundColor=none;fontStyle=1;fontColor=#4F4F4F;" vertex="1" parent="42">
                    <mxGeometry x="6" y="37" width="155" height="10" as="geometry"/>
                </mxCell>
                <mxCell id="49" value="" style="group;spacing=4;spacingBottom=0;spacingTop=12;spacingRight=6;verticalAlign=bottom;" connectable="0" vertex="1" parent="1">
                    <mxGeometry x="505" y="240" width="171" height="55" as="geometry"/>
                </mxCell>
                <mxCell id="50" value="&lt;div style=&quot;text-align: justify&quot;&gt;&lt;br&gt;&lt;/div&gt;" style="html=1;shadow=0;dashed=0;shape=mxgraph.bootstrap.rrect;rSize=5;strokeColor=#DFE0E0;html=1;whiteSpace=wrap;fillColor=#FEFEFE;fontColor=#212529;align=left;spacing=15;verticalAlign=bottom;rounded=1;glass=1;labelBackgroundColor=none;sketch=0;fontSize=7;opacity=60;container=0;spacingTop=0;spacingBottom=-6;" vertex="1" parent="49">
                    <mxGeometry y="9.68" width="171" height="45.32" as="geometry"/>
                </mxCell>
                <mxCell id="51" value="" style="html=1;shadow=0;dashed=0;shape=mxgraph.bootstrap.topButton;rSize=5;strokeColor=inherit;fillColor=#ffffff;resizeWidth=1;fontSize=9;" vertex="1" parent="49">
                    <mxGeometry width="171" height="30" as="geometry"/>
                </mxCell>
                <mxCell id="52" value="" style="html=1;shadow=0;dashed=0;shape=mxgraph.bootstrap.rrect;rSize=5;strokeColor=#DFE0E0;html=1;whiteSpace=wrap;fontColor=#6C767D;align=left;spacing=9;verticalAlign=middle;labelPosition=right;verticalLabelPosition=middle;fontStyle=1;labelBackgroundColor=none;labelBorderColor=none;spacingRight=0;spacingBottom=0;fillColor=#33A64C;" vertex="1" parent="51">
                    <mxGeometry y="0.5" width="20" height="20.5" relative="1" as="geometry">
                        <mxPoint x="10" y="-10.5" as="offset"/>
                    </mxGeometry>
                </mxCell>
                <mxCell id="53" value="&lt;p style=&quot;line-height: 100%&quot;&gt;Solucionado&lt;/p&gt;" style="rounded=1;arcSize=50;strokeColor=none;strokeWidth=1;fontColor=#ffffff;align=center;verticalAlign=middle;spacingLeft=0;fontStyle=1;fontSize=8;spacing=10;shadow=0;glass=0;labelBackgroundColor=none;sketch=0;html=1;whiteSpace=wrap;horizontal=1;spacingTop=0;fillColor=#6C767D;" vertex="1" parent="51">
                    <mxGeometry x="40" y="7.5" width="65" height="15" as="geometry"/>
                </mxCell>
                <mxCell id="54" value="&lt;span style=&quot;color: rgb(108 , 118 , 125) ; font-family: &amp;#34;helvetica&amp;#34; ; font-size: 8px ; font-style: normal ; font-weight: 400 ; letter-spacing: normal ; text-indent: 0px ; text-transform: none ; word-spacing: 0px ; display: inline ; float: none&quot;&gt;Hace 4 min&lt;/span&gt;" style="text;whiteSpace=wrap;html=1;fontSize=8;spacing=0;glass=0;shadow=0;imageAspect=1;connectable=1;verticalAlign=middle;align=center;rounded=0;labelBackgroundColor=#ffffff;" vertex="1" parent="51">
                    <mxGeometry x="115" y="10" width="45" height="10" as="geometry"/>
                </mxCell>
                <mxCell id="55" value="&lt;span style=&quot;font-family: helvetica; font-size: 9px; font-style: normal; letter-spacing: normal; text-align: justify; text-indent: 0px; text-transform: none; word-spacing: 0px; display: inline; float: none;&quot;&gt;Foco quemado en entrada del edificio&lt;/span&gt;" style="text;whiteSpace=wrap;html=1;fontSize=9;verticalAlign=middle;labelBackgroundColor=none;fontStyle=1;fontColor=#4F4F4F;" vertex="1" parent="49">
                    <mxGeometry x="3.5" y="37" width="164" height="10" as="geometry"/>
                </mxCell>
                <mxCell id="56" value="" style="group;spacing=4;spacingBottom=0;spacingTop=12;spacingRight=6;verticalAlign=bottom;" connectable="0" vertex="1" parent="1">
                    <mxGeometry x="505" y="305" width="171" height="55" as="geometry"/>
                </mxCell>
                <mxCell id="57" value="&lt;div style=&quot;text-align: justify&quot;&gt;&lt;br&gt;&lt;/div&gt;" style="html=1;shadow=0;dashed=0;shape=mxgraph.bootstrap.rrect;rSize=5;strokeColor=#DFE0E0;html=1;whiteSpace=wrap;fillColor=#FEFEFE;fontColor=#212529;align=left;spacing=15;verticalAlign=bottom;rounded=1;glass=1;labelBackgroundColor=none;sketch=0;fontSize=7;opacity=60;container=0;spacingTop=0;spacingBottom=-6;" vertex="1" parent="56">
                    <mxGeometry y="9.68" width="171" height="45.32" as="geometry"/>
                </mxCell>
                <mxCell id="58" value="" style="html=1;shadow=0;dashed=0;shape=mxgraph.bootstrap.topButton;rSize=5;strokeColor=inherit;fillColor=#ffffff;resizeWidth=1;fontSize=9;" vertex="1" parent="56">
                    <mxGeometry width="171" height="30" as="geometry"/>
                </mxCell>
                <mxCell id="59" value="" style="html=1;shadow=0;dashed=0;shape=mxgraph.bootstrap.rrect;rSize=5;strokeColor=#DFE0E0;html=1;whiteSpace=wrap;fontColor=#6C767D;align=left;spacing=9;verticalAlign=middle;labelPosition=right;verticalLabelPosition=middle;fontStyle=1;fillColor=#FFBC26;labelBackgroundColor=none;labelBorderColor=none;spacingRight=0;spacingBottom=0;" vertex="1" parent="58">
                    <mxGeometry y="0.5" width="20" height="20.5" relative="1" as="geometry">
                        <mxPoint x="10" y="-10.5" as="offset"/>
                    </mxGeometry>
                </mxCell>
                <mxCell id="60" value="En proceso" style="rounded=1;arcSize=50;strokeColor=none;strokeWidth=1;fontColor=#ffffff;align=center;verticalAlign=middle;spacingLeft=0;fontStyle=1;fontSize=8;spacing=10;shadow=0;glass=0;labelBackgroundColor=none;sketch=0;html=1;whiteSpace=wrap;horizontal=1;spacingTop=0;fillColor=#6C767D;" vertex="1" parent="58">
                    <mxGeometry x="40" y="7.5" width="65" height="15" as="geometry"/>
                </mxCell>
                <mxCell id="61" value="&lt;span style=&quot;color: rgb(108 , 118 , 125) ; font-family: &amp;#34;helvetica&amp;#34; ; font-size: 8px ; font-style: normal ; font-weight: 400 ; letter-spacing: normal ; text-indent: 0px ; text-transform: none ; word-spacing: 0px ; display: inline ; float: none&quot;&gt;Hace 1 día&lt;/span&gt;" style="text;whiteSpace=wrap;html=1;fontSize=8;spacing=0;glass=0;shadow=0;imageAspect=1;connectable=1;verticalAlign=middle;align=center;rounded=0;labelBackgroundColor=#ffffff;" vertex="1" parent="58">
                    <mxGeometry x="115" y="10" width="45" height="10" as="geometry"/>
                </mxCell>
                <mxCell id="62" value="&lt;div style=&quot;text-align: justify&quot;&gt;&lt;font face=&quot;helvetica&quot;&gt;Filtraciones en la terraza&lt;/font&gt;&lt;/div&gt;" style="text;whiteSpace=wrap;html=1;fontSize=9;verticalAlign=middle;labelBackgroundColor=none;fontStyle=1;fontColor=#4F4F4F;" vertex="1" parent="56">
                    <mxGeometry x="6" y="37" width="155" height="10" as="geometry"/>
                </mxCell>
                <mxCell id="8" value="" style="group;glass=1;sketch=0;rounded=1;" parent="1" vertex="1" connectable="0">
                    <mxGeometry x="497" y="342" width="187" height="50" as="geometry"/>
                </mxCell>
                <mxCell id="KlYnetJEtSsTYRGKjeyn-115" value="" style="rounded=1;whiteSpace=wrap;html=1;shadow=0;glass=0;labelBackgroundColor=none;sketch=0;fontSize=23;fontColor=#00ADC0;strokeWidth=1;verticalAlign=bottom;strokeColor=none;arcSize=38;fillColor=#8DE9D5;" parent="8" vertex="1">
                    <mxGeometry x="114" width="73" height="42" as="geometry"/>
                </mxCell>
                <mxCell id="4" value="" style="shape=parallelogram;perimeter=parallelogramPerimeter;whiteSpace=wrap;html=1;fixedSize=1;rounded=1;shadow=0;fontColor=#4D4D4D;strokeColor=none;size=22.508985797178298;fillColor=#8DE9D5;" parent="8" vertex="1">
                    <mxGeometry x="93" width="64" height="33.59" as="geometry"/>
                </mxCell>
                <mxCell id="6" value="" style="rounded=1;whiteSpace=wrap;html=1;shadow=0;glass=0;labelBackgroundColor=none;sketch=0;fontSize=23;fontColor=#00ADC0;strokeWidth=1;verticalAlign=bottom;strokeColor=none;arcSize=38;flipV=0;flipH=0;fillColor=#32C4C0;" parent="8" vertex="1">
                    <mxGeometry width="73.81" height="42" as="geometry"/>
                </mxCell>
                <mxCell id="7" value="" style="shape=parallelogram;perimeter=parallelogramPerimeter;whiteSpace=wrap;html=1;fixedSize=1;rounded=1;shadow=0;fontColor=#4D4D4D;strokeColor=none;size=23.105063429156758;flipV=0;flipH=1;fillColor=#8DE9D5;" parent="8" vertex="1">
                    <mxGeometry x="35" width="58" height="33.59" as="geometry"/>
                </mxCell>
                <mxCell id="9" value="" style="aspect=fixed;html=1;points=[];align=center;image;fontSize=12;image=https://www.pngkit.com/png/full/31-316559_white-home-icon-no-background.png;rounded=1;shadow=0;glass=1;sketch=0;fillColor=#CCFFCC;gradientColor=none;imageAspect=1;comic=0;" parent="8" vertex="1">
                    <mxGeometry x="13" y="5.75" width="23" height="22.08" as="geometry"/>
                </mxCell>
                <mxCell id="3" value="" style="shape=xor;whiteSpace=wrap;html=1;rounded=0;shadow=0;fontColor=#4D4D4D;direction=south;strokeColor=none;fillColor=#8DE9D5;" parent="8" vertex="1">
                    <mxGeometry x="76" y="9" width="33.49" height="41" as="geometry"/>
                </mxCell>
                <mxCell id="KlYnetJEtSsTYRGKjeyn-35" value="" style="html=1;verticalLabelPosition=bottom;align=center;labelBackgroundColor=#ffffff;verticalAlign=top;strokeWidth=2;shadow=0;dashed=0;shape=mxgraph.ios7.icons.user;sketch=0;fontSize=9;fontColor=#FFFFFF;gradientColor=#67AB9F;fillColor=none;strokeColor=#FFFFFF;" parent="8" vertex="1">
                    <mxGeometry x="153" y="5.2900000000000205" width="24" height="22.99" as="geometry"/>
                </mxCell>
                <mxCell id="KlYnetJEtSsTYRGKjeyn-116" value="" style="verticalLabelPosition=bottom;verticalAlign=top;html=1;shadow=0;dashed=0;strokeWidth=1;shape=mxgraph.android.phone2;strokeColor=#314354;fillColor=#647687;fontColor=#ffffff;" parent="1" vertex="1">
                    <mxGeometry x="490" y="20" width="200" height="390" as="geometry"/>
                </mxCell>
                <mxCell id="13" value="" style="group" connectable="0" vertex="1" parent="1">
                    <mxGeometry x="577" y="330" width="26.200000000000045" height="26.5" as="geometry"/>
                </mxCell>
                <mxCell id="KlYnetJEtSsTYRGKjeyn-117" value="" style="html=1;verticalLabelPosition=bottom;align=center;labelBackgroundColor=#ffffff;verticalAlign=top;strokeWidth=2;shadow=0;dashed=0;shape=mxgraph.ios7.icons.add;fontSize=15;strokeColor=none;fillColor=#FF3399;" parent="13" vertex="1">
                    <mxGeometry width="26.2" height="26.5" as="geometry"/>
                </mxCell>
                <mxCell id="11" value="" style="shape=cross;whiteSpace=wrap;html=1;strokeColor=none;size=0.18208958388044372;shadow=0;sketch=0;gradientDirection=east;" vertex="1" parent="13">
                    <mxGeometry x="4.600000000000023" y="4.5" width="17" height="17.5" as="geometry"/>
                </mxCell>
                <mxCell id="64" value="" style="rounded=0;whiteSpace=wrap;html=1;strokeColor=#82b366;fillColor=#EDEDED;gradientDirection=south;gradientColor=#CCFFE6;" vertex="1" parent="1">
                    <mxGeometry x="782.81" y="54.84" width="184.39" height="321.17" as="geometry"/>
                </mxCell>
                <mxCell id="65" value="" style="strokeWidth=1;html=1;shadow=0;dashed=0;shape=mxgraph.android.statusBar;align=center;fillColor=#000000;strokeColor=#ffffff;fontColor=#ffffff;fontSize=10;" vertex="1" parent="1">
                    <mxGeometry x="782.81" y="55.42" width="184.19" height="15.83" as="geometry"/>
                </mxCell>
                <mxCell id="67" value="Cuenta" style="text;html=1;strokeColor=none;fillColor=none;align=left;verticalAlign=middle;whiteSpace=wrap;rounded=0;fontSize=23;opacity=80;rotation=0;fontFamily=Poiret One;fontSource=https%3A%2F%2Ffonts.googleapis.com%2Fcss%3Ffamily%3DPoiret%2BOne;fontStyle=1;fontColor=#4D4D4D;" vertex="1" parent="1">
                    <mxGeometry x="790" y="79.66" width="90" height="20" as="geometry"/>
                </mxCell>
                <mxCell id="96" value="" style="group;glass=1;sketch=0;rounded=1;" connectable="0" vertex="1" parent="1">
                    <mxGeometry x="782" y="342.42" width="187" height="50" as="geometry"/>
                </mxCell>
                <mxCell id="97" value="" style="rounded=1;whiteSpace=wrap;html=1;shadow=0;glass=0;labelBackgroundColor=none;sketch=0;fontSize=23;fontColor=#00ADC0;strokeWidth=1;verticalAlign=bottom;strokeColor=none;arcSize=38;fillColor=#32C4C0;" vertex="1" parent="96">
                    <mxGeometry x="114" width="73" height="42" as="geometry"/>
                </mxCell>
                <mxCell id="98" value="" style="shape=parallelogram;perimeter=parallelogramPerimeter;whiteSpace=wrap;html=1;fixedSize=1;rounded=1;shadow=0;fontColor=#4D4D4D;strokeColor=none;size=22.508985797178298;fillColor=#8DE9D5;" vertex="1" parent="96">
                    <mxGeometry x="93" width="64" height="33.59" as="geometry"/>
                </mxCell>
                <mxCell id="99" value="" style="rounded=1;whiteSpace=wrap;html=1;shadow=0;glass=0;labelBackgroundColor=none;sketch=0;fontSize=23;fontColor=#00ADC0;strokeWidth=1;verticalAlign=bottom;strokeColor=none;arcSize=38;flipV=0;flipH=0;fillColor=#8DE9D5;" vertex="1" parent="96">
                    <mxGeometry width="73.81" height="42" as="geometry"/>
                </mxCell>
                <mxCell id="100" value="" style="shape=parallelogram;perimeter=parallelogramPerimeter;whiteSpace=wrap;html=1;fixedSize=1;rounded=1;shadow=0;fontColor=#4D4D4D;strokeColor=none;size=23.105063429156758;flipV=0;flipH=1;fillColor=#8DE9D5;" vertex="1" parent="96">
                    <mxGeometry x="35" width="58" height="33.59" as="geometry"/>
                </mxCell>
                <mxCell id="101" value="" style="aspect=fixed;html=1;points=[];align=center;image;fontSize=12;image=https://www.pngkit.com/png/full/31-316559_white-home-icon-no-background.png;rounded=1;shadow=0;glass=1;sketch=0;fillColor=#CCFFCC;gradientColor=none;imageAspect=1;comic=0;" vertex="1" parent="96">
                    <mxGeometry x="13" y="5.75" width="23" height="22.08" as="geometry"/>
                </mxCell>
                <mxCell id="102" value="" style="shape=xor;whiteSpace=wrap;html=1;rounded=0;shadow=0;fontColor=#4D4D4D;direction=south;strokeColor=none;fillColor=#8DE9D5;" vertex="1" parent="96">
                    <mxGeometry x="76" y="9" width="33.49" height="41" as="geometry"/>
                </mxCell>
                <mxCell id="103" value="" style="html=1;verticalLabelPosition=bottom;align=center;labelBackgroundColor=#ffffff;verticalAlign=top;strokeWidth=2;shadow=0;dashed=0;shape=mxgraph.ios7.icons.user;sketch=0;fontSize=9;fontColor=#FFFFFF;gradientColor=#67AB9F;fillColor=none;strokeColor=#FFFFFF;" vertex="1" parent="96">
                    <mxGeometry x="153" y="5.2900000000000205" width="24" height="22.99" as="geometry"/>
                </mxCell>
                <mxCell id="104" value="" style="verticalLabelPosition=bottom;verticalAlign=top;html=1;shadow=0;dashed=0;strokeWidth=1;shape=mxgraph.android.phone2;strokeColor=#314354;fillColor=#647687;fontColor=#ffffff;" vertex="1" parent="1">
                    <mxGeometry x="775" y="20.42" width="200" height="390" as="geometry"/>
                </mxCell>
                <mxCell id="105" value="" style="group" connectable="0" vertex="1" parent="1">
                    <mxGeometry x="862" y="330.42" width="26.200000000000045" height="26.5" as="geometry"/>
                </mxCell>
                <mxCell id="106" value="" style="html=1;verticalLabelPosition=bottom;align=center;labelBackgroundColor=#ffffff;verticalAlign=top;strokeWidth=2;shadow=0;dashed=0;shape=mxgraph.ios7.icons.add;fontSize=15;strokeColor=none;fillColor=#FF3399;" vertex="1" parent="105">
                    <mxGeometry width="26.2" height="26.5" as="geometry"/>
                </mxCell>
                <mxCell id="107" value="" style="shape=cross;whiteSpace=wrap;html=1;strokeColor=none;size=0.18208958388044372;shadow=0;sketch=0;gradientDirection=east;" vertex="1" parent="105">
                    <mxGeometry x="4.600000000000023" y="4.5" width="17" height="17.5" as="geometry"/>
                </mxCell>
                <mxCell id="108" style="edgeStyle=orthogonalEdgeStyle;rounded=0;orthogonalLoop=1;jettySize=auto;html=1;entryX=0.001;entryY=0.498;entryDx=0;entryDy=0;entryPerimeter=0;fontSize=9;fontColor=#4F4F4F;curved=1;" edge="1" parent="1" source="KlYnetJEtSsTYRGKjeyn-35" target="104">
                    <mxGeometry relative="1" as="geometry"/>
                </mxCell>
            </root>
        </mxGraphModel>
    </diagram>
</mxfile>